<svg width="273" height="30" viewBox="0 0 273 30" fill="none" xmlns="http://www.w3.org/2000/svg">
<path d="M153.158 26.9414L153.033 25.9493L153.158 26.9414ZM272.325 3.23779L261.241 -5.29289e-05L263.979 11.2177L272.325 3.23779ZM0.325195 3.23779C-2.39611e-05 4.18343 -3.60608e-06 4.18344 2.16663e-05 4.18345C3.66271e-05 4.18345 6.68168e-05 4.18346 9.67681e-05 4.18347C0.000156641 4.18349 0.000236154 4.18352 0.000335306 4.18356C0.000533611 4.18362 0.000810415 4.18372 0.00116563 4.18384C0.00187609 4.18408 0.00290018 4.18444 0.00423715 4.1849C0.0069111 4.18581 0.0108366 4.18716 0.0160074 4.18893C0.0263489 4.19248 0.0416718 4.19772 0.0619264 4.20464C0.102436 4.21848 0.162672 4.239 0.242238 4.26599C0.401371 4.31996 0.637828 4.39976 0.948434 4.50356C1.56964 4.71116 2.48747 5.01473 3.67652 5.39952L3.98441 4.4481L4.2923 3.49668C3.10957 3.11393 2.19779 2.81235 1.58234 2.60668C1.27461 2.50384 1.04097 2.42498 0.884593 2.37195C0.806404 2.34543 0.74753 2.32537 0.708368 2.31199C0.688787 2.30531 0.674134 2.30029 0.664458 2.29697C0.659621 2.29531 0.656027 2.29408 0.653685 2.29328C0.652513 2.29288 0.651655 2.29258 0.651109 2.29239C0.650837 2.2923 0.650642 2.29223 0.650527 2.29219C0.650469 2.29217 0.65043 2.29216 0.650412 2.29215C0.650402 2.29215 0.650403 2.29215 0.650398 2.29215C0.650404 2.29215 0.650415 2.29215 0.325195 3.23779ZM11.4145 6.78011L11.1226 7.73656C13.3402 8.41336 15.8504 9.16369 18.6171 9.96662L18.8958 9.00624L19.1745 8.04586C16.4171 7.24564 13.9157 6.49794 11.7064 5.82366L11.4145 6.78011ZM26.3721 11.1235L26.1058 12.0874C28.4947 12.7475 31.0121 13.4274 33.6425 14.1183L33.8965 13.1511L34.1506 12.1839C31.5288 11.4953 29.0196 10.8176 26.6384 10.1597L26.3721 11.1235ZM41.445 15.0819L41.2035 16.0523C43.6615 16.6641 46.1942 17.278 48.7917 17.8879L49.0203 16.9144L49.2489 15.9409C46.6604 15.333 44.1363 14.7213 41.6866 14.1115L41.445 15.0819ZM56.605 18.6406L56.3899 19.6172C58.8918 20.1682 61.4406 20.7112 64.0283 21.2415L64.229 20.2619L64.4298 19.2822C61.8521 18.754 59.3129 18.2131 56.8201 17.664L56.605 18.6406ZM71.8776 21.7678L71.6922 22.7504C74.2241 23.2282 76.7845 23.6904 79.3665 24.1329L79.5354 23.1473L79.7043 22.1616C77.1339 21.7211 74.5845 21.2609 72.063 20.7851L71.8776 21.7678ZM87.2221 24.3939L87.0711 25.3824C89.6359 25.7742 92.2149 26.1433 94.8017 26.4859L94.933 25.4946L95.0644 24.5033C92.4913 24.1624 89.9254 23.7952 87.373 23.4054L87.2221 24.3939ZM102.664 26.4342L102.555 27.4282C105.147 27.714 107.74 27.9698 110.329 28.1916L110.414 27.1952L110.5 26.1989C107.928 25.9785 105.351 25.7244 102.774 25.4403L102.664 26.4342ZM118.185 27.7565L118.126 28.7548C120.745 28.9073 123.352 29.0207 125.94 29.091L125.967 28.0914L125.994 27.0917C123.428 27.022 120.842 26.9095 118.243 26.7582L118.185 27.7565ZM133.751 28.1678L133.76 29.1678C136.395 29.1457 139.003 29.0729 141.576 28.9451L141.527 27.9463L141.477 26.9475C138.933 27.0739 136.352 27.146 133.743 27.1678L133.751 28.1678ZM149.305 27.3748L149.403 28.37C150.709 28.2411 152.003 28.0958 153.284 27.9335L153.158 26.9414L153.033 25.9493C151.77 26.1093 150.495 26.2525 149.207 26.3797L149.305 27.3748ZM153.158 26.9414L153.284 27.9335C154.525 27.7762 155.78 27.6115 157.049 27.4396L156.915 26.4487L156.781 25.4577C155.517 25.6288 154.267 25.7929 153.033 25.9493L153.158 26.9414ZM164.433 25.3729L164.582 26.3618C167.059 25.9898 169.571 25.5961 172.11 25.1841L171.95 24.197L171.789 23.2099C169.258 23.6208 166.753 24.0133 164.285 24.384L164.433 25.3729ZM179.438 22.9422L179.608 23.9276C182.095 23.4985 184.596 23.0553 187.103 22.601L186.924 21.617L186.746 20.6331C184.245 21.0865 181.749 21.5287 179.268 21.9567L179.438 22.9422ZM194.396 20.2331L194.581 21.2157C197.078 20.7439 199.57 20.2639 202.048 19.7786L201.856 18.7972L201.664 17.8159C199.19 18.3003 196.702 18.7795 194.21 19.2505L194.396 20.2331ZM209.314 17.3134L209.512 18.2936C212.02 17.7869 214.504 17.2776 216.953 16.7691L216.75 15.79L216.547 14.8109C214.101 15.3187 211.621 15.8272 209.116 16.3332L209.314 17.3134ZM224.197 14.2241L224.406 15.2021C226.938 14.6632 229.418 14.1287 231.834 13.6027L231.621 12.6256L231.408 11.6485C228.995 12.1739 226.518 12.7077 223.989 13.246L224.197 14.2241ZM239.037 10.9934L239.254 11.9696C241.837 11.3952 244.319 10.837 246.682 10.3009L246.46 9.32569L246.239 8.35048C243.879 8.88603 241.4 9.44354 238.82 10.0173L239.037 10.9934ZM253.864 7.62902L254.089 8.60327C256.817 7.97208 259.302 7.38989 261.505 6.86973L261.275 5.89651L261.045 4.92329C258.845 5.4428 256.363 6.0243 253.638 6.65478L253.864 7.62902ZM153.158 26.9414L153.033 25.9493L153.158 26.9414ZM272.325 3.23779L261.241 -5.29289e-05L263.979 11.2177L272.325 3.23779ZM0.325195 3.23779C-2.39611e-05 4.18343 -3.60608e-06 4.18344 2.16663e-05 4.18345C3.66271e-05 4.18345 6.68168e-05 4.18346 9.67681e-05 4.18347C0.000156641 4.18349 0.000236154 4.18352 0.000335306 4.18356C0.000533611 4.18362 0.000810415 4.18372 0.00116563 4.18384C0.00187609 4.18408 0.00290018 4.18444 0.00423715 4.1849C0.0069111 4.18581 0.0108366 4.18716 0.0160074 4.18893C0.0263489 4.19248 0.0416718 4.19772 0.0619264 4.20464C0.102436 4.21848 0.162672 4.239 0.242238 4.26599C0.401371 4.31996 0.637828 4.39976 0.948434 4.50356C1.56964 4.71116 2.48747 5.01473 3.67652 5.39952L3.98441 4.4481L4.2923 3.49668C3.10957 3.11393 2.19779 2.81235 1.58234 2.60668C1.27461 2.50384 1.04097 2.42498 0.884593 2.37195C0.806404 2.34543 0.74753 2.32537 0.708368 2.31199C0.688787 2.30531 0.674134 2.30029 0.664458 2.29697C0.659621 2.29531 0.656027 2.29408 0.653685 2.29328C0.652513 2.29288 0.651655 2.29258 0.651109 2.29239C0.650837 2.2923 0.650642 2.29223 0.650527 2.29219C0.650469 2.29217 0.65043 2.29216 0.650412 2.29215C0.650402 2.29215 0.650403 2.29215 0.650398 2.29215C0.650404 2.29215 0.650415 2.29215 0.325195 3.23779ZM11.4145 6.78011L11.1226 7.73656C13.3402 8.41336 15.8504 9.16369 18.6171 9.96662L18.8958 9.00624L19.1745 8.04586C16.4171 7.24564 13.9157 6.49794 11.7064 5.82366L11.4145 6.78011ZM26.3721 11.1235L26.1058 12.0874C28.4947 12.7475 31.0121 13.4274 33.6425 14.1183L33.8965 13.1511L34.1506 12.1839C31.5288 11.4953 29.0196 10.8176 26.6384 10.1597L26.3721 11.1235ZM41.445 15.0819L41.2035 16.0523C43.6615 16.6641 46.1942 17.278 48.7917 17.8879L49.0203 16.9144L49.2489 15.9409C46.6604 15.333 44.1363 14.7213 41.6866 14.1115L41.445 15.0819ZM56.605 18.6406L56.3899 19.6172C58.8918 20.1682 61.4406 20.7112 64.0283 21.2415L64.229 20.2619L64.4298 19.2822C61.8521 18.754 59.3129 18.2131 56.8201 17.664L56.605 18.6406ZM71.8776 21.7678L71.6922 22.7504C74.2241 23.2282 76.7845 23.6904 79.3665 24.1329L79.5354 23.1473L79.7043 22.1616C77.1339 21.7211 74.5845 21.2609 72.063 20.7851L71.8776 21.7678ZM87.2221 24.3939L87.0711 25.3824C89.6359 25.7742 92.2149 26.1433 94.8017 26.4859L94.933 25.4946L95.0644 24.5033C92.4913 24.1624 89.9254 23.7952 87.373 23.4054L87.2221 24.3939ZM102.664 26.4342L102.555 27.4282C105.147 27.714 107.74 27.9698 110.329 28.1916L110.414 27.1952L110.5 26.1989C107.928 25.9785 105.351 25.7244 102.774 25.4403L102.664 26.4342ZM118.185 27.7565L118.126 28.7548C120.745 28.9073 123.352 29.0207 125.94 29.091L125.967 28.0914L125.994 27.0917C123.428 27.022 120.842 26.9095 118.243 26.7582L118.185 27.7565ZM133.751 28.1678L133.76 29.1678C136.395 29.1457 139.003 29.0729 141.576 28.9451L141.527 27.9463L141.477 26.9475C138.933 27.0739 136.352 27.146 133.743 27.1678L133.751 28.1678ZM149.305 27.3748L149.403 28.37C150.709 28.2411 152.003 28.0958 153.284 27.9335L153.158 26.9414L153.033 25.9493C151.77 26.1093 150.495 26.2525 149.207 26.3797L149.305 27.3748ZM153.158 26.9414L153.284 27.9335C154.525 27.7762 155.78 27.6115 157.049 27.4396L156.915 26.4487L156.781 25.4577C155.517 25.6288 154.267 25.7929 153.033 25.9493L153.158 26.9414ZM164.433 25.3729L164.582 26.3618C167.059 25.9898 169.571 25.5961 172.11 25.1841L171.95 24.197L171.789 23.2099C169.258 23.6208 166.753 24.0133 164.285 24.384L164.433 25.3729ZM179.438 22.9422L179.608 23.9276C182.095 23.4985 184.596 23.0553 187.103 22.601L186.924 21.617L186.746 20.6331C184.245 21.0865 181.749 21.5287 179.268 21.9567L179.438 22.9422ZM194.396 20.2331L194.581 21.2157C197.078 20.7439 199.57 20.2639 202.048 19.7786L201.856 18.7972L201.664 17.8159C199.19 18.3003 196.702 18.7795 194.21 19.2505L194.396 20.2331ZM209.314 17.3134L209.512 18.2936C212.02 17.7869 214.504 17.2776 216.953 16.7691L216.75 15.79L216.547 14.8109C214.101 15.3187 211.621 15.8272 209.116 16.3332L209.314 17.3134ZM224.197 14.2241L224.406 15.2021C226.938 14.6632 229.418 14.1287 231.834 13.6027L231.621 12.6256L231.408 11.6485C228.995 12.1739 226.518 12.7077 223.989 13.246L224.197 14.2241ZM239.037 10.9934L239.254 11.9696C241.837 11.3952 244.319 10.837 246.682 10.3009L246.46 9.32569L246.239 8.35048C243.879 8.88603 241.4 9.44354 238.82 10.0173L239.037 10.9934ZM253.864 7.62902L254.089 8.60327C256.817 7.97208 259.302 7.38989 261.505 6.86973L261.275 5.89651L261.045 4.92329C258.845 5.4428 256.363 6.0243 253.638 6.65478L253.864 7.62902Z" fill="white"/>
</svg>
