<svg width="20" height="20" viewBox="0 0 20 20" fill="none" xmlns="http://www.w3.org/2000/svg">
<path fill-rule="evenodd" clip-rule="evenodd" d="M5.90695 2.25572C5.57591 0.958896 4.39994 0 3 0C1.34315 0 0 1.34315 0 3C0 4.39994 0.958896 5.57591 2.25572 5.90695C2.25194 5.93744 2.25 5.96849 2.25 6V14C2.25 14.0315 2.25195 14.0626 2.25572 14.093C0.958898 14.4241 0 15.6001 0 17C0 18.6569 1.34315 20 3 20C4.39994 20 5.57591 19.0411 5.90695 17.7443C5.93744 17.7481 5.96849 17.75 6 17.75H14C14.0315 17.75 14.0626 17.7481 14.093 17.7443C14.4241 19.0411 15.6001 20 17 20C18.6569 20 20 18.6569 20 17C20 15.6001 19.0411 14.4241 17.7443 14.093C17.7481 14.0626 17.75 14.0315 17.75 14V6C17.75 5.96849 17.7481 5.93744 17.7443 5.90695C19.0411 5.57591 20 4.39994 20 3C20 1.34315 18.6569 0 17 0C15.6001 0 14.4241 0.958898 14.093 2.25572C14.0626 2.25195 14.0315 2.25 14 2.25H6C5.96849 2.25 5.93744 2.25194 5.90695 2.25572ZM3.74428 5.90695C3.74806 5.93744 3.75 5.96849 3.75 6L3.75 14C3.75 14.0315 3.74805 14.0626 3.74428 14.093C4.80311 14.3633 5.63667 15.1969 5.90695 16.2557C5.93744 16.2519 5.96849 16.25 6 16.25H14C14.0315 16.25 14.0626 16.2519 14.093 16.2557C14.3633 15.1969 15.1969 14.3633 16.2557 14.093C16.2519 14.0626 16.25 14.0315 16.25 14V6C16.25 5.96849 16.2519 5.93744 16.2557 5.90695C15.1969 5.63667 14.3633 4.80311 14.093 3.74428C14.0626 3.74805 14.0315 3.75 14 3.75H6C5.96849 3.75 5.93744 3.74806 5.90695 3.74429C5.63666 4.80311 4.80311 5.63667 3.74428 5.90695Z" fill="white"/>
</svg>
