<svg width="396" height="450" viewBox="0 0 396 450" fill="none" xmlns="http://www.w3.org/2000/svg">
<g filter="url(#filter0_d_13_1104)">
<mask id="path-1-outside-1_13_1104" maskUnits="userSpaceOnUse" x="9.99902" y="11" width="376" height="430" fill="black">
<rect fill="white" x="9.99902" y="11" width="376" height="430"/>
<path d="M382.714 96.6133V417.999C382.714 418.229 382.708 418.459 382.7 418.688C382.702 418.63 382.707 418.573 382.708 418.516C382.712 418.344 382.715 418.172 382.715 417.999V96.6143L383.715 98.2148V417.999C383.715 429.597 374.312 438.999 362.715 438.999H33C21.402 438.999 12 429.597 12 417.999V34C12.0001 22.4021 21.4021 13 33 13H330.467L382.714 96.6133ZM382.662 419.412C382.669 419.32 382.674 419.228 382.68 419.136C382.674 419.228 382.669 419.32 382.662 419.412Z"/>
</mask>
<path d="M382.714 96.6133V417.999C382.714 418.229 382.708 418.459 382.7 418.688C382.702 418.63 382.707 418.573 382.708 418.516C382.712 418.344 382.715 418.172 382.715 417.999V96.6143L383.715 98.2148V417.999C383.715 429.597 374.312 438.999 362.715 438.999H33C21.402 438.999 12 429.597 12 417.999V34C12.0001 22.4021 21.4021 13 33 13H330.467L382.714 96.6133ZM382.662 419.412C382.669 419.32 382.674 419.228 382.68 419.136C382.674 419.228 382.669 419.32 382.662 419.412Z" fill="white"/>
<path d="M382.714 96.6133H384.714V96.0398L384.41 95.5534L382.714 96.6133ZM382.7 418.688L380.701 418.619L384.699 418.756L382.7 418.688ZM382.708 418.516L384.707 418.566V418.566L382.708 418.516ZM382.715 96.6143L384.411 95.5545L380.715 89.6385V96.6143H382.715ZM383.715 98.2148H385.715V97.6414L385.411 97.1551L383.715 98.2148ZM362.715 438.999V440.999H362.715L362.715 438.999ZM12 34L10 34V34H12ZM330.467 13L332.163 11.9402L331.575 11H330.467V13ZM382.662 419.412L380.667 419.272L384.657 419.554L382.662 419.412ZM382.68 419.136L384.676 419.249L380.683 419.021L382.68 419.136ZM382.714 96.6133H380.714V417.999H382.714H384.714V96.6133H382.714ZM382.714 417.999H380.714C380.714 418.197 380.709 418.401 380.701 418.619L382.7 418.688L384.699 418.756C384.707 418.517 384.714 418.262 384.714 417.999H382.714ZM382.7 418.688L384.699 418.756C384.699 418.751 384.7 418.744 384.701 418.708C384.703 418.68 384.706 418.626 384.707 418.566L382.708 418.516L380.709 418.465C380.709 418.463 380.709 418.466 380.707 418.495C380.706 418.516 380.703 418.567 380.701 418.619L382.7 418.688ZM382.708 418.516L384.707 418.566C384.712 418.38 384.715 418.191 384.715 417.999H382.715H380.715C380.715 418.152 380.713 418.308 380.709 418.465L382.708 418.516ZM382.715 417.999H384.715V96.6143H382.715H380.715V417.999H382.715ZM382.715 96.6143L381.019 97.674L382.019 99.2746L383.715 98.2148L385.411 97.1551L384.411 95.5545L382.715 96.6143ZM383.715 98.2148H381.715V417.999H383.715H385.715V98.2148H383.715ZM383.715 417.999H381.715C381.715 428.492 373.208 436.999 362.715 436.999L362.715 438.999L362.715 440.999C375.417 440.998 385.715 430.701 385.715 417.999H383.715ZM362.715 438.999V436.999H33V438.999V440.999H362.715V438.999ZM33 438.999V436.999C22.5066 436.999 14 428.492 14 417.999H12H10C10 430.702 20.2974 440.999 33 440.999V438.999ZM12 417.999H14V34H12H10V417.999H12ZM12 34L14 34C14.0001 23.5067 22.5067 15 33 15V13V11C20.2975 11 10.0001 21.2976 10 34L12 34ZM33 13V15H330.467V13V11H33V13ZM330.467 13L328.771 14.0598L381.018 97.6731L382.714 96.6133L384.41 95.5534L332.163 11.9402L330.467 13ZM382.662 419.412L384.657 419.554C384.664 419.451 384.671 419.349 384.676 419.25L382.68 419.136L380.683 419.021C380.678 419.107 380.673 419.19 380.667 419.27L382.662 419.412ZM382.68 419.136L380.683 419.023C380.678 419.105 380.673 419.188 380.667 419.272L382.662 419.412L384.657 419.552C384.664 419.452 384.671 419.351 384.676 419.249L382.68 419.136Z" fill="#0D2BEC" mask="url(#path-1-outside-1_13_1104)"/>
</g>
<defs>
<filter id="filter0_d_13_1104" x="0" y="0" width="395.715" height="449.999" filterUnits="userSpaceOnUse" color-interpolation-filters="sRGB">
<feFlood flood-opacity="0" result="BackgroundImageFix"/>
<feColorMatrix in="SourceAlpha" type="matrix" values="0 0 0 0 0 0 0 0 0 0 0 0 0 0 0 0 0 0 127 0" result="hardAlpha"/>
<feOffset dy="-1"/>
<feGaussianBlur stdDeviation="5"/>
<feComposite in2="hardAlpha" operator="out"/>
<feColorMatrix type="matrix" values="0 0 0 0 0 0 0 0 0 0 0 0 0 0 0 0 0 0 0.1 0"/>
<feBlend mode="normal" in2="BackgroundImageFix" result="effect1_dropShadow_13_1104"/>
<feBlend mode="normal" in="SourceGraphic" in2="effect1_dropShadow_13_1104" result="shape"/>
</filter>
</defs>
</svg>
