<svg width="60" height="60" viewBox="0 0 60 60" fill="none" xmlns="http://www.w3.org/2000/svg">
<rect width="60" height="60" rx="30" fill="#2195F2"/>
<mask id="mask0_371_4057" style="mask-type:alpha" maskUnits="userSpaceOnUse" x="10" y="10" width="40" height="40">
<rect x="10" y="10" width="40" height="40" fill="#D9D9D9"/>
</mask>
<g mask="url(#mask0_371_4057)">
<path d="M28.0548 35.2779H31.9439V31.1113H36.1106V27.2221H31.9439V23.0554H28.0548V27.2221H23.8881V31.1113H28.0548V35.2779ZM29.9993 46.6388C26.1196 45.6665 22.9275 43.4235 20.4231 39.9096C17.9184 36.3957 16.666 32.5276 16.666 28.3054V18.3054L29.9993 13.3054L43.3327 18.3054V28.3054C43.3327 32.5276 42.0803 36.3957 39.5756 39.9096C37.0712 43.4235 33.8791 45.6665 29.9993 46.6388ZM29.9993 43.75C33.0919 42.7408 35.6242 40.801 37.5964 37.9304C39.5687 35.0601 40.5548 31.8518 40.5548 28.3054V20.2363L29.9993 16.2638L19.4439 20.2363V28.3054C19.4439 31.8518 20.43 35.0601 22.4023 37.9304C24.3745 40.801 26.9068 42.7408 29.9993 43.75Z" fill="white"/>
</g>
</svg>
