<svg width="35" height="34" viewBox="0 0 35 34" fill="none" xmlns="http://www.w3.org/2000/svg">
<path d="M3.64712 17C3.64712 13.4117 5.07254 9.97049 7.6098 7.43323C10.1471 4.89597 13.5883 3.47056 17.1765 3.47056C20.7648 3.47056 24.206 4.89597 26.7433 7.43323C29.2805 9.97049 30.7059 13.4117 30.7059 17C30.7059 20.5882 29.2805 24.0295 26.7433 26.5667C24.206 29.104 20.7648 30.5294 17.1765 30.5294C13.5883 30.5294 10.1471 29.104 7.6098 26.5667C5.07254 24.0295 3.64712 20.5882 3.64712 17ZM17.1765 0.0882034C7.83617 0.0882034 0.264771 7.6596 0.264771 17C0.264771 26.3403 7.83617 33.9117 17.1765 33.9117C26.5169 33.9117 34.0883 26.3403 34.0883 17C34.0883 7.6596 26.5169 0.0882034 17.1765 0.0882034ZM17.1765 11.0809C17.5097 11.0809 17.8395 11.0152 18.1473 10.8878C18.4551 10.7603 18.7347 10.5734 18.9703 10.3378C19.2059 10.1023 19.3927 9.82264 19.5202 9.51486C19.6477 9.20709 19.7133 8.87722 19.7133 8.54409C19.7133 8.21095 19.6477 7.88108 19.5202 7.57331C19.3927 7.26553 19.2059 6.98588 18.9703 6.75032C18.7347 6.51476 18.4551 6.3279 18.1473 6.20042C17.8395 6.07294 17.5097 6.00732 17.1765 6.00732C16.5037 6.00732 15.8585 6.27459 15.3828 6.75032C14.907 7.22606 14.6398 7.87129 14.6398 8.54409C14.6398 9.21688 14.907 9.86211 15.3828 10.3378C15.8585 10.8136 16.5037 11.0809 17.1765 11.0809ZM17.1765 12.772C14.5434 12.772 11.802 12.1683 9.34808 11.2009L8.09492 14.3448C9.91462 15.0703 11.8629 15.5591 13.7942 15.8686C13.7942 17.3399 13.9396 18.8518 13.2598 20.2098L10.5911 25.5472L13.6183 27.0591L16.243 21.808C16.3297 21.6342 16.4632 21.4879 16.6284 21.3857C16.7936 21.2836 16.984 21.2294 17.1782 21.2294C17.3725 21.2294 17.5629 21.2836 17.7281 21.3857C17.8933 21.4879 18.0267 21.6342 18.1134 21.808L20.7382 27.0591L23.7654 25.5472L21.0967 20.2098C20.4151 18.8501 20.5589 17.3382 20.5589 15.8669C22.5006 15.5627 24.4047 15.0542 26.2395 14.3499C26.2818 14.333 25.005 11.2009 24.9999 11.2043C22.5426 12.1615 19.8131 12.772 17.1765 12.772Z" fill="#0D2BEC"/>
</svg>
