<svg width="322" height="60" viewBox="0 0 322 60" fill="none" xmlns="http://www.w3.org/2000/svg">
<rect width="60" height="60" rx="30" fill="#2195F2"/>
<mask id="mask0_356_3755" style="mask-type:alpha" maskUnits="userSpaceOnUse" x="10" y="10" width="40" height="40">
<rect x="10" y="10" width="40" height="40" fill="#D9D9D9"/>
</mask>
<g mask="url(#mask0_356_3755)">
<path d="M28.0548 35.2779H31.9439V31.1113H36.1106V27.2221H31.9439V23.0554H28.0548V27.2221H23.8881V31.1113H28.0548V35.2779ZM29.9993 46.6388C26.1196 45.6665 22.9275 43.4235 20.4231 39.9096C17.9184 36.3957 16.666 32.5276 16.666 28.3054V18.3054L29.9993 13.3054L43.3327 18.3054V28.3054C43.3327 32.5276 42.0803 36.3957 39.5756 39.9096C37.0712 43.4235 33.8791 45.6665 29.9993 46.6388ZM29.9993 43.75C33.0919 42.7408 35.6242 40.801 37.5964 37.9304C39.5687 35.0601 40.5548 31.8518 40.5548 28.3054V20.2363L29.9993 16.2638L19.4439 20.2363V28.3054C19.4439 31.8518 20.43 35.0601 22.4023 37.9304C24.3745 40.801 26.9068 42.7408 29.9993 43.75Z" fill="white"/>
</g>
<path d="M80.672 26.48C80.368 25.92 79.928 25.496 79.352 25.208C78.792 24.904 78.128 24.752 77.36 24.752C76.032 24.752 74.968 25.192 74.168 26.072C73.368 26.936 72.968 28.096 72.968 29.552C72.968 31.104 73.384 32.32 74.216 33.2C75.064 34.064 76.224 34.496 77.696 34.496C78.704 34.496 79.552 34.24 80.24 33.728C80.944 33.216 81.456 32.48 81.776 31.52H76.568V28.496H85.496V32.312C85.192 33.336 84.672 34.288 83.936 35.168C83.216 36.048 82.296 36.76 81.176 37.304C80.056 37.848 78.792 38.12 77.384 38.12C75.72 38.12 74.232 37.76 72.92 37.04C71.624 36.304 70.608 35.288 69.872 33.992C69.152 32.696 68.792 31.216 68.792 29.552C68.792 27.888 69.152 26.408 69.872 25.112C70.608 23.8 71.624 22.784 72.92 22.064C74.216 21.328 75.696 20.96 77.36 20.96C79.376 20.96 81.072 21.448 82.448 22.424C83.84 23.4 84.76 24.752 85.208 26.48H80.672ZM100.993 24.608V38H96.8893V36.176C96.4733 36.768 95.9053 37.248 95.1853 37.616C94.4813 37.968 93.6973 38.144 92.8333 38.144C91.8093 38.144 90.9053 37.92 90.1213 37.472C89.3373 37.008 88.7293 36.344 88.2973 35.48C87.8653 34.616 87.6493 33.6 87.6493 32.432V24.608H91.7293V31.88C91.7293 32.776 91.9613 33.472 92.4253 33.968C92.8893 34.464 93.5133 34.712 94.2973 34.712C95.0973 34.712 95.7293 34.464 96.1933 33.968C96.6573 33.472 96.8893 32.776 96.8893 31.88V24.608H100.993ZM103.125 31.28C103.125 29.904 103.381 28.696 103.893 27.656C104.421 26.616 105.133 25.816 106.029 25.256C106.925 24.696 107.925 24.416 109.029 24.416C109.973 24.416 110.797 24.608 111.501 24.992C112.221 25.376 112.773 25.88 113.157 26.504V24.608H117.261V38H113.157V36.104C112.757 36.728 112.197 37.232 111.477 37.616C110.773 38 109.949 38.192 109.005 38.192C107.917 38.192 106.925 37.912 106.029 37.352C105.133 36.776 104.421 35.968 103.893 34.928C103.381 33.872 103.125 32.656 103.125 31.28ZM113.157 31.304C113.157 30.28 112.869 29.472 112.293 28.88C111.733 28.288 111.045 27.992 110.229 27.992C109.413 27.992 108.717 28.288 108.141 28.88C107.581 29.456 107.301 30.256 107.301 31.28C107.301 32.304 107.581 33.12 108.141 33.728C108.717 34.32 109.413 34.616 110.229 34.616C111.045 34.616 111.733 34.32 112.293 33.728C112.869 33.136 113.157 32.328 113.157 31.304ZM124.334 26.84C124.814 26.104 125.414 25.528 126.134 25.112C126.854 24.68 127.654 24.464 128.534 24.464V28.808H127.406C126.382 28.808 125.614 29.032 125.102 29.48C124.59 29.912 124.334 30.68 124.334 31.784V38H120.23V24.608H124.334V26.84ZM129.68 31.28C129.68 29.904 129.936 28.696 130.448 27.656C130.976 26.616 131.688 25.816 132.584 25.256C133.48 24.696 134.48 24.416 135.584 24.416C136.464 24.416 137.264 24.6 137.984 24.968C138.72 25.336 139.296 25.832 139.712 26.456V20.24H143.816V38H139.712V36.08C139.328 36.72 138.776 37.232 138.056 37.616C137.352 38 136.528 38.192 135.584 38.192C134.48 38.192 133.48 37.912 132.584 37.352C131.688 36.776 130.976 35.968 130.448 34.928C129.936 33.872 129.68 32.656 129.68 31.28ZM139.712 31.304C139.712 30.28 139.424 29.472 138.848 28.88C138.288 28.288 137.6 27.992 136.784 27.992C135.968 27.992 135.272 28.288 134.696 28.88C134.136 29.456 133.856 30.256 133.856 31.28C133.856 32.304 134.136 33.12 134.696 33.728C135.272 34.32 135.968 34.616 136.784 34.616C137.6 34.616 138.288 34.32 138.848 33.728C139.424 33.136 139.712 32.328 139.712 31.304ZM148.849 23.216C148.129 23.216 147.537 23.008 147.073 22.592C146.625 22.16 146.401 21.632 146.401 21.008C146.401 20.368 146.625 19.84 147.073 19.424C147.537 18.992 148.129 18.776 148.849 18.776C149.553 18.776 150.129 18.992 150.577 19.424C151.041 19.84 151.273 20.368 151.273 21.008C151.273 21.632 151.041 22.16 150.577 22.592C150.129 23.008 149.553 23.216 148.849 23.216ZM150.889 24.608V38H146.785V24.608H150.889ZM153.047 31.28C153.047 29.904 153.303 28.696 153.815 27.656C154.343 26.616 155.055 25.816 155.951 25.256C156.847 24.696 157.847 24.416 158.951 24.416C159.895 24.416 160.719 24.608 161.423 24.992C162.143 25.376 162.695 25.88 163.079 26.504V24.608H167.183V38H163.079V36.104C162.679 36.728 162.119 37.232 161.399 37.616C160.695 38 159.871 38.192 158.927 38.192C157.839 38.192 156.847 37.912 155.951 37.352C155.055 36.776 154.343 35.968 153.815 34.928C153.303 33.872 153.047 32.656 153.047 31.28ZM163.079 31.304C163.079 30.28 162.791 29.472 162.215 28.88C161.655 28.288 160.967 27.992 160.151 27.992C159.335 27.992 158.639 28.288 158.063 28.88C157.503 29.456 157.223 30.256 157.223 31.28C157.223 32.304 157.503 33.12 158.063 33.728C158.639 34.32 159.335 34.616 160.151 34.616C160.967 34.616 161.655 34.32 162.215 33.728C162.791 33.136 163.079 32.328 163.079 31.304ZM178.312 24.464C179.88 24.464 181.128 24.976 182.056 26C183 27.008 183.472 28.4 183.472 30.176V38H179.392V30.728C179.392 29.832 179.16 29.136 178.696 28.64C178.232 28.144 177.608 27.896 176.824 27.896C176.04 27.896 175.416 28.144 174.952 28.64C174.488 29.136 174.256 29.832 174.256 30.728V38H170.152V24.608H174.256V26.384C174.672 25.792 175.232 25.328 175.936 24.992C176.64 24.64 177.432 24.464 178.312 24.464ZM185.628 29.552C185.628 27.888 185.988 26.408 186.708 25.112C187.428 23.8 188.428 22.784 189.708 22.064C191.004 21.328 192.468 20.96 194.1 20.96C196.1 20.96 197.812 21.488 199.236 22.544C200.66 23.6 201.612 25.04 202.092 26.864H197.58C197.244 26.16 196.764 25.624 196.14 25.256C195.532 24.888 194.836 24.704 194.052 24.704C192.788 24.704 191.764 25.144 190.98 26.024C190.196 26.904 189.804 28.08 189.804 29.552C189.804 31.024 190.196 32.2 190.98 33.08C191.764 33.96 192.788 34.4 194.052 34.4C194.836 34.4 195.532 34.216 196.14 33.848C196.764 33.48 197.244 32.944 197.58 32.24H202.092C201.612 34.064 200.66 35.504 199.236 36.56C197.812 37.6 196.1 38.12 194.1 38.12C192.468 38.12 191.004 37.76 189.708 37.04C188.428 36.304 187.428 35.288 186.708 33.992C185.988 32.696 185.628 31.216 185.628 29.552ZM203.789 31.28C203.789 29.904 204.045 28.696 204.557 27.656C205.085 26.616 205.797 25.816 206.693 25.256C207.589 24.696 208.589 24.416 209.693 24.416C210.637 24.416 211.461 24.608 212.165 24.992C212.885 25.376 213.437 25.88 213.821 26.504V24.608H217.925V38H213.821V36.104C213.421 36.728 212.861 37.232 212.141 37.616C211.437 38 210.613 38.192 209.669 38.192C208.581 38.192 207.589 37.912 206.693 37.352C205.797 36.776 205.085 35.968 204.557 34.928C204.045 33.872 203.789 32.656 203.789 31.28ZM213.821 31.304C213.821 30.28 213.533 29.472 212.957 28.88C212.397 28.288 211.709 27.992 210.893 27.992C210.077 27.992 209.381 28.288 208.805 28.88C208.245 29.456 207.965 30.256 207.965 31.28C207.965 32.304 208.245 33.12 208.805 33.728C209.381 34.32 210.077 34.616 210.893 34.616C211.709 34.616 212.397 34.32 212.957 33.728C213.533 33.136 213.821 32.328 213.821 31.304ZM224.998 26.84C225.478 26.104 226.078 25.528 226.798 25.112C227.518 24.68 228.318 24.464 229.198 24.464V28.808H228.07C227.046 28.808 226.278 29.032 225.766 29.48C225.254 29.912 224.998 30.68 224.998 31.784V38H220.894V24.608H224.998V26.84ZM243.784 31.088C243.784 31.472 243.76 31.872 243.712 32.288H234.424C234.488 33.12 234.752 33.76 235.216 34.208C235.696 34.64 236.28 34.856 236.968 34.856C237.992 34.856 238.704 34.424 239.104 33.56H243.472C243.248 34.44 242.84 35.232 242.248 35.936C241.672 36.64 240.944 37.192 240.064 37.592C239.184 37.992 238.2 38.192 237.112 38.192C235.8 38.192 234.632 37.912 233.608 37.352C232.584 36.792 231.784 35.992 231.208 34.952C230.632 33.912 230.344 32.696 230.344 31.304C230.344 29.912 230.624 28.696 231.184 27.656C231.76 26.616 232.56 25.816 233.584 25.256C234.608 24.696 235.784 24.416 237.112 24.416C238.408 24.416 239.56 24.688 240.568 25.232C241.576 25.776 242.36 26.552 242.92 27.56C243.496 28.568 243.784 29.744 243.784 31.088ZM239.584 30.008C239.584 29.304 239.344 28.744 238.864 28.328C238.384 27.912 237.784 27.704 237.064 27.704C236.376 27.704 235.792 27.904 235.312 28.304C234.848 28.704 234.56 29.272 234.448 30.008H239.584ZM258.117 31.448H253.941V35.72H250.053V31.448H245.877V27.776H250.053V23.48H253.941V27.776H258.117V31.448Z" fill="#008CFF"/>
</svg>
