<svg width="24" height="30" viewBox="0 0 24 30" fill="none" xmlns="http://www.w3.org/2000/svg">
<path d="M19.9966 28.1003C18.4459 29.6035 16.7527 29.3662 15.1229 28.6541C13.3981 27.9262 11.8157 27.8946 9.99598 28.6541C7.71736 29.6352 6.51476 29.3503 5.15392 28.1003C-2.56807 20.1409 -1.42876 8.01994 7.3376 7.57687C9.4738 7.68764 10.9612 8.74783 12.2113 8.84277C14.0785 8.463 15.8666 7.37116 17.8604 7.51358C20.2498 7.70346 22.0537 8.65288 23.2405 10.3618C18.3035 13.3209 19.4744 19.8245 24 21.6442C23.098 24.0177 21.9271 26.3755 19.9808 28.1161L19.9966 28.1003ZM12.0531 7.48193C11.8157 3.95323 14.6798 1.04166 17.9712 0.756836C18.43 4.83936 14.2684 7.87752 12.0531 7.48193Z" fill="#FDFDFD"/>
</svg>
