<svg width="598" height="559" viewBox="0 0 598 559" fill="none" xmlns="http://www.w3.org/2000/svg">
<path d="M299 558.665C464.133 558.665 598 481.376 598 386.035C598 290.694 464.133 213.405 299 213.405C133.867 213.405 0 290.694 0 386.035C0 481.376 133.867 558.665 299 558.665Z" fill="#F0F0F0"/>
<path d="M237.128 516.847C294.072 516.847 340.234 490.197 340.234 457.323C340.234 424.449 294.072 397.8 237.128 397.8C180.184 397.8 134.022 424.449 134.022 457.323C134.022 490.197 180.184 516.847 237.128 516.847Z" fill="#E0E0E0"/>
<path d="M530.341 382.849L518.246 375.869C518.246 375.869 515.289 349.978 517.256 329.926C520.023 301.75 538.223 267.839 559.925 275.809C581.628 283.779 549.975 312.462 542.931 336.36C535.887 360.258 530.341 382.849 530.341 382.849Z" fill="#0D2BEC"/>
<path opacity="0.15" d="M530.341 382.849L518.246 375.869C518.246 375.869 515.289 349.978 517.256 329.926C520.023 301.75 538.223 267.839 559.925 275.809C581.628 283.779 549.975 312.462 542.931 336.36C535.887 360.258 530.341 382.849 530.341 382.849Z" fill="black"/>
<path d="M523.983 379.918C524.176 379.908 524.357 379.822 524.488 379.68C524.618 379.537 524.688 379.349 524.681 379.156C522.561 316.549 553.732 285.048 554.036 284.744C554.174 284.606 554.252 284.418 554.252 284.223C554.252 284.028 554.174 283.841 554.036 283.703C553.969 283.635 553.889 283.581 553.801 283.544C553.712 283.508 553.618 283.489 553.522 283.489C553.427 283.489 553.332 283.508 553.244 283.544C553.155 283.581 553.075 283.635 553.008 283.703C552.678 284.008 521.064 315.965 523.208 379.207C523.212 379.305 523.234 379.401 523.275 379.49C523.316 379.579 523.374 379.658 523.446 379.725C523.518 379.791 523.603 379.842 523.695 379.875C523.787 379.908 523.885 379.923 523.983 379.918Z" fill="white"/>
<path d="M537.943 387.202L529.338 382.24C529.338 382.24 527.866 364.472 536.585 342.896C544.2 324.113 562.984 308.515 572.452 311.789C581.92 315.064 581.678 321.778 577.059 328.821C572.439 335.865 544.378 352.631 537.943 387.202Z" fill="#0D2BEC"/>
<path d="M533.4 385.324C533.594 385.321 533.779 385.242 533.917 385.105C534.054 384.968 534.133 384.782 534.136 384.588C533.958 344.99 571.132 318.237 571.512 317.97C571.592 317.916 571.659 317.846 571.711 317.765C571.762 317.683 571.797 317.593 571.812 317.498C571.828 317.403 571.824 317.306 571.801 317.212C571.777 317.119 571.735 317.031 571.677 316.955C571.565 316.798 571.396 316.692 571.206 316.659C571.016 316.625 570.821 316.668 570.662 316.777C570.281 317.044 532.499 344.254 532.664 384.588C532.664 384.783 532.741 384.97 532.879 385.108C533.017 385.247 533.205 385.324 533.4 385.324Z" fill="white"/>
<path d="M82.8123 367.302L93.9808 359.763C93.9808 359.763 98.8924 330.573 94.3235 304.822C87.9016 268.702 62.9373 256.695 54.0532 260.503C45.1691 264.31 43.2654 275.06 59.8532 295.671C69.6892 307.791 82.4696 333.67 82.8123 367.302Z" fill="#0D2BEC"/>
<g opacity="0.15">
<path d="M82.8123 367.302L93.9808 359.763C93.9808 359.763 98.8924 330.573 94.3235 304.822C87.9016 268.702 62.9373 256.695 54.0532 260.503C45.1691 264.31 43.2654 275.06 59.8532 295.671C69.6892 307.791 82.4696 333.67 82.8123 367.302Z" fill="black"/>
</g>
<path d="M86.6447 352.834H86.5305C86.4164 352.827 86.3051 352.795 86.2039 352.742C86.1027 352.689 86.0138 352.615 85.9432 352.525C85.8725 352.435 85.8216 352.332 85.7937 352.221C85.7659 352.11 85.7618 351.994 85.7817 351.882C89.8176 317.881 75.4634 280.974 59.8402 266.29C59.6898 266.138 59.6055 265.933 59.6055 265.719C59.6055 265.505 59.6898 265.3 59.8402 265.148C59.9146 265.072 60.0035 265.012 60.1015 264.97C60.1996 264.929 60.3049 264.908 60.4113 264.908C60.5176 264.908 60.623 264.929 60.721 264.97C60.8191 265.012 60.9079 265.072 60.9824 265.148C76.8976 280.099 91.5182 317.615 87.4316 352.11C87.4076 352.305 87.3153 352.484 87.1711 352.617C87.027 352.749 86.8404 352.826 86.6447 352.834Z" fill="white"/>
<path d="M53.571 387.025C51.7942 388.091 46.6161 384.245 45.1819 383.319C42.7241 381.714 40.7219 379.502 39.3692 376.897C37.8517 373.943 37.2885 370.59 37.7574 367.302C38.0173 365.586 38.3947 363.89 38.8869 362.226C39.3311 360.563 39.7753 358.9 40.1561 357.225C40.7189 355.596 40.9351 353.866 40.7907 352.148C40.2957 348.76 37.237 346.437 34.4449 344.445C31.3735 342.224 28.0991 339.292 28.0991 335.205C28.2557 331.994 29.4846 328.929 31.5893 326.499C33.493 323.961 35.7775 321.752 37.4909 319.1C38.8306 317.262 39.5145 315.027 39.4327 312.754C39.212 311.353 38.7113 310.01 37.9604 308.807C36.4628 306.167 34.521 303.73 33.4676 300.925C32.4142 298.121 32.4904 294.516 34.7368 292.422C36.5263 290.709 39.255 290.429 41.7298 290.544C44.0619 290.776 46.3147 291.517 48.3294 292.714C54.891 296.204 58.7492 303.819 65.6915 306.472C68.3694 307.487 71.2884 307.665 74.0679 308.35C76.8473 309.035 79.7156 310.393 81.0482 312.919C83.6754 317.932 79.0937 324.252 80.9721 329.57C82.6474 334.291 87.3179 336.017 89.9577 340.244C91.0291 342.121 91.4737 344.29 91.2268 346.437C91.0779 350.062 90.2649 353.628 88.8281 356.959C87.1757 360.413 85.3107 363.761 83.2439 366.985C83.2439 366.985 53.8376 386.86 53.571 387.025Z" fill="#0D2BEC"/>
<path d="M70.7294 376.503C70.6227 376.502 70.5174 376.479 70.4195 376.437C70.3216 376.394 70.233 376.333 70.1587 376.257C70.0845 376.18 70.026 376.09 69.9867 375.99C69.9475 375.891 69.9281 375.785 69.9298 375.679C70.6405 343.544 54.8269 308.413 43.6329 298.26C43.4738 298.117 43.3779 297.916 43.366 297.702C43.3541 297.488 43.4272 297.278 43.5695 297.118C43.6439 297.042 43.7328 296.982 43.8308 296.94C43.9289 296.899 44.0342 296.878 44.1406 296.878C44.247 296.878 44.3523 296.899 44.4503 296.94C44.5484 296.982 44.6373 297.042 44.7117 297.118C56.1341 307.398 72.265 343.137 71.5416 375.717C71.54 375.822 71.5176 375.925 71.4759 376.022C71.4342 376.118 71.3739 376.205 71.2985 376.278C71.2231 376.351 71.134 376.409 71.0363 376.448C70.9387 376.486 70.8344 376.505 70.7294 376.503Z" fill="white"/>
<path d="M64.8027 337.35C64.7277 337.369 64.6493 337.369 64.5743 337.35C54.1926 334.355 41.3234 334.05 41.1965 334.038C41.0904 334.036 40.9857 334.013 40.8884 333.971C40.7912 333.928 40.7034 333.867 40.6302 333.79C40.5569 333.713 40.4997 333.623 40.4618 333.524C40.424 333.424 40.4062 333.319 40.4096 333.213C40.4076 333.106 40.4279 332.999 40.4691 332.9C40.5104 332.801 40.5717 332.712 40.6493 332.638C40.7268 332.564 40.8189 332.507 40.9196 332.471C41.0204 332.434 41.1276 332.419 41.2345 332.426C41.3615 332.426 54.4337 332.743 65.0185 335.789C65.223 335.851 65.395 335.991 65.4972 336.178C65.5993 336.366 65.6234 336.586 65.5642 336.792C65.5148 336.955 65.4139 337.097 65.2765 337.198C65.1392 337.298 64.973 337.352 64.8027 337.35Z" fill="white"/>
<path d="M363.929 345.206L359.119 342.427C358.318 341.906 357.651 341.204 357.172 340.377C356.693 339.55 356.417 338.622 356.365 337.667V137.75C356.418 136.798 356.693 135.871 357.169 135.044C357.645 134.218 358.309 133.514 359.107 132.991L492.812 55.801C493.664 55.3695 494.605 55.1447 495.56 55.1447C496.514 55.1447 497.456 55.3695 498.307 55.801L503.117 58.5805C503.919 59.1008 504.586 59.8031 505.065 60.6302C505.543 61.4573 505.82 62.3857 505.872 63.3398V263.257C505.819 264.209 505.544 265.136 505.068 265.963C504.592 266.79 503.928 267.493 503.13 268.016L369.425 345.219C368.573 345.651 367.631 345.876 366.676 345.874C365.72 345.871 364.779 345.643 363.929 345.206Z" fill="#455A64"/>
<path d="M505.872 62.8956C505.681 61.4742 504.527 60.9538 503.143 61.7534L369.425 138.956C368.617 139.463 367.949 140.166 367.483 140.999L357.165 135.047C357.627 134.207 358.295 133.5 359.107 132.991L492.812 55.801C493.664 55.3695 494.605 55.1447 495.56 55.1447C496.515 55.1447 497.456 55.3695 498.308 55.801L503.118 58.5805C503.861 59.0588 504.491 59.692 504.967 60.4368C505.442 61.1816 505.751 62.0204 505.872 62.8956Z" fill="#455A64"/>
<path d="M368.955 345.435C368.143 345.764 367.269 345.915 366.394 345.878C365.518 345.84 364.66 345.616 363.879 345.219L359.056 342.427C358.258 341.903 357.594 341.2 357.118 340.374C356.642 339.547 356.367 338.62 356.314 337.667V137.75C356.347 136.796 356.622 135.866 357.114 135.047L367.432 140.999C366.931 141.819 366.651 142.755 366.62 143.715V343.632C366.671 345.206 367.661 345.93 368.955 345.435Z" fill="#263238"/>
<path d="M366.671 143.741V343.632C366.671 345.384 367.94 346.095 369.425 345.219L503.13 268.016C503.928 267.493 504.592 266.79 505.068 265.963C505.544 265.136 505.819 264.209 505.872 263.257V63.3398C505.872 61.5884 504.603 60.8777 503.13 61.7534L369.425 138.956C368.62 139.479 367.951 140.185 367.472 141.017C366.993 141.849 366.719 142.782 366.671 143.741Z" fill="#37474F"/>
<path d="M335.45 219.89C333.724 218.862 325.715 214.306 325.296 214.065C324.97 213.87 324.691 213.604 324.481 213.288C324.271 212.971 324.135 212.611 324.083 212.235C324.03 211.858 324.063 211.475 324.179 211.113C324.294 210.751 324.49 210.419 324.751 210.143L356.365 176.231L366.671 182.145L335.069 216.082C334.821 216.347 334.632 216.661 334.515 217.004C334.399 217.348 334.357 217.712 334.393 218.073C334.429 218.434 334.542 218.782 334.725 219.096C334.907 219.409 335.154 219.68 335.45 219.89Z" fill="#455A64"/>
<path d="M366.671 182.183L335.069 216.082C334.718 216.457 334.489 216.929 334.412 217.437C334.335 217.945 334.413 218.464 334.637 218.926C334.861 219.388 335.22 219.771 335.667 220.024C336.113 220.278 336.626 220.391 337.137 220.347L366.671 217.91V182.183Z" fill="#37474F"/>
<path d="M436.271 121.15C451.857 112.151 464.485 119.449 464.485 137.446C464.485 155.442 451.857 177.31 436.271 186.308C420.686 195.306 408.058 188.009 408.058 170.025C408.058 152.041 420.686 130.148 436.271 121.15Z" fill="#0D2BEC"/>
<path d="M436.068 135.314C441.145 132.394 445.219 134.755 445.219 140.593C445.046 143.767 444.127 146.855 442.537 149.607C440.947 152.359 438.731 154.697 436.068 156.432C430.991 159.351 426.905 156.991 426.905 151.153C427.079 147.978 428 144.889 429.592 142.137C431.184 139.385 433.403 137.047 436.068 135.314Z" fill="white"/>
<path d="M454.116 166.433C454.116 156.851 447.376 152.955 439.076 157.752L433.885 160.747C425.585 165.545 418.846 177.246 418.846 186.803V189.43C420.413 189.931 422.049 190.184 423.694 190.179C428.146 190.028 432.482 188.715 436.271 186.372C443.486 181.928 449.589 175.894 454.116 168.73V166.433Z" fill="white"/>
<path d="M418.402 275.39L454.141 254.754C455.664 253.878 456.895 254.589 456.895 256.34V267.851C456.844 268.805 456.567 269.734 456.089 270.561C455.61 271.388 454.943 272.09 454.141 272.611L418.402 293.247C416.879 294.123 415.648 293.412 415.648 291.661V280.149C415.7 279.195 415.976 278.267 416.455 277.44C416.933 276.613 417.601 275.91 418.402 275.39Z" fill="#0D2BEC"/>
<path d="M400.9 249.677L471.604 208.836C473.419 207.782 474.904 208.633 474.904 210.739V215.016C474.842 216.161 474.511 217.274 473.938 218.267C473.364 219.259 472.565 220.102 471.604 220.728L400.862 261.569C399.047 262.622 397.575 261.772 397.575 259.665V255.426C397.633 254.273 397.964 253.15 398.543 252.15C399.121 251.15 399.929 250.302 400.9 249.677Z" fill="#FAFAFA"/>
<path d="M409.175 220.118C410.14 219.56 410.888 219.471 411.421 219.865C411.954 220.258 412.221 221.134 412.221 222.479C412.248 223.707 411.973 224.923 411.421 226.02C410.923 227.012 410.141 227.833 409.175 228.381L407.271 229.485V233.584C407.268 233.725 407.233 233.864 407.17 233.99C407.125 234.105 407.045 234.203 406.941 234.269L405.977 234.828C405.944 234.853 405.904 234.866 405.863 234.866C405.821 234.866 405.781 234.853 405.748 234.828C405.68 234.742 405.648 234.633 405.66 234.523V222.657C405.658 222.516 405.689 222.378 405.748 222.251C405.796 222.138 405.876 222.041 405.977 221.971L409.175 220.118ZM407.271 227.188L409.112 226.121C409.556 225.871 409.931 225.513 410.203 225.081C410.492 224.571 410.632 223.991 410.609 223.405C410.609 222.72 410.47 222.327 410.203 222.212C410.015 222.167 409.819 222.165 409.629 222.206C409.44 222.248 409.263 222.333 409.112 222.454L407.271 223.52V227.188Z" fill="#FAFAFA"/>
<path d="M417.539 215.283C417.666 215.207 417.767 215.207 417.831 215.283C417.912 215.397 417.968 215.527 417.996 215.664L420.928 225.588C420.928 225.588 420.928 225.665 420.928 225.703C420.926 225.844 420.891 225.983 420.826 226.109C420.781 226.224 420.701 226.321 420.598 226.388L419.735 226.883C419.582 226.972 419.468 226.985 419.405 226.883C419.343 226.819 419.299 226.74 419.278 226.655L418.757 224.916L414.95 227.099L414.442 229.434C414.406 229.56 414.359 229.684 414.303 229.802C414.24 229.957 414.122 230.083 413.973 230.157L413.11 230.652C413.078 230.679 413.037 230.694 412.995 230.694C412.954 230.694 412.913 230.679 412.881 230.652C412.815 230.57 412.783 230.466 412.792 230.36C412.785 230.314 412.785 230.267 412.792 230.221L415.711 216.92C415.747 216.725 415.802 216.533 415.876 216.349C415.938 216.216 416.04 216.105 416.168 216.032L417.539 215.283ZM418.199 222.974L416.93 218.494L415.661 224.484L418.199 222.974Z" fill="#FAFAFA"/>
<path d="M425.369 210.574C425.794 210.306 426.277 210.145 426.778 210.105C427.132 210.073 427.487 210.153 427.793 210.333C428.072 210.514 428.289 210.775 428.415 211.082C428.554 211.394 428.631 211.73 428.644 212.072C428.652 212.213 428.621 212.354 428.555 212.478C428.51 212.593 428.43 212.691 428.326 212.757L427.489 213.24C427.349 213.316 427.248 213.328 427.184 213.24C427.105 213.188 427.04 213.118 426.994 213.036C426.943 212.922 426.869 212.82 426.778 212.735C426.686 212.649 426.578 212.584 426.461 212.542C426.074 212.486 425.682 212.587 425.369 212.821C425.163 212.953 424.968 213.102 424.785 213.265C424.597 213.438 424.431 213.634 424.29 213.849C424.155 214.055 424.045 214.277 423.96 214.509C423.886 214.729 423.847 214.961 423.846 215.194C423.831 215.408 423.87 215.622 423.96 215.816C423.999 215.884 424.054 215.942 424.121 215.984C424.187 216.026 424.263 216.051 424.341 216.057C424.576 216.098 424.817 216.098 425.052 216.057L426.156 215.816C426.567 215.694 426.997 215.643 427.425 215.664C427.731 215.663 428.03 215.761 428.276 215.943C428.508 216.138 428.676 216.399 428.758 216.692C428.882 217.103 428.938 217.532 428.923 217.961C428.922 218.528 428.841 219.092 428.682 219.636C428.527 220.196 428.301 220.733 428.009 221.235C427.702 221.75 427.335 222.227 426.918 222.657C426.491 223.099 426.004 223.48 425.471 223.786C425.08 224.024 424.65 224.192 424.202 224.281C423.836 224.351 423.459 224.321 423.11 224.192C422.793 224.045 422.531 223.8 422.361 223.494C422.154 223.103 422.041 222.668 422.031 222.225C422.03 222.081 422.06 221.938 422.12 221.806C422.176 221.698 422.259 221.607 422.361 221.54L423.199 221.058C423.326 220.981 423.427 220.956 423.504 220.994C423.58 221.032 423.63 221.096 423.681 221.21C423.733 221.34 423.802 221.464 423.884 221.578C423.963 221.688 424.074 221.773 424.202 221.819C424.369 221.858 424.542 221.858 424.709 221.819C424.979 221.756 425.236 221.648 425.471 221.502C425.717 221.361 425.95 221.2 426.169 221.019C426.596 220.682 426.935 220.246 427.159 219.75C427.26 219.496 427.312 219.225 427.311 218.951C427.323 218.851 427.314 218.751 427.286 218.655C427.258 218.558 427.21 218.469 427.146 218.392C427.077 218.332 426.996 218.287 426.909 218.261C426.821 218.234 426.729 218.227 426.638 218.24C426.35 218.252 426.065 218.299 425.788 218.38C425.458 218.456 425.077 218.545 424.633 218.621C424.293 218.706 423.941 218.732 423.592 218.697C423.318 218.679 423.058 218.567 422.856 218.38C422.637 218.165 422.483 217.892 422.412 217.593C422.31 217.152 422.263 216.7 422.272 216.247C422.272 215.689 422.353 215.133 422.514 214.598C422.665 214.047 422.887 213.518 423.174 213.024C423.448 212.533 423.78 212.077 424.163 211.666C424.512 211.247 424.918 210.879 425.369 210.574Z" fill="#FAFAFA"/>
<path d="M433.708 205.777C434.13 205.501 434.614 205.335 435.117 205.295C435.47 205.265 435.825 205.344 436.132 205.523C436.403 205.709 436.615 205.969 436.741 206.272C436.88 206.584 436.957 206.92 436.969 207.262C436.984 207.403 436.953 207.546 436.881 207.668C436.836 207.783 436.756 207.881 436.652 207.947L435.815 208.429C435.688 208.506 435.586 208.531 435.51 208.429C435.429 208.379 435.367 208.303 435.332 208.214C435.216 207.991 435.022 207.819 434.787 207.731C434.597 207.704 434.404 207.714 434.219 207.762C434.034 207.81 433.86 207.894 433.708 208.011C433.496 208.14 433.296 208.289 433.111 208.455C432.927 208.629 432.765 208.825 432.629 209.039C432.489 209.242 432.378 209.464 432.299 209.699C432.22 209.919 432.177 210.15 432.172 210.384C432.157 210.598 432.196 210.812 432.286 211.006C432.325 211.074 432.38 211.132 432.447 211.174C432.513 211.216 432.589 211.241 432.667 211.247C432.902 211.288 433.143 211.288 433.378 211.247L434.482 211.006C434.895 210.891 435.323 210.84 435.751 210.854C436.057 210.851 436.356 210.949 436.601 211.133C436.833 211.331 437.005 211.59 437.096 211.882C437.208 212.295 437.26 212.723 437.249 213.151C437.248 213.718 437.167 214.282 437.008 214.826C436.853 215.386 436.627 215.923 436.335 216.425C436.029 216.945 435.663 217.426 435.243 217.859C434.815 218.291 434.333 218.666 433.809 218.976C433.418 219.213 432.989 219.381 432.54 219.471C432.179 219.54 431.806 219.51 431.461 219.382C431.138 219.239 430.87 218.994 430.7 218.684C430.491 218.294 430.382 217.858 430.383 217.415C430.368 217.274 430.399 217.131 430.471 217.009C430.516 216.894 430.596 216.796 430.7 216.73L431.537 216.247C431.664 216.171 431.779 216.146 431.842 216.184C431.886 216.204 431.925 216.234 431.956 216.271C431.987 216.309 432.009 216.353 432.02 216.4C432.077 216.528 432.145 216.651 432.223 216.768C432.306 216.879 432.421 216.963 432.553 217.009C432.72 217.047 432.893 217.047 433.06 217.009C433.33 216.945 433.587 216.838 433.822 216.692C434.062 216.548 434.291 216.387 434.507 216.209C434.73 216.035 434.927 215.83 435.091 215.6C435.255 215.381 435.392 215.142 435.497 214.889C435.599 214.635 435.651 214.364 435.65 214.09C435.661 213.99 435.653 213.89 435.625 213.794C435.596 213.698 435.549 213.608 435.485 213.531C435.416 213.471 435.335 213.426 435.247 213.4C435.16 213.374 435.068 213.366 434.977 213.379C434.694 213.396 434.413 213.443 434.139 213.519C433.809 213.595 433.416 213.684 432.984 213.76C432.64 213.845 432.284 213.871 431.931 213.836C431.656 213.822 431.394 213.709 431.195 213.519C430.979 213.303 430.83 213.03 430.763 212.732C430.651 212.297 430.599 211.848 430.611 211.399C430.616 210.837 430.697 210.277 430.852 209.737C431.009 209.188 431.231 208.66 431.512 208.163C431.787 207.669 432.124 207.213 432.515 206.805C432.857 206.402 433.259 206.055 433.708 205.777Z" fill="#FAFAFA"/>
<path d="M442.96 207.363L441.932 213.443C441.902 213.625 441.851 213.804 441.78 213.976C441.731 214.112 441.637 214.229 441.513 214.306L440.549 214.864C440.422 214.94 440.333 214.94 440.27 214.864C440.184 214.76 440.135 214.631 440.13 214.496L438.607 203.772C438.607 203.772 438.607 203.67 438.607 203.632C438.611 203.491 438.645 203.352 438.708 203.226C438.757 203.113 438.836 203.016 438.937 202.947L439.813 202.439C439.886 202.409 439.968 202.409 440.041 202.439C440.117 202.439 440.168 202.541 440.193 202.744L441.196 209.965L442.072 204.546C442.095 204.411 442.133 204.279 442.186 204.152C442.236 203.992 442.345 203.856 442.491 203.772L443.468 203.201C443.607 203.124 443.709 203.137 443.772 203.201C443.827 203.281 443.866 203.372 443.887 203.467L444.775 207.871L445.778 199.495C445.79 199.33 445.837 199.17 445.917 199.025C445.977 198.93 446.054 198.848 446.146 198.784L447.021 198.276C447.054 198.252 447.094 198.238 447.136 198.238C447.177 198.238 447.217 198.252 447.25 198.276C447.286 198.318 447.314 198.366 447.331 198.418C447.348 198.471 447.355 198.526 447.351 198.581C447.356 198.631 447.356 198.682 447.351 198.733L445.828 211.209C445.803 211.391 445.756 211.57 445.689 211.742C445.631 211.877 445.534 211.992 445.41 212.072L444.432 212.63C444.318 212.694 444.229 212.694 444.166 212.63C444.102 212.514 444.05 212.39 444.014 212.262L442.96 207.363Z" fill="#FAFAFA"/>
<path d="M448.899 201.982C448.927 201.278 449.012 200.578 449.153 199.888C449.298 199.214 449.52 198.558 449.813 197.934C450.093 197.327 450.451 196.759 450.879 196.246C451.313 195.736 451.833 195.307 452.415 194.976C452.862 194.673 453.385 194.502 453.925 194.481C454.328 194.486 454.714 194.645 455.004 194.926C455.311 195.271 455.533 195.684 455.651 196.131C455.815 196.714 455.904 197.316 455.918 197.921C455.918 198.149 455.918 198.403 455.918 198.682C455.918 198.962 455.918 199.253 455.918 199.558C455.918 199.863 455.918 200.155 455.918 200.434C455.918 200.713 455.918 200.98 455.918 201.221C455.89 201.92 455.805 202.616 455.664 203.302C455.517 203.974 455.3 204.63 455.017 205.257C454.728 205.862 454.366 206.429 453.938 206.945C453.504 207.449 452.989 207.878 452.415 208.214C451.957 208.515 451.426 208.686 450.879 208.709C450.681 208.713 450.485 208.677 450.302 208.602C450.118 208.528 449.952 208.418 449.813 208.277C449.482 207.922 449.254 207.483 449.153 207.008C449.002 206.423 448.917 205.823 448.899 205.219C448.899 204.99 448.899 204.736 448.899 204.457C448.899 204.178 448.899 203.886 448.899 203.581C448.899 203.277 448.899 202.998 448.899 202.706C448.899 202.414 448.887 202.211 448.899 201.982ZM454.306 198.949C454.334 198.638 454.299 198.325 454.203 198.029C454.107 197.732 453.952 197.458 453.747 197.223C453.417 196.931 452.961 196.944 452.415 197.223C451.822 197.571 451.352 198.094 451.069 198.72C450.71 199.46 450.519 200.271 450.511 201.094C450.511 201.563 450.511 202.084 450.511 202.655C450.511 203.226 450.511 203.734 450.511 204.191C450.483 204.501 450.518 204.814 450.614 205.111C450.71 205.407 450.865 205.681 451.069 205.917C451.399 206.196 451.856 206.17 452.415 205.853C452.997 205.502 453.462 204.985 453.747 204.368C454.107 203.633 454.298 202.826 454.306 202.008C454.306 201.525 454.306 201.005 454.306 200.434C454.306 199.863 454.318 199.406 454.306 198.949Z" fill="#FAFAFA"/>
<path d="M461.451 189.912C462.454 189.341 463.203 189.253 463.723 189.671C464.032 190.011 464.261 190.415 464.395 190.854C464.529 191.293 464.564 191.756 464.497 192.21C464.508 193.072 464.375 193.93 464.104 194.748C463.846 195.51 463.446 196.217 462.924 196.829L464.574 200.421C464.579 200.48 464.579 200.54 464.574 200.599C464.574 200.713 464.548 200.826 464.497 200.929C464.462 201.021 464.4 201.1 464.32 201.157L463.304 201.741C463.139 201.83 463.025 201.843 462.949 201.741C462.882 201.674 462.826 201.597 462.784 201.513L461.223 198.124L459.637 199.038V203.327C459.638 203.468 459.607 203.607 459.548 203.734C459.495 203.844 459.417 203.94 459.319 204.013L458.355 204.571C458.323 204.598 458.282 204.613 458.241 204.613C458.199 204.613 458.158 204.598 458.126 204.571C458.09 204.532 458.062 204.486 458.045 204.436C458.027 204.386 458.02 204.332 458.025 204.279V192.413C458.028 192.272 458.063 192.133 458.126 192.007C458.171 191.892 458.251 191.794 458.355 191.727L461.451 189.912ZM459.662 196.741L461.451 195.776C461.889 195.532 462.263 195.188 462.543 194.773C462.837 194.284 462.978 193.719 462.949 193.149C462.949 192.463 462.809 192.083 462.543 192.007C462.157 191.954 461.765 192.054 461.451 192.286L459.725 193.276L459.662 196.741Z" fill="#FAFAFA"/>
<path d="M469.955 185.026C470.416 184.726 470.943 184.543 471.491 184.493C471.888 184.479 472.275 184.62 472.569 184.887C472.906 185.24 473.138 185.679 473.242 186.156C473.413 186.785 473.506 187.433 473.521 188.085C473.521 188.973 473.521 189.887 473.521 190.814C473.495 191.569 473.402 192.321 473.242 193.06C473.097 193.747 472.876 194.415 472.582 195.053C472.299 195.638 471.94 196.184 471.516 196.677C471.092 197.182 470.586 197.611 470.018 197.946L467.01 199.583C466.978 199.61 466.938 199.625 466.896 199.625C466.854 199.625 466.814 199.61 466.782 199.583C466.745 199.545 466.717 199.499 466.699 199.449C466.682 199.398 466.675 199.345 466.68 199.292V187.425C466.684 187.284 466.719 187.145 466.782 187.019C466.827 186.904 466.907 186.806 467.01 186.74L469.955 185.026ZM471.909 188.973C471.904 188.63 471.853 188.288 471.757 187.958C471.698 187.708 471.571 187.48 471.389 187.298C471.309 187.218 471.214 187.156 471.109 187.114C471.005 187.073 470.893 187.053 470.78 187.057C470.462 187.078 470.155 187.183 469.891 187.362L468.292 188.275V196.55L469.955 195.598C470.276 195.411 470.564 195.171 470.805 194.888C471.042 194.609 471.242 194.302 471.402 193.974C471.56 193.624 471.679 193.258 471.757 192.882C471.846 192.49 471.897 192.091 471.909 191.689C471.947 190.763 471.947 189.862 471.909 188.973Z" fill="#FAFAFA"/>
<path d="M295.674 0.821285C297.865 1.30874 299.976 2.10348 301.944 3.18191C303.829 4.19505 305.517 5.53593 306.932 7.14167C308.285 8.68631 309.289 10.5044 309.876 12.4721C310.475 14.5784 310.519 16.8039 310.003 18.9321C309.663 20.6195 308.994 22.2236 308.036 23.6534C307.161 24.876 306.118 25.9697 304.939 26.9024C303.781 27.8016 302.545 28.5959 301.246 29.2757L297.591 31.2175C296.49 31.7918 295.444 32.4674 294.469 33.2355C293.586 33.9127 292.909 34.8224 292.514 35.8626C292.321 36.3379 292 36.7506 291.588 37.0556C291.392 37.2073 291.165 37.3124 290.923 37.363C290.681 37.4136 290.431 37.4083 290.192 37.3475L284.81 36.1545C284.551 36.1002 284.305 35.9948 284.088 35.8444C283.87 35.6941 283.684 35.5018 283.541 35.2788C283.389 35.0715 283.288 34.8314 283.246 34.5778C283.204 34.3243 283.223 34.0644 283.3 33.8193C283.733 32.1527 284.497 30.5903 285.546 29.225C286.504 28.0172 287.613 26.938 288.846 26.014C290.048 25.1343 291.322 24.3574 292.654 23.6914C293.923 23.0442 295.192 22.4223 296.296 21.8004C297.323 21.2483 298.289 20.5889 299.177 19.8332C299.956 19.1808 300.497 18.2879 300.713 17.2949C300.915 16.4326 300.905 15.5343 300.684 14.6767C300.463 13.8191 300.037 13.0279 299.444 12.3706C297.96 10.7503 295.976 9.67347 293.809 9.31193C289.798 8.42352 286.414 9.77305 283.655 13.3605C283.389 13.7521 283.054 14.0919 282.665 14.3632C282.227 14.5803 281.721 14.6168 281.257 14.4647L275.533 13.1955C275.124 13.1166 274.764 12.8794 274.53 12.5356C274.405 12.3519 274.321 12.1435 274.284 11.9245C274.247 11.7055 274.257 11.4811 274.314 11.2664C274.801 9.50287 275.707 7.88309 276.954 6.54517C278.361 4.99357 280.033 3.70438 281.891 2.73771C283.923 1.67466 286.113 0.946128 288.377 0.580147C290.802 0.185681 293.28 0.267586 295.674 0.821285ZM289.595 41.6627C290.098 41.7809 290.536 42.0914 290.813 42.5278C291.091 42.9642 291.186 43.4918 291.08 43.9979L289.709 50.2168C289.663 50.4771 289.562 50.7248 289.413 50.9435C289.265 51.1622 289.071 51.347 288.846 51.4859C288.634 51.6324 288.393 51.7329 288.14 51.781C287.886 51.8291 287.625 51.8237 287.374 51.7651L281.231 50.3564C280.97 50.3123 280.721 50.2124 280.502 50.0635C280.283 49.9145 280.099 49.7201 279.962 49.4933C279.82 49.279 279.723 49.0378 279.677 48.7847C279.631 48.5316 279.638 48.2717 279.696 48.0211L281.079 41.8023C281.197 41.2981 281.507 40.8599 281.943 40.5803C282.379 40.3008 282.907 40.2019 283.414 40.3047L289.595 41.6627Z" fill="#EEA115"/>
<path d="M302.452 60.3573C303.98 60.1121 305.535 60.0822 307.071 60.2685C308.539 60.4429 309.965 60.8724 311.285 61.5376C312.542 62.1897 313.649 63.0976 314.534 64.2028C315.33 65.2845 315.89 66.5211 316.179 67.8327C316.467 69.1443 316.478 70.5019 316.209 71.8177C315.967 72.8294 315.578 73.8001 315.054 74.6987C314.549 75.5728 313.963 76.3971 313.303 77.1609C312.656 77.9224 312.034 78.6458 311.463 79.3438C310.904 79.9942 310.406 80.6952 309.978 81.4379C309.575 82.0889 309.373 82.8433 309.394 83.6082C309.383 83.9657 309.282 84.3147 309.102 84.6235C309.01 84.7658 308.889 84.887 308.747 84.9789C308.605 85.0708 308.444 85.1313 308.277 85.1565L304.47 85.7657C304.292 85.798 304.109 85.7945 303.932 85.7552C303.756 85.716 303.589 85.6419 303.442 85.5373C303.292 85.4431 303.166 85.3145 303.076 85.1622C302.985 85.01 302.932 84.8384 302.921 84.6616C302.762 83.4806 302.848 82.2793 303.175 81.1333C303.473 80.1188 303.9 79.1464 304.444 78.2397C304.978 77.3695 305.59 76.5496 306.272 75.7902C306.944 75.0287 307.541 74.318 308.125 73.6326C308.646 73.0206 309.097 72.3523 309.47 71.6401C309.8 71.0271 309.921 70.3227 309.813 69.6348C309.717 69.0293 309.477 68.4559 309.112 67.9631C308.748 67.4704 308.27 67.0729 307.719 66.8046C306.354 66.1455 304.81 65.958 303.327 66.2715C301.985 66.4678 300.736 67.0745 299.753 68.0084C298.769 68.9422 298.098 70.1576 297.832 71.4878C297.757 71.8077 297.629 72.1125 297.451 72.3889C297.225 72.6298 296.917 72.7789 296.588 72.8077L292.578 73.455C292.296 73.5089 292.004 73.4496 291.765 73.29C291.643 73.206 291.54 73.0969 291.464 72.9699C291.387 72.843 291.338 72.7011 291.321 72.5539C291.202 71.2945 291.398 70.0251 291.892 68.8606C292.394 67.5055 293.133 66.2506 294.075 65.1547C295.107 63.9547 296.324 62.9265 297.68 62.1087C299.142 61.2218 300.763 60.627 302.452 60.3573ZM309 88.0883C309.175 88.0606 309.354 88.0676 309.526 88.109C309.698 88.1504 309.86 88.2253 310.003 88.3294C310.153 88.4278 310.28 88.5566 310.376 88.7076C310.472 88.8585 310.535 89.0281 310.561 89.2052L311.272 93.5584C311.327 93.9115 311.241 94.2721 311.032 94.5619C310.823 94.8518 310.508 95.0475 310.155 95.1067L305.904 95.8048C305.551 95.8593 305.191 95.7727 304.901 95.5636C304.754 95.464 304.629 95.3346 304.535 95.1837C304.441 95.0329 304.38 94.8639 304.355 94.6879L303.645 90.3347C303.612 90.16 303.617 89.9805 303.659 89.8078C303.7 89.6351 303.778 89.473 303.886 89.3321C303.985 89.1848 304.115 89.0602 304.266 88.9662C304.416 88.8722 304.585 88.8109 304.761 88.7863L309 88.0883Z" fill="#EEA115"/>
<g opacity="0.2">
<path d="M302.452 60.3573C303.98 60.1121 305.535 60.0822 307.071 60.2685C308.539 60.4429 309.965 60.8724 311.285 61.5376C312.542 62.1897 313.649 63.0976 314.534 64.2028C315.33 65.2845 315.89 66.5211 316.179 67.8327C316.467 69.1443 316.478 70.5019 316.209 71.8177C315.967 72.8294 315.578 73.8001 315.054 74.6987C314.549 75.5728 313.963 76.3971 313.303 77.1609C312.656 77.9224 312.034 78.6458 311.463 79.3438C310.904 79.9942 310.406 80.6952 309.978 81.4379C309.575 82.0889 309.373 82.8433 309.394 83.6082C309.383 83.9657 309.282 84.3147 309.102 84.6235C309.01 84.7658 308.889 84.887 308.747 84.9789C308.605 85.0708 308.444 85.1313 308.277 85.1565L304.47 85.7657C304.292 85.798 304.109 85.7945 303.932 85.7552C303.756 85.716 303.589 85.6419 303.442 85.5373C303.292 85.4431 303.166 85.3145 303.076 85.1622C302.985 85.01 302.932 84.8384 302.921 84.6616C302.762 83.4806 302.848 82.2793 303.175 81.1333C303.473 80.1188 303.9 79.1464 304.444 78.2397C304.978 77.3695 305.59 76.5496 306.272 75.7902C306.944 75.0287 307.541 74.318 308.125 73.6326C308.646 73.0206 309.097 72.3523 309.47 71.6401C309.8 71.0271 309.921 70.3227 309.813 69.6348C309.717 69.0293 309.477 68.4559 309.112 67.9631C308.748 67.4704 308.27 67.0729 307.719 66.8046C306.354 66.1455 304.81 65.958 303.327 66.2715C301.985 66.4678 300.736 67.0745 299.753 68.0084C298.769 68.9422 298.098 70.1576 297.832 71.4878C297.757 71.8077 297.629 72.1125 297.451 72.3889C297.225 72.6298 296.917 72.7789 296.588 72.8077L292.578 73.455C292.296 73.5089 292.004 73.4496 291.765 73.29C291.643 73.206 291.54 73.0969 291.464 72.9699C291.387 72.843 291.338 72.7011 291.321 72.5539C291.202 71.2945 291.398 70.0251 291.892 68.8606C292.394 67.5055 293.133 66.2506 294.075 65.1547C295.107 63.9547 296.324 62.9265 297.68 62.1087C299.142 61.2218 300.763 60.627 302.452 60.3573ZM309 88.0883C309.175 88.0606 309.354 88.0676 309.526 88.109C309.698 88.1504 309.86 88.2253 310.003 88.3294C310.153 88.4278 310.28 88.5566 310.376 88.7076C310.472 88.8585 310.535 89.0281 310.561 89.2052L311.272 93.5584C311.327 93.9115 311.241 94.2721 311.032 94.5619C310.823 94.8518 310.508 95.0475 310.155 95.1067L305.904 95.8048C305.551 95.8593 305.191 95.7727 304.901 95.5636C304.754 95.464 304.629 95.3346 304.535 95.1837C304.441 95.0329 304.38 94.8639 304.355 94.6879L303.645 90.3347C303.612 90.16 303.617 89.9805 303.659 89.8078C303.7 89.6351 303.778 89.473 303.886 89.3321C303.985 89.1848 304.115 89.0602 304.266 88.9662C304.416 88.8722 304.585 88.8109 304.761 88.7863L309 88.0883Z" fill="black"/>
</g>
<path d="M338.343 67.198C338.516 67.3183 338.663 67.4727 338.774 67.6516C338.886 67.8306 338.959 68.0304 338.991 68.2387C339.031 68.4452 339.028 68.6578 338.982 68.8631C338.936 69.0685 338.848 69.2621 338.724 69.4317L335.703 73.6834C335.583 73.8564 335.429 74.0031 335.25 74.1144C335.071 74.2257 334.871 74.2993 334.663 74.3307C334.456 74.3711 334.244 74.3682 334.038 74.3224C333.833 74.2765 333.639 74.1886 333.47 74.0642L329.307 71.107C329.134 70.9883 328.987 70.8342 328.878 70.6548C328.769 70.4754 328.698 70.2748 328.672 70.0663C328.632 69.8598 328.635 69.6472 328.681 69.4419C328.727 69.2366 328.814 69.043 328.939 68.8733L331.998 64.6217C332.245 64.277 332.618 64.0438 333.036 63.9725C333.454 63.9013 333.884 63.9977 334.231 64.2409L338.343 67.198ZM355.908 38.4009C357.426 39.4647 358.778 40.7478 359.919 42.2084C361.032 43.567 361.892 45.1146 362.457 46.7773C362.984 48.3708 363.161 50.0589 362.978 51.727C362.763 53.5059 362.089 55.1984 361.023 56.6387C360.231 57.8032 359.212 58.796 358.028 59.5577C356.985 60.2113 355.852 60.7074 354.665 61.0299C353.508 61.3323 352.328 61.5361 351.136 61.6391L347.76 61.9437C346.748 62.0246 345.745 62.1988 344.765 62.4641C343.861 62.6694 343.034 63.1271 342.379 63.784C342.084 64.0842 341.71 64.2953 341.3 64.3932C341.106 64.4491 340.9 64.4575 340.702 64.4178C340.503 64.378 340.317 64.2913 340.158 64.1648L336.478 61.5503C336.126 61.2991 335.885 60.9217 335.805 60.4969C335.758 60.2911 335.759 60.0769 335.81 59.8719C335.861 59.6668 335.959 59.4766 336.097 59.3166C336.957 58.2009 338.031 57.2688 339.257 56.5752C340.361 55.9725 341.538 55.516 342.76 55.2172C343.939 54.9312 345.141 54.7486 346.352 54.6715C347.545 54.5953 348.662 54.5065 349.702 54.405C350.655 54.3209 351.595 54.1336 352.507 53.8465C353.305 53.5809 353.992 53.0588 354.462 52.3616C354.886 51.7729 355.162 51.0905 355.265 50.3724C355.369 49.6542 355.298 48.9216 355.058 48.2369C354.458 46.5453 353.31 45.1026 351.796 44.1375C349.055 42.183 346.064 42.1196 342.823 43.9471C342.497 44.1547 342.136 44.3009 341.757 44.3786C341.56 44.3924 341.362 44.3669 341.175 44.3037C340.987 44.2406 340.814 44.1409 340.666 44.0106L336.757 41.2311C336.615 41.1372 336.494 41.0157 336.4 40.874C336.307 40.7323 336.242 40.5732 336.211 40.4062C336.181 40.2335 336.186 40.0563 336.228 39.886C336.269 39.7156 336.346 39.5556 336.452 39.4163C337.375 38.2345 338.573 37.2975 339.942 36.6876C341.498 35.9828 343.164 35.5534 344.867 35.4184C346.74 35.2619 348.626 35.4119 350.451 35.8626C352.421 36.3373 354.276 37.2002 355.908 38.4009Z" fill="#EEA115"/>
<g opacity="0.6">
<path d="M338.343 67.198C338.516 67.3183 338.663 67.4727 338.774 67.6516C338.886 67.8306 338.959 68.0304 338.991 68.2387C339.031 68.4452 339.028 68.6578 338.982 68.8631C338.936 69.0685 338.848 69.2621 338.724 69.4317L335.703 73.6834C335.583 73.8564 335.429 74.0031 335.25 74.1144C335.071 74.2257 334.871 74.2993 334.663 74.3307C334.456 74.3711 334.244 74.3682 334.038 74.3224C333.833 74.2765 333.639 74.1886 333.47 74.0642L329.307 71.107C329.134 70.9883 328.987 70.8342 328.878 70.6548C328.769 70.4754 328.698 70.2748 328.672 70.0663C328.632 69.8598 328.635 69.6472 328.681 69.4419C328.727 69.2366 328.814 69.043 328.939 68.8733L331.998 64.6217C332.245 64.277 332.618 64.0438 333.036 63.9725C333.454 63.9013 333.884 63.9977 334.231 64.2409L338.343 67.198ZM355.908 38.4009C357.426 39.4647 358.778 40.7478 359.919 42.2084C361.032 43.567 361.892 45.1146 362.457 46.7773C362.984 48.3708 363.161 50.0589 362.978 51.727C362.763 53.5059 362.089 55.1984 361.023 56.6387C360.231 57.8032 359.212 58.796 358.028 59.5577C356.985 60.2113 355.852 60.7074 354.665 61.0299C353.508 61.3323 352.328 61.5361 351.136 61.6391L347.76 61.9437C346.748 62.0246 345.745 62.1988 344.765 62.4641C343.861 62.6694 343.034 63.1271 342.379 63.784C342.084 64.0842 341.71 64.2953 341.3 64.3932C341.106 64.4491 340.9 64.4575 340.702 64.4178C340.503 64.378 340.317 64.2913 340.158 64.1648L336.478 61.5503C336.126 61.2991 335.885 60.9217 335.805 60.4969C335.758 60.2911 335.759 60.0769 335.81 59.8719C335.861 59.6668 335.959 59.4766 336.097 59.3166C336.957 58.2009 338.031 57.2688 339.257 56.5752C340.361 55.9725 341.538 55.516 342.76 55.2172C343.939 54.9312 345.141 54.7486 346.352 54.6715C347.545 54.5953 348.662 54.5065 349.702 54.405C350.655 54.3209 351.595 54.1336 352.507 53.8465C353.305 53.5809 353.992 53.0588 354.462 52.3616C354.886 51.7729 355.162 51.0905 355.265 50.3724C355.369 49.6542 355.298 48.9216 355.058 48.2369C354.458 46.5453 353.31 45.1026 351.796 44.1375C349.055 42.183 346.064 42.1196 342.823 43.9471C342.497 44.1547 342.136 44.3009 341.757 44.3786C341.56 44.3924 341.362 44.3669 341.175 44.3037C340.987 44.2406 340.814 44.1409 340.666 44.0106L336.757 41.2311C336.615 41.1372 336.494 41.0157 336.4 40.874C336.307 40.7323 336.242 40.5732 336.211 40.4062C336.181 40.2335 336.186 40.0563 336.228 39.886C336.269 39.7156 336.346 39.5556 336.452 39.4163C337.375 38.2345 338.573 37.2975 339.942 36.6876C341.498 35.9828 343.164 35.5534 344.867 35.4184C346.74 35.2619 348.626 35.4119 350.451 35.8626C352.421 36.3373 354.276 37.2002 355.908 38.4009Z" fill="white"/>
</g>
<path d="M243.829 179.544H198.736V70.2947C198.736 60.806 202.506 51.7058 209.215 44.9963C215.925 38.2867 225.025 34.5173 234.514 34.5173H238.677C248.165 34.5173 257.266 38.2867 263.975 44.9963C270.685 51.7058 274.454 60.806 274.454 70.2947V148.982C274.437 157.093 271.203 164.867 265.462 170.596C259.72 176.326 251.941 179.544 243.829 179.544Z" fill="#263238"/>
<path d="M194.345 442.55C193.547 447.077 193.123 451.661 193.076 456.257C192.911 464.583 191.388 467.54 191.185 474.368C190.944 482.173 192.302 485.092 195.462 489.484C198.622 493.875 206.884 497.847 210.463 490.435C214.042 483.024 213.522 478.163 212.392 470.51C211.238 462.59 211.123 458.212 210.413 452.183C209.829 446.865 209.143 442.817 209.143 442.817L194.345 442.55Z" fill="#263238"/>
<path d="M217.977 387.253L190.563 386.758C190.97 405.059 193.876 425.379 194.371 442.601C194.472 445.837 194.295 467.718 195.513 474.33C197.353 484.331 209.207 482.973 209.842 476.995C210.477 471.017 209.08 445.469 209.119 442.83C209.004 431.813 214.195 413.22 216.873 393.447C216.987 392.495 217.85 388.205 217.977 387.253Z" fill="#FFA8A7"/>
<path d="M253.196 428.31C253.196 428.31 252.117 427.727 251.927 428.882C251.66 430.252 251.254 433.082 250.658 435.342C249.871 438.476 249.211 443.642 249.68 446.205C250.15 448.769 256.115 452.044 259.986 453.237C264.757 454.709 269.108 457.298 272.677 460.788C276.485 464.392 284.773 467.794 290.446 467.756C297.109 467.756 301.754 465.535 303.949 461.968C306.145 458.402 301.944 457.971 294.329 453.084L288.428 449.277C276.358 441.395 271.929 437.182 268.54 429.3L253.196 428.31Z" fill="#263238"/>
<path d="M268.641 423.424C268.438 417.764 272.347 369.65 272.347 369.65L246.317 381.517C251.888 414.794 253.081 422.65 253.17 428.095C253.056 428.551 253.009 429.021 253.031 429.491C253.031 435.951 260.354 439.441 266.04 443.756C270.873 447.542 276.024 450.905 281.434 453.808C285.572 455.876 293.974 456.067 295.014 453.414C288.085 448.122 278.008 440.202 272.5 434.161C269.809 431.318 268.844 429.097 268.641 423.424Z" fill="#FFA8A7"/>
<path d="M201.795 208.671C191.794 230.614 191.794 247.596 193.457 275.606C194.929 301.306 197.379 323.961 197.379 323.961C196.998 328.517 190.665 337.414 189.84 357.568C189.078 376.402 191.109 400.351 191.109 400.351C191.109 400.351 205.336 408.232 215.857 400.275C215.857 400.275 226.011 351.806 228.981 328.225C231.519 307.652 236.088 281.368 236.088 281.368L245.695 328.085C243.622 334.714 242.119 341.507 241.202 348.392C239.857 362.264 247.624 389.5 247.624 389.5C247.624 389.5 262.321 393.878 271.294 385.921C271.294 385.921 274.645 341.64 275.901 324.938C277.576 302.563 274.048 241.999 271.294 209.927L201.795 208.671Z" fill="#455A64"/>
<path d="M236.113 281.33L240.06 246.123C240.06 246.123 257.752 243.763 265.773 236.224C263.478 239.816 260.419 242.858 256.816 245.135C253.212 247.412 249.151 248.867 244.921 249.398L239.21 282.155L245.695 328.085L236.113 281.33Z" fill="#263238"/>
<path d="M307.757 200.015C308.488 193.59 308.81 187.126 308.721 180.66C308.328 175.076 307.325 174.162 299.52 164.276C288.986 150.911 279.988 138.893 270.469 126.95C263.666 118.421 256.508 117.114 249.553 117.495C244.68 117.761 254.198 141.202 258.983 155.074L286.308 184.493C287.154 185.654 287.543 187.087 287.399 188.516L285.749 213.544L293.936 224.51C293.936 224.51 306.335 213.823 307.757 200.015Z" fill="#FFA8A7"/>
<path d="M223.206 118.256C217.914 118.624 208.294 119.525 208.294 119.525C202.747 122.622 201.339 125.173 200.311 132.534C199.866 135.682 202.43 144.045 204.626 155.937L208.788 177.982L208.332 188.923C206.174 195.598 201.288 203.886 196.973 216.108C218.168 227.936 235.936 228.381 252.054 226.261C264.339 224.675 270.85 221.705 273.02 218.76C272.563 206.691 271.751 199.228 271.497 186.613C271.409 181.32 271.726 175.964 271.942 169.873C280.178 163.095 280.28 151.825 275.749 144.489C265.304 127.572 255.138 116.923 248.411 117.469L223.206 118.256Z" fill="white"/>
<path opacity="0.6" d="M223.206 118.256C217.914 118.624 208.294 119.525 208.294 119.525C202.747 122.622 201.339 125.173 200.311 132.534C199.866 135.682 202.43 144.045 204.626 155.937L208.788 177.982L208.332 188.923C206.174 195.598 201.288 203.886 196.973 216.108C218.168 227.936 235.936 228.381 252.054 226.261C264.339 224.675 270.85 221.705 273.02 218.76C272.563 206.691 271.751 199.228 271.497 186.613C271.409 181.32 271.726 175.964 271.942 169.873C280.178 163.095 280.28 151.825 275.749 144.489C265.304 127.572 255.138 116.923 248.411 117.469L223.206 118.256Z" fill="white"/>
<path opacity="0.1" d="M255.531 170.038C255.531 170.038 245.86 177.551 234.806 173.629C231.702 172.651 228.903 170.888 226.679 168.512C224.456 166.135 222.884 163.224 222.114 160.062C222.114 160.062 220.947 172.69 234.869 176.993C248.361 181.143 255.531 170.038 255.531 170.038Z" fill="black"/>
<path d="M268.654 83.5955C268.235 101.922 262.308 106.44 259.313 107.709C256.318 108.979 250.581 108.217 244.997 107.291V118.358C244.997 118.358 251.444 125.11 250.962 130.148C250.48 135.187 240.809 135.758 233.6 130.821C229.622 128.088 226.025 124.841 222.901 121.162C222.301 120.453 221.973 119.553 221.975 118.624V92.7334C221.975 92.7334 218.916 95.9697 213.509 92.2638C212.343 91.5193 211.344 90.5402 210.576 89.3888C209.808 88.2374 209.289 86.9388 209.05 85.5757C208.811 84.2125 208.859 82.8146 209.189 81.4708C209.52 80.127 210.127 78.8667 210.971 77.7701C213.332 74.9906 219.322 74.8003 222.19 79.0392C223.815 82.1994 224.031 85.385 225.846 84.1158C230.668 80.6384 228.079 72.6935 233.905 68.886C235.816 67.8883 237.802 67.0396 239.844 66.3477C250.239 62.756 259.25 59.7354 261.42 52.6281C265.507 54.9634 269.162 61.9818 268.654 83.5955Z" fill="#FFA8A7"/>
<path d="M248.157 99.9676C249.489 99.9676 250.569 98.8879 250.569 97.5562C250.569 96.2244 249.489 95.1448 248.157 95.1448C246.826 95.1448 245.746 96.2244 245.746 97.5562C245.746 98.8879 246.826 99.9676 248.157 99.9676Z" fill="#B16668"/>
<path d="M246.558 80.816C246.557 81.3125 246.411 81.798 246.138 82.2122C245.864 82.6264 245.475 82.9513 245.018 83.1466C244.562 83.3419 244.058 83.399 243.569 83.3109C243.081 83.2228 242.629 82.9934 242.269 82.651C241.91 82.3086 241.658 81.8682 241.547 81.3845C241.435 80.9008 241.467 80.3949 241.64 79.9294C241.813 79.464 242.118 79.0594 242.519 78.7658C242.919 78.4723 243.397 78.3026 243.893 78.2777C244.237 78.2605 244.58 78.3134 244.903 78.4333C245.226 78.5531 245.521 78.7374 245.77 78.9748C246.02 79.2122 246.218 79.4979 246.353 79.8144C246.489 80.131 246.558 80.4718 246.558 80.816Z" fill="#263238"/>
<path d="M265.786 81.0699C265.812 81.3804 265.776 81.693 265.68 81.9894C265.584 82.2858 265.43 82.5602 265.226 82.7964C265.023 83.0327 264.775 83.2261 264.496 83.3655C264.218 83.5049 263.914 83.5874 263.603 83.6082C263.289 83.6371 262.973 83.599 262.675 83.4964C262.377 83.3938 262.105 83.229 261.876 83.0129C261.646 82.7969 261.466 82.5345 261.346 82.2433C261.225 81.952 261.169 81.6385 261.179 81.3237C261.146 81.0109 261.178 80.6947 261.272 80.3945C261.365 80.0942 261.519 79.8163 261.724 79.5778C261.929 79.3392 262.181 79.1451 262.464 79.0072C262.746 78.8693 263.054 78.7905 263.368 78.7758C263.682 78.7611 263.996 78.8107 264.291 78.9216C264.585 79.0325 264.854 79.2023 265.08 79.4206C265.306 79.639 265.486 79.9013 265.607 80.1914C265.729 80.4815 265.789 80.7934 265.786 81.1079V81.0699Z" fill="#263238"/>
<path d="M243.297 87.3395C241.108 87.3395 239.008 86.4708 237.459 84.9241C235.91 83.3773 235.038 81.2791 235.035 79.09C235.035 73.4803 240.822 73.4803 243.297 73.4803C245.772 73.4803 251.546 73.4803 251.546 79.09C251.543 81.2769 250.673 83.3732 249.126 84.9196C247.58 86.4659 245.484 87.3361 243.297 87.3395ZM243.297 74.7749C238.22 74.7749 236.342 76.044 236.342 79.09C236.342 80.9413 237.077 82.7168 238.386 84.0259C239.695 85.3349 241.471 86.0704 243.322 86.0704C245.174 86.0704 246.949 85.3349 248.258 84.0259C249.567 82.7168 250.303 80.9413 250.303 79.09C250.252 75.9806 248.297 74.7749 243.297 74.7749Z" fill="#455A64"/>
<path d="M264.25 87.3395C262.061 87.3395 259.961 86.4708 258.412 84.9241C256.863 83.3773 255.991 81.2791 255.988 79.09C255.988 73.4803 261.775 73.4803 264.25 73.4803C266.725 73.4803 272.499 73.4803 272.499 79.09C272.496 81.2769 271.626 83.3732 270.08 84.9196C268.533 86.4659 266.437 87.3361 264.25 87.3395ZM264.25 74.7749C259.25 74.7749 257.295 76.044 257.295 79.09C257.295 80.9413 258.03 82.7168 259.34 84.0259C260.649 85.3349 262.424 86.0704 264.275 86.0704C266.127 86.0704 267.902 85.3349 269.211 84.0259C270.52 82.7168 271.256 80.9413 271.256 79.09C271.205 75.9806 269.25 74.7749 264.25 74.7749Z" fill="#455A64"/>
<path d="M252.828 76.4248L253.234 91.845L261.344 89.3321L252.828 76.4248Z" fill="#F28F8F"/>
<path d="M244.984 107.329C239.095 106.554 226.975 103.077 225.084 98.2796C225.845 100.704 227.328 102.838 229.336 104.397C232.953 107.506 244.984 110.997 244.984 110.997V107.329Z" fill="#F28F8F"/>
<path d="M245.276 68.9368L239.895 72.2239C239.471 71.4851 239.348 70.6114 239.551 69.7842C239.754 68.957 240.268 68.2399 240.986 67.7818C241.341 67.5664 241.736 67.4252 242.147 67.3667C242.559 67.3083 242.977 67.3338 243.378 67.4418C243.779 67.5497 244.154 67.7379 244.48 67.9948C244.807 68.2518 245.077 68.5722 245.276 68.9368Z" fill="#263238"/>
<path d="M267.169 72.5919L261.179 70.4978C261.295 70.1008 261.491 69.7317 261.754 69.4132C262.018 69.0947 262.344 68.8335 262.713 68.6457C263.081 68.4579 263.484 68.3474 263.897 68.3211C264.31 68.2948 264.724 68.3531 265.113 68.4926C265.917 68.7813 266.578 69.368 266.961 70.1311C267.344 70.8942 267.418 71.7753 267.169 72.5919Z" fill="#263238"/>
<path d="M250.899 79.75C250.813 79.75 250.728 79.7328 250.648 79.6995C250.569 79.6662 250.497 79.6174 250.437 79.5559C250.376 79.4945 250.329 79.4216 250.297 79.3416C250.265 79.2616 250.25 79.1761 250.252 79.09C250.252 78.0366 252.333 77.3513 254.211 77.3513C256.09 77.3513 257.295 78.0366 257.295 79.09C257.256 79.2279 257.173 79.3492 257.058 79.4356C256.944 79.522 256.804 79.5687 256.661 79.5687C256.517 79.5687 256.378 79.522 256.263 79.4356C256.149 79.3492 256.066 79.2279 256.026 79.09C256.026 78.9631 255.379 78.6458 254.249 78.6458C253.34 78.6264 252.435 78.7815 251.584 79.1027C251.584 79.191 251.566 79.2784 251.532 79.3595C251.497 79.4406 251.446 79.5137 251.381 79.5744C251.317 79.635 251.241 79.6819 251.158 79.7121C251.075 79.7423 250.987 79.7552 250.899 79.75Z" fill="#455A64"/>
<path d="M235.707 79.1915H235.631L221.124 77.9224C220.446 77.2505 219.639 76.7237 218.751 76.374L235.783 77.9478C235.954 77.97 236.109 78.0581 236.216 78.1932C236.322 78.3284 236.372 78.4999 236.354 78.6712C236.324 78.82 236.243 78.9537 236.125 79.0488C236.007 79.144 235.859 79.1945 235.707 79.1915Z" fill="#455A64"/>
<path d="M176.146 94.3198C180.892 87.974 184.129 83.1893 188.457 77.8208C190.919 74.7368 192.493 72.5285 194.802 69.3683C196.427 67.1853 197.341 65.345 199.194 64.6724C201.196 63.8521 203 62.6147 204.486 61.0426C205.4 60.0319 206.247 58.9636 207.024 57.8443C209.745 54.1829 212.976 50.9304 216.619 48.1861C220.427 45.3178 224.678 43.1095 228.6 40.3808C230.935 38.7436 233.435 36.0276 230.593 33.4893C229.721 32.755 228.677 32.2529 227.559 32.0298C220.642 30.5321 214.627 32.9055 207.862 34.6315C204.924 35.3649 202.05 36.3369 199.27 37.5379C197.902 38.0787 196.62 38.8139 195.462 39.7208C193.844 41.3526 192.517 43.25 191.541 45.3305C188.584 50.6102 182.238 55.3314 177.796 59.5069C172.605 64.3932 167.96 68.8733 162.033 74.2545C156.702 79.1154 151.486 83.5828 146.6 88.8878C142.551 93.2664 144.062 96.6931 144.595 97.8861C147.894 104.663 151.588 107.1 156.017 111.301C163.632 118.573 189.967 139.502 198.686 146.419C200.559 147.89 202.031 149.811 202.963 152.003L204.638 155.874C214.588 157.701 221.226 142.763 212.989 124.78C211.625 121.871 209.542 119.36 206.936 117.482C196.528 109.905 176.146 94.3198 176.146 94.3198Z" fill="#FFA8A7"/>
<path d="M176.145 94.3198C172.978 98.2158 168.758 101.119 163.987 102.684C163.987 102.684 170.333 104.308 179.026 96.5028L176.145 94.3198Z" fill="#F28F8F"/>
<path d="M305.168 186.778L303.543 185.382C303.301 185.222 303.024 185.121 302.735 185.088C302.446 185.055 302.153 185.09 301.881 185.191L284.252 189.989C283.364 190.285 282.551 190.769 281.867 191.409C281.184 192.048 280.647 192.828 280.293 193.695L267.601 230.284C267.448 230.582 267.388 230.92 267.429 231.252C267.47 231.585 267.609 231.897 267.829 232.15L269.505 233.597C269.749 233.765 270.03 233.871 270.324 233.907C270.618 233.942 270.916 233.905 271.193 233.8L288.847 229.002C289.735 228.706 290.548 228.222 291.232 227.582C291.915 226.943 292.452 226.163 292.806 225.296C295.345 218.1 302.96 195.903 305.498 188.707C305.803 187.806 305.65 187.12 305.168 186.778Z" fill="#455A64"/>
<path d="M269.263 231.693L281.955 195.103C282.308 194.237 282.844 193.459 283.528 192.821C284.212 192.183 285.026 191.702 285.915 191.41L303.53 186.613C305.168 186.168 306.069 187.108 305.485 188.707C302.947 195.903 295.332 218.1 292.793 225.296C292.439 226.163 291.902 226.943 291.219 227.582C290.535 228.222 289.722 228.706 288.834 229.002L271.218 233.851C269.593 234.231 268.718 233.292 269.263 231.693Z" fill="black"/>
<path d="M283.998 192.425C283.082 193.119 282.371 194.049 281.942 195.116L269.251 231.693C269.106 231.984 269.045 232.309 269.077 232.632C269.108 232.956 269.23 233.264 269.429 233.521L267.855 232.175C267.629 231.926 267.485 231.614 267.442 231.28C267.399 230.947 267.459 230.608 267.614 230.31L280.305 193.72C280.707 192.725 281.358 191.851 282.196 191.182L283.998 192.425Z" fill="#37474F"/>
<path d="M300.333 203.454C299.063 207.173 294.66 209.661 287.375 211.387C280.09 213.113 276.066 220.842 277.221 223.19C278.376 225.538 290.154 227.733 294.863 227.061C299.571 226.388 304.292 219.585 305.727 217.479C307.161 215.372 308.811 200.675 307.3 198.657C305.79 196.639 302.604 196.956 302.604 196.956L300.333 203.454Z" fill="#F28F8F"/>
</svg>
