<svg width="325" height="118" viewBox="0 0 325 118" fill="none" xmlns="http://www.w3.org/2000/svg">
<path d="M317.117 87.3522C313.729 89.5605 305.337 96.3774 298.363 102.441C279.929 118.607 273.761 121.204 270.369 114.344C268.651 110.766 272.973 103.708 281.499 95.9351C283.576 94.0835 285.426 92.171 285.496 91.9066C285.567 91.6423 277.506 93.5892 267.687 96.1981C235.721 104.769 206.637 108.02 176.417 106.433C158.294 105.54 121.376 95.3562 103.341 86.411C71.7107 70.5613 47.6163 52.9073 19.5746 24.5607C5.97589 10.8547 0.520352 4.433 0.640039 2.62329C0.901285 0.284827 1.50398 0.304773 5.10662 1.83762C7.49659 2.90357 15.2848 9.2425 22.5131 15.8563C51.8798 42.4331 86.2783 63.8421 123.538 78.6513C155.869 91.4302 187.594 95.1208 228.028 90.8047C241.783 89.3929 270.999 82.9185 277.911 79.8134C280.789 78.6017 280.711 78.4391 276.335 75.7071C269.448 71.4517 267.511 68.2403 268.714 63.746C270.873 55.6826 284.408 54.6369 305.98 61.2721C318.468 65.046 320.631 66.0511 322.831 69.1912C324.647 71.9451 325.024 74.1713 324.225 78.0656C323.362 82.6513 322.441 83.821 317.117 87.3522Z" fill="#0D2BEC"/>
</svg>
