<svg width="25" height="28" viewBox="0 0 25 28" fill="none" xmlns="http://www.w3.org/2000/svg">
<g clip-path="url(#clip0_8_969)">
<path d="M11.7081 13.3828L0.599365 25.0213C0.724115 25.4634 0.948294 25.8712 1.25477 26.2133C1.56124 26.5555 1.94189 26.8231 2.36762 26.9956C2.79335 27.1681 3.25289 27.241 3.71111 27.2087C4.16934 27.1764 4.61411 27.0398 5.01143 26.8092L17.5108 19.6904L11.7081 13.3828Z" fill="#EA4335"/>
<path d="M22.9409 11.4044L17.5358 8.30844L11.4516 13.6475L17.5605 19.6738L22.9245 16.6109C23.3997 16.3621 23.7977 15.988 24.0755 15.5291C24.3532 15.0702 24.5 14.544 24.5 14.0076C24.5 13.4713 24.3532 12.9451 24.0755 12.4862C23.7977 12.0273 23.3997 11.6532 22.9245 11.4043L22.9409 11.4044Z" fill="#EEA115"/>
<path d="M0.599343 2.93631C0.532236 3.18455 0.498812 3.44069 0.499968 3.69784V24.2597C0.500631 24.5168 0.534024 24.7727 0.599343 25.0214L12.0889 13.6808L0.599343 2.93631Z" fill="#4285F4"/>
<path d="M11.7909 13.9788L17.5357 8.30854L5.05287 1.15654C4.5832 0.881494 4.04904 0.735831 3.50477 0.734381C2.15412 0.731756 0.966678 1.62819 0.599365 2.92804L11.7909 13.9788Z" fill="#34A853"/>
</g>
<defs>
<clipPath id="clip0_8_969">
<rect width="24" height="26.5312" fill="white" transform="translate(0.5 0.734375)"/>
</clipPath>
</defs>
</svg>
