<svg width="18" height="21" viewBox="0 0 18 21" fill="none" xmlns="http://www.w3.org/2000/svg">
<path d="M13 0.192383C14.3261 0.192383 15.5979 0.719167 16.5355 1.65685C17.4732 2.59453 18 3.8663 18 5.19238V13.1924C18 14.5185 17.4732 15.7902 16.5355 16.7279C15.5979 17.6656 14.3261 18.1924 13 18.1924H5C3.67392 18.1924 2.40215 17.6656 1.46447 16.7279C0.526784 15.7902 0 14.5185 0 13.1924V5.19238C0 3.8663 0.526784 2.59453 1.46447 1.65685C2.40215 0.719167 3.67392 0.192383 5 0.192383H13ZM9 5.19238C7.93913 5.19238 6.92172 5.61381 6.17157 6.36396C5.42143 7.1141 5 8.13152 5 9.19238C5 10.2532 5.42143 11.2707 6.17157 12.0208C6.92172 12.771 7.93913 13.1924 9 13.1924C10.0609 13.1924 11.0783 12.771 11.8284 12.0208C12.5786 11.2707 13 10.2532 13 9.19238C13 8.13152 12.5786 7.1141 11.8284 6.36396C11.0783 5.61381 10.0609 5.19238 9 5.19238ZM9 7.19238C9.53043 7.19238 10.0391 7.4031 10.4142 7.77817C10.7893 8.15324 11 8.66195 11 9.19238C11 9.72282 10.7893 10.2315 10.4142 10.6066C10.0391 10.9817 9.53043 11.1924 9 11.1924C8.46957 11.1924 7.96086 10.9817 7.58579 10.6066C7.21071 10.2315 7 9.72282 7 9.19238C7 8.66195 7.21071 8.15324 7.58579 7.77817C7.96086 7.4031 8.46957 7.19238 9 7.19238ZM13.5 3.69238C13.2348 3.69238 12.9804 3.79774 12.7929 3.98528C12.6054 4.17281 12.5 4.42717 12.5 4.69238C12.5 4.9576 12.6054 5.21195 12.7929 5.39949C12.9804 5.58703 13.2348 5.69238 13.5 5.69238C13.7652 5.69238 14.0196 5.58703 14.2071 5.39949C14.3946 5.21195 14.5 4.9576 14.5 4.69238C14.5 4.42717 14.3946 4.17281 14.2071 3.98528C14.0196 3.79774 13.7652 3.69238 13.5 3.69238Z" fill="#FDFDFD"/>
</svg>
