<svg width="24" height="25" viewBox="0 0 24 25" fill="none" xmlns="http://www.w3.org/2000/svg">
<path d="M18.9999 3.19238C19.5304 3.19238 20.0391 3.4031 20.4141 3.77817C20.7892 4.15324 20.9999 4.66195 20.9999 5.19238V19.1924C20.9999 19.7228 20.7892 20.2315 20.4141 20.6066C20.0391 20.9817 19.5304 21.1924 18.9999 21.1924H4.99992C4.46949 21.1924 3.96078 20.9817 3.58571 20.6066C3.21064 20.2315 2.99992 19.7228 2.99992 19.1924V5.19238C2.99992 4.66195 3.21064 4.15324 3.58571 3.77817C3.96078 3.4031 4.46949 3.19238 4.99992 3.19238H18.9999ZM18.4999 18.6924V13.3924C18.4999 12.5278 18.1565 11.6986 17.5451 11.0872C16.9337 10.4758 16.1045 10.1324 15.2399 10.1324C14.3899 10.1324 13.3999 10.6524 12.9199 11.4324V10.3224H10.1299V18.6924H12.9199V13.7624C12.9199 12.9924 13.5399 12.3624 14.3099 12.3624C14.6812 12.3624 15.0373 12.5099 15.2999 12.7724C15.5624 13.035 15.7099 13.3911 15.7099 13.7624V18.6924H18.4999ZM6.87992 8.75238C7.32549 8.75238 7.7528 8.57538 8.06786 8.26032C8.38292 7.94526 8.55992 7.51795 8.55992 7.07238C8.55992 6.14238 7.80992 5.38238 6.87992 5.38238C6.43171 5.38238 6.00185 5.56044 5.68491 5.87737C5.36798 6.19431 5.18992 6.62417 5.18992 7.07238C5.18992 8.00238 5.94992 8.75238 6.87992 8.75238ZM8.26992 18.6924V10.3224H5.49992V18.6924H8.26992Z" fill="white"/>
</svg>
