<svg version="1.2" xmlns="http://www.w3.org/2000/svg" viewBox="0 0 2100 2100" width="2100" height="2100">
	<style>
		.s0 { fill: #4949e7 } 
		.s1 { fill: #1e1ef3 } 
		.s2 { fill: #1299dd } 
		.s3 { fill: #244239 } 
		.s4 { fill: #ffffff;stroke: #854cc8;stroke-miterlimit:10;stroke-width: 10 } 
		.s5 { fill: #0000ff } 
		.s6 { fill: #ffffff } 
		.s7 { fill: #c59bd2 } 
		.s8 { fill: #d68b54 } 
		.s9 { fill: #f9ad55 } 
		.s10 { fill: #f4a15d } 
		.s11 { fill: #e5e5e5 } 
		.s12 { fill: #c1c1c1 } 
		.s13 { fill: #a0a0a0 } 
		.s14 { fill: #53285a } 
		.s15 { fill: #2f295a } 
		.s16 { fill: #6c7ed1 } 
		.s17 { fill: #5b6daf } 
		.s18 { fill: #232047 } 
		.s19 { fill: #fbaea8 } 
		.s20 { fill: #e26889 } 
		.s21 { opacity: .64;fill: #f87582 } 
		.s22 { fill: #f5a953 } 
	</style>
	<g id="DESIGN">
		<g id="&lt;Group&gt;">
			<path id="&lt;Path&gt;" class="s0" d="m1720.14 1284.28c-132.39-17.63-8.55-135.49 58.06-278.42 12.2-26.19 22.49-53.22 28.93-80.62 2.52-10.76 4.45-21.56 5.68-32.4 5.7-50.52 3.22-111.72-9.24-173.59-34.21-170.06-143.71-345.19-365.46-317.39-49.84 6.25-88.73 19.54-118.83 37.92q0 0 0 0c-58.36 3.32-150.92 194.11-223.78 218.02-48.59 15.94-129.81-17.77-178.55-42-43.89-29.44-96.63-48.77-161.12-49.95-55.34-1-105.03 16.58-147.39 46.74-149.44 106.35-207.81 369.08-101.98 523.96 9.88 14.49 21.21 28.02 34.03 40.4 188.88 182.32 31.09 156.96-35.19 135.99-44.63-14.12-85.42 2.45-113.55 33.85-74.84 83.51-60.25 271.97 209.12 267.26 370.64-6.49 1046.99 69.71 1163.88-16.29 116.89-85.99 121.56-291.35-44.61-313.48z"/>
			<path id="&lt;Path&gt;" class="s1" d="m1849.11 1431.86c-0.11 26.39-5.82 53.6-16.66 79.19-14.16 33.48-37.08 64.19-67.7 86.71q-5.04 3.7-11.42 7-0.93 0.49-1.89 0.96c-147.71 73.13-792.11 2.06-1150.57 8.33-37.39 0.65-69.87-2.41-97.88-8.41-20.06-4.28-37.83-10.08-53.46-17.07-41.27-18.45-67.72-45.3-82.36-75.17-8.62-17.58-13.13-36.21-14.16-54.78-4.8-86.9 66.64-172.77 152.29-145.68 66.28 20.98 224.07 46.34 35.19-135.99-12.82-12.38-24.15-25.91-34.04-40.39 47.56 39.96 119.72 92.2 206.67 128.27 159.09 65.99 372.26-208.06 610.43-157.12 165.97 35.51 346.45 9.79 454.65-101.85-66.62 142.94-190.45 260.79-58.06 278.43 89.35 11.89 129.3 76.77 128.97 147.57z"/>
			<g id="&lt;Group&gt;">
				<g id="&lt;Group&gt;">
					<path id="&lt;Path&gt;" class="s2" d="m563.23 1624.9l0.08 15.93c4.6 1.29 9.1 2.97 13.42 5.01q2.88 0.81 5.82 1.45c7.5 0.54 15.03 0.69 22.56 0.69q-0.07-1.26-0.08-2.53c-0.04-7.34 1.33-14.35 3.86-20.79q0.27-0.66 0.55-1.32c5.58-13.18 16.08-23.79 29.2-29.51q0.65-0.29 1.32-0.55c6.4-2.61 13.4-4.05 20.74-4.09 7.33-0.04 14.35 1.34 20.78 3.87q0.67 0.26 1.33 0.55c13.18 5.58 23.78 16.08 29.5 29.21q0.29 0.65 0.56 1.31c2.6 6.41 4.04 13.41 4.08 20.74q0 1.58-0.08 3.14 1.55 0 3.1 0c12.92 0 25.81 0 38.69 0.18l-0.13-24.29-22.19 0.11c-1.76-6.32-4.31-12.31-7.51-17.87l15.61-15.78-29.51-29.21-15.62 15.78c-5.59-3.15-11.61-5.63-17.95-7.34l-0.11-22.19-41.53 0.21 0.11 22.19c-6.32 1.78-12.3 4.32-17.86 7.53l-15.78-15.62-29.21 29.51 15.78 15.62c-3.16 5.59-5.64 11.61-7.34 17.94z"/>
					<path id="&lt;Path&gt;" class="s2" d="m672.5 1647.79q0.31-1.3 0.3-2.69c-0.03-6.53-5.35-11.79-11.87-11.76-6.53 0.04-11.79 5.35-11.76 11.88q0.01 1.28 0.28 2.48 11.53 0.02 23.05 0.09z"/>
				</g>
				<g id="&lt;Group&gt;">
					<path id="&lt;Compound Path&gt;" class="s2" d="m660.21 1492.88l-0.21-41.52-22.19 0.11c-1.77-6.32-4.31-12.31-7.52-17.87l15.62-15.78-29.51-29.21-15.62 15.78c-5.6-3.15-11.62-5.63-17.96-7.34l-0.11-22.19-41.53 0.21 0.12 22.19c-6.32 1.78-12.31 4.32-17.87 7.53l-15.78-15.62-29.21 29.51 15.78 15.62c-3.15 5.59-5.63 11.6-7.33 17.94l-22.19 0.12 0.21 41.52 22.19-0.11c1.76 6.32 4.31 12.31 7.52 17.87l-15.62 15.78 29.51 29.21 15.62-15.78c5.59 3.15 11.6 5.63 17.94 7.34l0.12 22.19 41.52-0.21-0.11-22.19c6.32-1.78 12.31-4.32 17.88-7.53l15.77 15.62 29.21-29.51-15.77-15.62c3.15-5.59 5.63-11.61 7.33-17.94zm-45.66 0.23q-0.27 0.67-0.55 1.32c-5.58 13.18-16.07 23.79-29.2 29.51q-0.65 0.29-1.32 0.56c-6.41 2.6-13.41 4.04-20.75 4.08-7.33 0.04-14.34-1.33-20.78-3.87q-0.67-0.26-1.32-0.54c-13.17-5.59-23.78-16.09-29.5-29.21q-0.29-0.65-0.56-1.32c-2.6-6.41-4.04-13.41-4.08-20.74-0.04-7.33 1.33-14.35 3.86-20.78q0.27-0.67 0.55-1.32c5.59-13.19 16.09-23.8 29.2-29.51q0.65-0.3 1.32-0.56c6.41-2.6 13.41-4.05 20.74-4.08 7.33-0.04 14.35 1.33 20.78 3.86q0.68 0.27 1.33 0.55c13.19 5.58 23.79 16.08 29.5 29.21q0.29 0.65 0.57 1.31c2.59 6.41 4.04 13.41 4.07 20.75 0.04 7.33-1.33 14.34-3.86 20.78z"/>
					<path id="&lt;Path&gt;" class="s2" d="m574.27 1472.56c0.03 6.52-5.23 11.84-11.76 11.88-6.52 0.03-11.84-5.23-11.87-11.76-0.04-6.53 5.23-11.84 11.75-11.88 6.53-0.03 11.85 5.23 11.88 11.76z"/>
				</g>
				<g id="&lt;Group&gt;">
					<path id="&lt;Compound Path&gt;" class="s2" d="m799.61 1494.17l-6.88-27.61-14.75 3.68c-2.21-3.92-4.87-7.5-7.91-10.68l7.84-13.04-24.39-14.66-7.84 13.04c-4.23-1.19-8.64-1.86-13.14-1.97l-3.68-14.76-27.61 6.88 3.68 14.76c-3.92 2.2-7.49 4.87-10.68 7.91l-13.03-7.84-14.66 24.39 13.04 7.83c-1.2 4.23-1.87 8.64-1.97 13.14l-14.76 3.68 6.88 27.61 14.76-3.68c2.2 3.92 4.86 7.5 7.9 10.68l-7.84 13.04 24.39 14.66 7.84-13.04c4.23 1.19 8.64 1.86 13.13 1.97l3.68 14.76 27.61-6.88-3.68-14.76c3.92-2.2 7.5-4.87 10.69-7.91l13.04 7.84 14.65-24.39-13.04-7.83c1.2-4.24 1.87-8.65 1.97-13.14zm-30.35 7.56q-0.07 0.49-0.16 0.97c-1.57 9.68-6.84 18.45-14.65 24.39q-0.39 0.3-0.79 0.59c-3.84 2.76-8.27 4.86-13.15 6.08-4.87 1.21-9.77 1.44-14.46 0.79q-0.49-0.06-0.97-0.15c-9.67-1.58-18.44-6.85-24.38-14.66q-0.3-0.38-0.59-0.78c-2.76-3.85-4.86-8.27-6.08-13.15-1.21-4.87-1.44-9.77-0.8-14.46q0.07-0.49 0.16-0.97c1.57-9.68 6.84-18.45 14.65-24.38q0.38-0.3 0.78-0.59c3.85-2.77 8.27-4.87 13.15-6.08 4.88-1.22 9.77-1.44 14.46-0.8q0.49 0.07 0.98 0.15c9.68 1.58 18.44 6.85 24.38 14.66q0.3 0.38 0.59 0.78c2.76 3.85 4.86 8.27 6.08 13.15 1.21 4.88 1.44 9.77 0.8 14.46z"/>
					<path id="&lt;Path&gt;" class="s2" d="m739.1 1494.59c1.08 4.34-1.56 8.73-5.9 9.81-4.34 1.08-8.74-1.56-9.82-5.9-1.08-4.34 1.56-8.73 5.9-9.81 4.34-1.08 8.74 1.56 9.82 5.9z"/>
				</g>
			</g>
			<path id="&lt;Path&gt;" fill-rule="evenodd" class="s0" d="m1832.45 1511.05c-14.16 33.48-37.08 64.19-67.7 86.71q-5.04 3.7-11.42 7l-1250.34 0.88c-20.06-4.28-37.83-10.08-53.46-17.07-41.27-18.45-67.72-45.3-82.36-75.17-8.62-17.58-13.13-36.21-14.16-54.78 15.48 19.65 39.55 37.3 76.78 41.65 84.96 9.92 1200.4 10.72 1402.66 10.78z"/>
			<g id="&lt;Group&gt;">
				<path id="&lt;Compound Path&gt;" fill-rule="evenodd" class="s2" d="m1709.95 1560.06c32.29-18.48 56.64-50.66 58.77-87.66q0.01-0.17 0.02-0.35-15.41 38.86-49.56 65.08c-44.65-10.57 29.34-68.73 48.59-97.54-4.24-29.39-17.87-52.77-39.19-72.45q-9.71 55.39-48.63 106.78c-34.65-2.74 17.92-65 24.65-125.41q-10.72-7.09-22.97-13.61c-50.18 199.83-38.93-26.24-21.02-10.38-15.09-6.93-31.5-13.47-49.06-19.86 17.63 62.18-17.71 71.24-10.12 47.92q6.66-20.8-5.51-54.8-4.66-4.94-15.76-7.64 12.8 28.79 12.72 40.34-1.94 11.09-9.27-2-8.05-35.12-23.63-40.85c-2.48-0.71 0 0-2.67-0.75-0.25-0.05-0.74 2.46-0.78 2.66q-3.43 16.23 22.02 41.74 7.18 13.17-3.24 8.91-9.82-6.08-27.39-32.23-3.62 10.84-1.92 17.41 22.32 28.39 43.47 33.83c23.78 5.97-2.69 31.07-45.96-16.94-3.94 18.26-7.13 35.64-9.29 52.1 22.96 20.83 110.99 24.75 83.95 41.9-10.74 9.03-73.83-12-86.35-18.57-0.66 9.22-0.91 18.12-0.7 26.69q73.48 35.5 113.85 24.31 15.11 3.1 5.45 21.55-64.22 5.61-116.28-15.65c5.31 28.52 17.85 52.51 40.48 71.73 34.64-0.97 123.25-32.66 108.44 10.77q-40.37 14.96-81.47 7.33 0.15 0.09 0.3 0.17c31.24 17.21 68.11 14.87 99.24 0.08q5.9 19.7 10 54.42 3.21 4.49 18.88-5.21-3.4-22.51-20.06-53.82zm-107.31-49.88c9.07 1.55 15.68 7.14 14.76 12.49-0.92 5.34-9.01 8.42-18.07 6.87-9.07-1.56-15.67-7.15-14.76-12.5 0.92-5.34 9.01-8.42 18.07-6.86zm0.8-113.37c2.32 0.39 3.92 2.41 3.56 4.5-0.36 2.1-2.53 3.47-4.86 3.07-2.32-0.4-3.92-2.42-3.56-4.51 0.36-2.09 2.54-3.46 4.86-3.06zm28.44-61.96q1.36-3.1 4.65-1.63 13.18 23.54-2.29 26.35-8.35-4.92-2.36-24.72zm-53.95 55.84q-10.62 11.6-23.53-12.09 0.51-3.56 3.86-3.07 19.95 5.47 19.67 15.16z"/>
				<g id="&lt;Group&gt;">
					<path id="&lt;Compound Path&gt;" fill-rule="evenodd" class="s2" d="m1617.72 1436.41c-10.73 9.03-73.83-12-86.35-18.57-0.65 9.22-0.91 18.12-0.69 26.69q73.47 35.5 113.84 24.32 15.11 3.09 5.45 21.54-64.21 5.61-116.28-15.65c5.31 28.53 17.86 52.51 40.48 71.73 34.64-0.96 123.26-32.66 108.44 10.77q-40.36 14.96-81.47 7.34 0.15 0.08 0.31 0.16c30.81 16.98 67.1 14.93 97.96 0.67-26.08-68.15-53.63-121.17-52.29-122.76 0.85-1-21.36-39.02-44.83-78.54-1.15-0.61-2-1.9-2.28-3.85-16.87-28.37-34.03-56.92-43.46-72.58-0.22 0.74-0.44 1.88-0.46 2.01q-3.44 16.23 22.01 41.74 7.18 13.17-3.24 8.92-9.82-6.08-27.38-32.24-3.62 10.84-1.92 17.41 22.31 28.4 43.46 33.83c23.78 5.97-2.69 31.07-45.96-16.94-3.93 18.27-7.12 35.64-9.29 52.1 22.96 20.84 110.99 24.75 83.95 41.9zm-40.24-45.57q-10.61 11.6-23.53-12.08 0.51-3.57 3.86-3.07 19.95 5.46 19.67 15.15zm24.21 13.69c-2.32-0.39-3.91-2.41-3.56-4.51 0.36-2.09 2.54-3.46 4.86-3.06 2.33 0.4 3.92 2.42 3.56 4.51-0.36 2.09-2.53 3.46-4.86 3.06zm-2.81 125.16c-9.07-1.55-15.67-7.15-14.76-12.49 0.92-5.35 9.01-8.43 18.08-6.87 9.06 1.55 15.67 7.14 14.75 12.49-0.91 5.35-9.01 8.42-18.07 6.87z"/>
				</g>
			</g>
			<g id="&lt;Group&gt;">
				<path id="&lt;Path&gt;" class="s1" d="m1739.07 1660.07h-824.89c-12.21 0-22.11-9.9-22.11-22.11 0-12.22 9.9-22.12 22.11-22.12h824.89c12.21 0 22.11 9.9 22.11 22.12 0 12.21-9.9 22.11-22.11 22.11z"/>
				<path id="&lt;Path&gt;" class="s1" d="m1826.57 1623.66h-89.61c-12.21 0-22.12-9.9-22.12-22.12 0-12.21 9.91-22.11 22.12-22.11h89.61c12.22 0 22.12 9.9 22.12 22.11 0 12.22-9.9 22.12-22.12 22.12z"/>
				<g id="&lt;Group&gt;">
					<path id="&lt;Path&gt;" class="s2" d="m543.93 1419.67c4.18 43.74 0.39 71.34 8.38 90.86 5.87 14.35 23.71 27.46 26.45 37.17 0.54 1.89 0.49 3.66-0.33 5.28-0.69 1.35-1.93 2.62-3.86 3.76 0 0-54.69-39.51-100.07-12.76-45.37 26.74-65 39.07-82.49 21.65-17.49-17.44 5.13-30.33 19.09-36.66 13.96-6.33 14.24-29.56-8.41-23.46-22.67 6.1-65.29 37.59-90.86 8.38-18.98-21.68 1.32-33.7 17.75-42.36q0.08-0.04 0.16-0.08 0.02-0.01 0.04-0.02c5.63-2.97 10.78-5.55 13.71-7.98 11.49-9.58-5.59-26.47-32.2-23.34-15.93 1.88-37.38-7.94-49.97-22.82-8.44-9.97-12.9-22.22-9.05-34.74 9.62-31.16 49.22-44.15 77.07-20.94 27.84 23.22 48.48 45.94 62.29 37.17 13.82-8.77-18.66-58.33 16.07-67.62 34.74-9.3 56.66 74.69 75.02 75.26 18.34 0.58-9.04-36.63 7.24-42.15 16.27-5.53 49.79 11.68 53.97 55.4z"/>
					<path id="&lt;Path&gt;" class="s3" d="m578.76 1547.7c0.54 1.89 0.49 3.66-0.33 5.28-80.73-70.82-283.76-156.97-287.11-158.39 141.92 45.83 254.65 127.77 287.44 153.11z"/>
					<path id="&lt;Path&gt;" class="s3" d="m330.42 1499.84c0 0 80.15-34.01 113.71-34.83l-9.35-5.84c0 0-77.34 18.63-104.36 40.67z"/>
					<path id="&lt;Path&gt;" class="s3" d="m411.55 1545.19c0 0 80.15-34.01 113.71-34.83l-9.36-5.84c0 0-77.34 18.63-104.35 40.67z"/>
					<path id="&lt;Path&gt;" class="s3" d="m427.38 1451.98c0 0-21.89-44.81-21.21-91.22 0 0 2.37 30.54 13.87 59.7 11.5 29.16 18.54 40.45 18.54 40.45z"/>
					<path id="&lt;Path&gt;" class="s3" d="m526.21 1510.05c0 0-21.89-44.81-21.21-91.21 0 0 2.38 30.53 13.87 59.69 11.5 29.16 18.54 40.45 18.54 40.45z"/>
				</g>
				<g id="&lt;Group&gt;">
					<path id="&lt;Path&gt;" class="s2" d="m633.95 1403.53c-30.38 31.75-53.74 46.92-63.3 65.72-7.03 13.82-5.29 35.89-10.85 44.31-1.09 1.64-2.45 2.76-4.22 3.19-1.47 0.37-3.24 0.25-5.36-0.45 0 0-5.84-67.22-55.73-84.1-49.89-16.87-72.06-23.67-70.3-48.29 1.77-24.63 26.32-15.93 40.23-9.51 13.91 6.44 31.68-8.53 12.26-21.69-19.43-13.17-71.11-24.86-65.72-63.3 4.01-28.53 26.37-21.02 43.67-14.25q0.08 0.04 0.16 0.07 0.02 0.01 0.04 0.02c5.93 2.32 11.25 4.53 15 5.16 14.77 2.44 16.39-21.52-3.37-39.62-11.83-10.84-18.41-33.49-15.38-52.73 2.03-12.91 8.39-24.3 20.38-29.56 29.88-13.09 65.59 8.41 66.21 44.66 0.62 36.24-3.09 66.71 12.58 71.44 15.66 4.72 31.95-52.24 61.68-32.03 29.74 20.22-19.51 91.7-7.95 105.97 11.55 14.26 21.83-30.78 36.64-22.07 14.82 8.71 23.7 45.32-6.67 77.06z"/>
					<path id="&lt;Path&gt;" class="s3" d="m559.8 1513.56c-1.09 1.64-2.45 2.76-4.22 3.19 0.86-107.38-66.6-317.36-67.71-320.83 58.04 137.39 69.68 276.26 71.93 317.64z"/>
					<path id="&lt;Path&gt;" class="s3" d="m433.75 1294.3c0 0 78.12 38.45 100.67 63.32l-1.7-10.9c0 0-64.64-46.37-98.97-52.42z"/>
					<path id="&lt;Path&gt;" class="s3" d="m452.43 1385.34c0 0 78.12 38.45 100.67 63.32l-1.69-10.9c0 0-64.64-46.37-98.98-52.42z"/>
					<path id="&lt;Path&gt;" class="s3" d="m533.34 1336.42c0 0 19.61-45.85 55.18-75.66 0 0-21.56 21.75-36.12 49.51-14.56 27.75-18.51 40.46-18.51 40.46z"/>
					<path id="&lt;Path&gt;" class="s3" d="m553.96 1449.18c0 0 19.62-45.85 55.18-75.66 0 0-21.56 21.75-36.12 49.51-14.56 27.75-18.51 40.46-18.51 40.46z"/>
				</g>
				<g id="&lt;Group&gt;">
					<path id="&lt;Path&gt;" class="s0" d="m914.85 1567.94h-301.67c-37.59 0-68.07-30.48-68.07-68.07v-854.29c0-37.6 30.48-68.07 68.07-68.07h301.67c37.6 0 68.07 30.47 68.07 68.07v854.29c0 37.59-30.47 68.07-68.07 68.07z"/>
					<path id="&lt;Path&gt;" class="s4" d="m962.28 1574.82h-301.67c-37.6 0-68.07-30.47-68.07-68.06v-854.3c0-37.59 30.47-68.06 68.07-68.06h301.67c37.59 0 68.07 30.47 68.07 68.06v854.3c0 37.59-30.48 68.06-68.07 68.06z"/>
					<path id="&lt;Path&gt;" class="s5" d="m633.19 1511.11v-863c0-12.74 10.32-23.07 23.06-23.07h310.38c12.74 0 23.07 10.33 23.07 23.07v863c0 12.74-10.33 23.07-23.07 23.07h-310.38c-12.74 0-23.06-10.33-23.06-23.07z"/>
					<path id="&lt;Path&gt;" class="s1" d="m977.06 645.88v49.46h-331.23v-49.46c0-4.51 3.68-8.19 8.19-8.19h314.84c4.52 0 8.2 3.68 8.2 8.19z"/>
					<path id="&lt;Path&gt;" class="s6" d="m724.44 662.67v-6.62h-65.33v28.91h65.33v-6.63h9.64v-15.66z"/>
					<path id="&lt;Path&gt;" class="s7" d="m706.75 681.34h-44.03v-21.68h28.02z"/>
					<path id="&lt;Path&gt;" class="s6" d="m901.71 687.97h-13.7v-26.05h13.7z"/>
					<path id="&lt;Path&gt;" class="s6" d="m931.37 688.87h-13.7v-44.71h13.7z"/>
					<path id="&lt;Path&gt;" class="s6" d="m960.12 688.87h-13.7v-36.73h13.7z"/>
					<g id="&lt;Group&gt;">
						<g id="&lt;Group&gt;">
							<path id="&lt;Path&gt;" class="s6" d="m747.55 894.52c-1.5 0-2.83-1.07-3.11-2.6-0.3-1.66-7.26-41.04 0.03-72.92 7.41-32.41 29.55-57.3 53.85-60.54 1.73-0.23 3.32 0.99 3.55 2.72 0.23 1.73-0.98 3.32-2.72 3.55-21.73 2.9-41.68 25.79-48.52 55.68-6.99 30.6-0.04 70 0.03 70.39 0.31 1.72-0.83 3.36-2.55 3.67q-0.28 0.05-0.56 0.05z"/>
						</g>
						<g id="&lt;Group&gt;">
							<path id="&lt;Path&gt;" class="s6" d="m769.23 897.53c-1.56 0-2.91-1.14-3.13-2.73-0.31-2.25-7.43-55.33 2.54-78.46 9.5-22.04 27.45-37.43 43.65-37.43 1.74 0 3.16 1.41 3.16 3.16 0 1.74-1.42 3.16-3.16 3.16-11.61 0-28.33 11.55-37.85 33.62-9.28 21.52-2.15 74.56-2.08 75.09 0.24 1.73-0.97 3.33-2.7 3.57q-0.22 0.02-0.43 0.02z"/>
						</g>
						<g id="&lt;Group&gt;">
							<path id="&lt;Path&gt;" class="s6" d="m864.98 790.65c-1.21 0-2.37-0.7-2.89-1.88-8.65-19.45-25.09-20.08-25.78-20.1-1.74-0.05-3.13-1.49-3.09-3.23 0.04-1.72 1.44-3.09 3.15-3.09q0.03 0 0.05 0c0.86 0.01 21.11 0.6 31.44 23.85 0.71 1.6 0 3.47-1.6 4.18q-0.63 0.27-1.28 0.27z"/>
						</g>
						<g id="&lt;Group&gt;">
							<path id="&lt;Path&gt;" class="s6" d="m864.98 861.1q-0.15 0-0.31-0.01c-1.74-0.17-3.01-1.72-2.84-3.46 0.03-0.27 2.57-27.24-2.86-43.55-5.13-15.37-19.06-19.29-19.2-19.33-1.69-0.45-2.69-2.18-2.23-3.87 0.45-1.69 2.18-2.69 3.87-2.23 0.71 0.19 17.37 4.87 23.55 23.43 5.87 17.6 3.28 45.01 3.16 46.17-0.16 1.63-1.53 2.85-3.14 2.85z"/>
						</g>
						<g id="&lt;Group&gt;">
							<path id="&lt;Path&gt;" class="s6" d="m884.25 885.49q-0.05 0-0.1 0c-1.75-0.06-3.12-1.51-3.06-3.26 0.59-18.88-3.27-70.2-3.31-70.72-0.13-1.74 1.17-3.26 2.92-3.39 1.72-0.12 3.25 1.17 3.39 2.91 0.16 2.13 3.92 52.18 3.32 71.4-0.06 1.71-1.46 3.06-3.16 3.06z"/>
						</g>
						<g id="&lt;Group&gt;">
							<path id="&lt;Compound Path&gt;" class="s6" d="m828.77 914.83q-1.31 0.01-2.44-0.48c-6.08-2.68-11.8-19.27-13.33-24.87-2.38-8.71-5.58-35.86-4.46-45.45 1.23-10.49 7.56-21.13 16.1-20.71 1.2 0.06 2.94 0.54 4.52 2.52 5.49 6.92 5.88 30.61 4 40.8-0.32 1.72-1.96 2.86-3.68 2.54-1.72-0.32-2.86-1.97-2.54-3.68 2.25-12.23 0.11-33.29-2.83-35.87-3.98 0.1-8.36 7.19-9.29 15.13-1 8.63 2.13 35.17 4.28 43.06 2.54 9.33 7.59 19.48 9.73 20.72 2.04 0.22 9.6-4.54 14.66-9.87 3.82-4.03 6.07-10.16 6.51-12.34 0.43-2.13 1.27-16.48-2.46-47.73-2-16.65-6.87-27.93-14.11-32.62-4.62-2.99-10.4-3.44-17.19-1.32-13.29 4.14-17.25 37.76-17.66 50.37-0.05 1.75-1.49 3.12-3.26 3.06-1.74-0.06-3.11-1.51-3.05-3.26 0.16-5.1 2.15-50 22.09-56.21 8.67-2.7 16.24-2.01 22.51 2.05 8.99 5.83 14.69 18.33 16.94 37.17 3.8 31.71 3.01 46.66 2.39 49.74-0.68 3.38-3.49 10.56-8.13 15.44-0.12 0.14-11.6 11.81-19.3 11.81z"/>
						</g>
						<g id="&lt;Group&gt;">
							<path id="&lt;Path&gt;" class="s6" d="m821.14 938.68c-12.44 0-25.41-6.84-28.35-11.24-2.56-3.84-5.42-28.17-6.53-38.45-0.19-1.73 1.07-3.29 2.8-3.48 1.75-0.19 3.3 1.07 3.49 2.8 1.68 15.61 4.22 33.22 5.54 35.68 1.72 2.57 14.68 9.56 26.03 8.19 1.74-0.21 3.31 1.03 3.52 2.76 0.2 1.74-1.03 3.31-2.76 3.52q-1.86 0.22-3.74 0.22z"/>
						</g>
						<g id="&lt;Group&gt;">
							<path id="&lt;Path&gt;" class="s6" d="m845.1 929.15c-1.45 0-2.76-1.01-3.08-2.49-0.38-1.7 0.7-3.39 2.41-3.76 10.75-2.35 17.8-9.33 20.96-20.75 2.44-8.83 1.57-16.98 1.56-17.06-0.19-1.74 1.06-3.3 2.79-3.49 1.73-0.2 3.3 1.05 3.5 2.79 0.04 0.37 3.87 37.83-27.46 44.69q-0.34 0.07-0.68 0.07z"/>
						</g>
						<g id="&lt;Group&gt;">
							<path id="&lt;Path&gt;" class="s6" d="m816.12 961.28c-8.11 0-17.76-1.83-26.25-8.41-18.42-14.29-19.54-39.97-19.58-41.06-0.07-1.75 1.3-3.21 3.04-3.27 1.72-0.1 3.21 1.3 3.27 3.04 0.02 0.38 1.15 23.88 17.15 36.3 15.84 12.29 37.73 4.71 37.95 4.64 1.64-0.59 3.45 0.27 4.03 1.91 0.59 1.64-0.26 3.45-1.9 4.04-0.56 0.2-8.02 2.81-17.71 2.81z"/>
						</g>
						<g id="&lt;Group&gt;">
							<path id="&lt;Path&gt;" class="s6" d="m823.16 979.87q-2.75 0-5.61-0.14c-1.74-0.09-3.09-1.57-3-3.32 0.08-1.74 1.56-3.09 3.31-3 20.71 1.01 36.59-3.82 47.2-14.37 15.18-15.09 14.41-36.91 14.4-37.13-0.07-1.75 1.28-3.22 3.02-3.3 1.74-0.09 3.22 1.28 3.3 3.02 0.04 1.01 0.88 24.86-16.26 41.9-10.91 10.85-26.49 16.34-46.36 16.34z"/>
						</g>
						<g id="&lt;Group&gt;">
							<path id="&lt;Path&gt;" class="s6" d="m773.45 967.69q-0.43 0-0.87-0.12c-24.11-6.85-27.45-43.96-27.58-45.54-0.14-1.74 1.15-3.27 2.89-3.41 1.74-0.14 3.27 1.15 3.41 2.89 0.03 0.34 3.11 34.33 23.01 39.97 1.68 0.48 2.65 2.23 2.18 3.91-0.4 1.39-1.66 2.3-3.04 2.3z"/>
						</g>
					</g>
					<g id="&lt;Group&gt;">
						<path id="&lt;Compound Path&gt;" class="s8" d="m655.67 1079.11c-9.92-34.68-41.91-60.14-79.73-60.14h-80.78c-45.72 0-82.92 37.2-82.92 82.92q-0.01 1.27 0.04 2.52c1.33 44.56 38 80.39 82.88 80.39h80.78c45.72 0 82.92-37.19 82.92-82.91 0-7.89-1.12-15.54-3.19-22.78zm-79.73 61.62h-80.78c-21.42 0-38.84-17.42-38.84-38.84q0-2.21 0.24-4.36c2.18-19.38 18.65-34.49 38.6-34.49h80.78c15.77 0 29.37 9.44 35.45 22.97 2.18 4.86 3.4 10.23 3.4 15.88 0 21.42-17.43 38.84-38.85 38.84z"/>
					</g>
					<g id="&lt;Group&gt;">
						<path id="&lt;Compound Path&gt;" class="s9" d="m655.67 1079.11c-9.92-34.68-41.91-60.14-79.73-60.14h-80.78c-45.72 0-82.92 37.2-82.92 82.92q-0.01 1.27 0.04 2.52c9.92 34.69 41.91 60.14 79.73 60.14h80.78c45.73 0 82.92-37.19 82.92-82.92q0.01-1.26-0.04-2.52zm-79.73 61.62h-80.78c-21.42 0-38.84-17.42-38.84-38.84q0-2.21 0.24-4.36c-2.18-4.86-3.4-10.24-3.4-15.9 0-21.42 17.43-38.85 38.85-38.85h80.78c21.43 0 38.85 17.43 38.85 38.85q0 2.23-0.25 4.38c2.18 4.86 3.4 10.23 3.4 15.88 0 21.42-17.43 38.84-38.85 38.84z"/>
					</g>
					<g id="&lt;Group&gt;">
						<path id="&lt;Compound Path&gt;" class="s8" d="m817.36 1184.81h-80.78c-45.72 0-82.92-37.2-82.92-82.92 0-45.72 37.2-82.92 82.92-82.92h80.78c45.72 0 82.92 37.2 82.92 82.92 0 45.72-37.2 82.92-82.92 82.92zm-80.78-121.77c-21.42 0-38.85 17.43-38.85 38.85 0 21.42 17.43 38.85 38.85 38.85h80.78c21.42 0 38.85-17.43 38.85-38.85 0-21.42-17.43-38.85-38.85-38.85z"/>
					</g>
					<g id="&lt;Group&gt;">
						<path id="&lt;Compound Path&gt;" class="s9" d="m893.22 1078.51c-9.92-34.68-41.9-60.13-79.72-60.13h-80.79c-45.71 0-82.92 37.19-82.92 82.92q0 1.26 0.05 2.52c9.91 34.68 41.9 60.13 79.73 60.13h80.78c45.72 0 82.91-37.19 82.91-82.92q0.01-1.26-0.04-2.52zm-79.72 61.63h-80.79c-21.42 0-38.84-17.43-38.84-38.84q0-2.22 0.24-4.37c-2.17-4.86-3.39-10.24-3.39-15.9 0-21.42 17.42-38.84 38.85-38.84h80.78c21.42 0 38.84 17.42 38.84 38.84q0.01 2.23-0.25 4.39c2.19 4.85 3.4 10.22 3.4 15.88 0 21.41-17.43 38.84-38.84 38.84z"/>
					</g>
					<g id="&lt;Group&gt;">
						<path id="&lt;Path&gt;" class="s9" d="m816.14 1101.89c0 12.17-9.87 22.03-22.04 22.03h-244.07c-12.17 0-22.03-9.86-22.03-22.03 0-12.17 9.86-22.04 22.03-22.04h244.07c12.17 0 22.04 9.87 22.04 22.04z"/>
					</g>
					<g id="&lt;Group&gt;">
						<g id="&lt;Group&gt;">
							<g id="&lt;Group&gt;">
								<path id="&lt;Path&gt;" class="s8" d="m731.07 1464.77l-29.29-35.21c-14.95-17.97-19.64-41.6-10.32-65.38l29.29 35.21c-9.32 23.78-4.63 47.41 10.32 65.38z"/>
							</g>
							<g id="&lt;Group&gt;">
								<path id="&lt;Path&gt;" class="s8" d="m720.75 1399.39l-29.29-35.21 57.28-146.18 29.3 35.22z"/>
							</g>
							<g id="&lt;Group&gt;">
								<path id="&lt;Path&gt;" class="s8" d="m778.04 1253.22l-29.3-35.22 190.17 34.22 29.3 35.21z"/>
							</g>
							<g id="&lt;Group&gt;">
								<path id="&lt;Path&gt;" class="s10" d="m968.21 1287.43l-57.29 146.17c-16.84 42.97-73.06 70.15-125.58 60.71-52.51-9.45-81.43-51.95-64.59-94.92l57.29-146.17z"/>
							</g>
						</g>
					</g>
					<g id="&lt;Group&gt;">
						<path id="&lt;Path&gt;" class="s11" d="m983.98 1133.54c0.03 8.61-2 16.44-4.31 22.52-7.55 19.96-42.27 101.17-43.74 104.61-2.31 5.41-8.24 8.91-14.74 9.3-2.27 0.15-4.6-0.1-6.88-0.77-2.77-0.81-5.13-2.15-6.96-3.85-4-3.68-5.5-9.02-3.36-14.02 0.26-0.6 18.78-43.93 31.89-75.42 5.11-12.28 9.4-22.76 11.46-28.21 8.57-22.65-2.38-38.25-32.54-46.37-14.68-3.94-27.52-1.71-39.27 6.83-8.63 6.28-13.76 13.9-15.07 15.98l-47.87 116.52c-2.84 6.91-11.56 10.8-19.99 9.12q-0.75-0.15-1.5-0.36c-8.85-2.49-13.59-10.45-10.59-17.77l48.53-118.1 0.38-0.67c0.77-1.39 8.05-13.98 22.67-24.97 20.82-15.62 46.82-20.31 73.2-13.21 27.63 7.44 45.81 20.17 54.06 37.83 3.35 7.17 4.61 14.32 4.63 21.01z"/>
					</g>
					<path id="&lt;Path&gt;" class="s12" d="m983.98 1133.54c0.03 8.61-2 16.44-4.31 22.52-7.55 19.96-42.27 101.17-43.74 104.61-2.31 5.41-8.24 8.91-14.74 9.3-2.27 0.15-4.6-0.1-6.88-0.77-2.77-0.81-5.13-2.15-6.96-3.85l36.21-80.55-7.68-8.89c5.11-12.28 9.4-22.76 11.46-28.21 8.57-22.65-2.38-38.25-32.54-46.37-14.68-3.94-27.52-1.71-39.27 6.83-8.63 6.28-13.76 13.9-15.07 15.98l-47.87 116.52c-2.84 6.91-11.56 10.8-19.99 9.12l52.81-130.07c0 0 26.49-40.84 73.46-28.56 34.72 9.09 58.67 20.35 65.11 42.39z"/>
					<g id="&lt;Group&gt;">
						<path id="&lt;Path&gt;" class="s8" d="m1158.34 1101.89c0 45.72-37.2 82.91-82.91 82.91h-80.79c-45.71 0-82.91-37.19-82.91-82.91v-0.12q0.8 0.09 1.58 0.21c10.05 1.59 19.33 6.98 27.73 12.41 9.55 6.17 18.5 13.2 28.13 19.24 1.54 0.97 3.06 1.19 4.42 0.88 6.07 3.93 13.29 6.22 21.05 6.22h80.79c5.15 0 10.06-1 14.56-2.83 14.23-5.77 24.28-19.74 24.28-36.01 0-21.42-17.42-38.85-38.84-38.85h-80.79c-16.8 0-31.13 10.74-36.54 25.7q-1.72-1.21-3.49-2.35c-4.72-3.07-9.7-5.78-14.77-8.06-6.74-3.03-13.91-5.48-21.3-6.04q-0.65-0.05-1.3-0.08c8.52-22.15 26.29-39.76 48.55-48.05q0.3-0.13 0.6-0.23c8.82-3.2 18.33-4.96 28.25-4.96h80.79c40.03 0 73.53 28.53 81.24 66.32 1.09 5.37 1.67 10.92 1.67 16.6z"/>
					</g>
					<path id="&lt;Path&gt;" class="s12" d="m884 1388.13c-7.94 24.99-35.96 40.55-62.57 34.76-26.62-5.78-41.75-30.73-33.81-55.72 7.95-24.98 35.96-40.55 62.58-34.76 26.61 5.78 41.75 30.73 33.8 55.72z"/>
					<path id="&lt;Path&gt;" class="s11" d="m890.27 1392.73c-7.94 24.99-35.96 40.55-62.57 34.76-26.62-5.78-41.75-30.73-33.81-55.72 7.94-24.98 35.96-40.55 62.57-34.76 26.62 5.78 41.75 30.73 33.81 55.72z"/>
					<path id="&lt;Path&gt;" class="s13" d="m822.3 1405.15l14.93-22.55c-2.43-3.09-3.24-7.01-1.83-10.8 2.08-5.54 8.27-9.08 14.95-9.04q2.23 0.01 4.47 0.58 2.24 0.58 4.09 1.61c5.53 3.08 8.22 8.9 6.15 14.44-1.42 3.79-4.77 6.65-8.87 8.06l-3.1 25.58z"/>
					<path id="&lt;Path&gt;" class="s8" d="m816.14 1101.89c0 12.17-9.87 22.03-22.04 22.03h-244.07c-12.17 0-22.03-9.86-22.03-22.03z"/>
					<g id="&lt;Group&gt;">
						<path id="&lt;Compound Path&gt;" class="s9" d="m1156.73 1078.51c-9.92-34.69-41.9-60.14-79.72-60.14h-80.79c-10.51 0-20.57 1.97-29.83 5.56q-0.3 0.1-0.6 0.23c-21.76 8.61-39.04 26.18-47.25 48.13 7.39 0.56 14.56 3.01 21.3 6.04 5.07 2.28 10.05 4.99 14.77 8.06q-0.38-2.62-0.38-5.36c0-21.43 17.42-38.85 38.85-38.85h80.78c21.42 0 38.85 17.42 38.85 38.85q0 2.22-0.26 4.38c2.19 4.85 3.4 10.22 3.4 15.88 0 16.86-10.8 31.25-25.86 36.61-4.5 1.83-9.41 2.83-14.56 2.83h-80.79c-7.76 0-14.98-2.29-21.05-6.22-1.36 0.31-2.88 0.09-4.42-0.88-9.63-6.04-18.58-13.07-28.13-19.24-8.4-5.43-17.68-10.82-27.73-12.41q0 0.92 0.04 1.83c9.92 34.68 41.9 60.14 79.73 60.14h80.78c44.29 0 80.59-34.91 82.81-78.66q0.11-2.12 0.11-4.26 0-1.26-0.05-2.52z"/>
					</g>
				</g>
				<g id="&lt;Group&gt;">
					<path id="&lt;Path&gt;" class="s5" d="m1294.54 446.65h-387.18c-29.43 0-53.29-23.86-53.29-53.29 0-29.44 23.86-53.3 53.29-53.3h387.18c29.43 0 53.29 23.86 53.29 53.3 0 29.43-23.86 53.29-53.29 53.29z"/>
					<g id="&lt;Group&gt;">
						<path id="&lt;Compound Path&gt;" class="s6" d="m966.94 408.74c-0.64 0-1.29 0-1.29-0.26-0.39-3.62-0.52-6.98-0.9-10.86-2.98 1.29-5.57 2.59-8.28 3.88-0.26 0.13-0.91-0.26-1.17-1.16-0.52-0.65-0.52-1.3-0.13-1.56 2.59-1.94 4.66-3.23 7.25-5.3-2.59-1.94-5.18-3.49-7.38-5.04-0.26-0.13-0.26-0.78 0.26-1.81 0.39-1.17 1.04-1.56 1.43-1.3 2.58 1.3 4.78 2.46 7.75 3.75 0.13-3.75 0.27-6.72 0.52-10.22 0-0.38 1.17-0.51 1.94-0.51 1.04 0 2.07 0.13 2.07 0.51 0.13 3.24 0.13 6.6 0.39 10.35 2.98-1.29 5.43-2.46 8.02-3.75 0.39-0.13 0.91 0.39 1.42 1.29 0.39 1.04 0.52 1.56 0.13 1.94-2.97 1.94-4.65 2.98-7.5 4.92 2.07 1.55 4.4 3.23 7.24 5.43 0.13 0.13 0.13 0.78-0.25 1.3-0.52 0.64-0.91 1.29-1.17 1.16-2.85-1.42-5.3-2.85-7.89-4.01-0.39 3.88-0.65 7.24-1.29 10.99 0 0.26-0.39 0.26-1.04 0.26z"/>
					</g>
					<g id="&lt;Group&gt;">
						<path id="&lt;Compound Path&gt;" class="s6" d="m1019.68 408.74c-0.65 0-1.3 0-1.3-0.26-0.39-3.62-0.52-6.98-0.9-10.86-2.98 1.29-5.57 2.59-8.28 3.88-0.26 0.13-0.91-0.26-1.17-1.16-0.51-0.65-0.51-1.3-0.13-1.56 2.59-1.94 4.66-3.23 7.25-5.3-2.59-1.94-5.18-3.49-7.38-5.04-0.25-0.13-0.25-0.78 0.26-1.81 0.39-1.17 1.04-1.56 1.43-1.3 2.58 1.3 4.78 2.46 7.76 3.75 0.13-3.75 0.26-6.72 0.51-10.22 0-0.38 1.17-0.51 1.95-0.51 1.03 0 2.06 0.13 2.06 0.51 0.13 3.24 0.13 6.6 0.39 10.35 2.98-1.29 5.43-2.46 8.02-3.75 0.39-0.13 0.91 0.39 1.42 1.29 0.39 1.04 0.52 1.56 0.13 1.94-2.97 1.94-4.65 2.98-7.5 4.92 2.07 1.55 4.4 3.23 7.25 5.43 0.12 0.13 0.12 0.78-0.26 1.3-0.52 0.64-0.91 1.29-1.17 1.16-2.84-1.42-5.3-2.85-7.89-4.01-0.39 3.88-0.64 7.24-1.29 10.99 0 0.26-0.39 0.26-1.04 0.26z"/>
					</g>
					<g id="&lt;Group&gt;">
						<path id="&lt;Compound Path&gt;" class="s6" d="m1072.41 408.74c-0.65 0-1.3 0-1.3-0.26-0.39-3.62-0.52-6.98-0.9-10.86-2.98 1.29-5.57 2.59-8.28 3.88-0.26 0.13-0.91-0.26-1.17-1.16-0.51-0.65-0.51-1.3-0.13-1.56 2.59-1.94 4.66-3.23 7.25-5.3-2.59-1.94-5.18-3.49-7.37-5.04-0.26-0.13-0.26-0.78 0.25-1.81 0.39-1.17 1.04-1.56 1.43-1.3 2.58 1.3 4.78 2.46 7.76 3.75 0.13-3.75 0.26-6.72 0.52-10.22 0-0.38 1.16-0.51 1.94-0.51 1.03 0 2.06 0.13 2.06 0.51 0.14 3.24 0.14 6.6 0.39 10.35 2.98-1.29 5.44-2.46 8.02-3.75 0.39-0.13 0.91 0.39 1.42 1.29 0.39 1.04 0.52 1.56 0.14 1.94-2.98 1.94-4.66 2.98-7.51 4.92 2.07 1.55 4.4 3.23 7.25 5.43 0.12 0.13 0.12 0.78-0.26 1.3-0.52 0.64-0.91 1.29-1.17 1.16-2.84-1.42-5.3-2.85-7.89-4.01-0.39 3.88-0.64 7.24-1.29 10.99 0 0.26-0.39 0.26-1.04 0.26z"/>
					</g>
					<g id="&lt;Group&gt;">
						<path id="&lt;Compound Path&gt;" class="s6" d="m1125.14 408.74c-0.65 0-1.3 0-1.3-0.26-0.38-3.62-0.51-6.98-0.9-10.86-2.98 1.29-5.56 2.59-8.28 3.88-0.26 0.13-0.91-0.26-1.16-1.16-0.52-0.65-0.52-1.3-0.13-1.56 2.58-1.94 4.65-3.23 7.24-5.3-2.59-1.94-5.17-3.49-7.37-5.04-0.26-0.13-0.26-0.78 0.26-1.81 0.38-1.17 1.03-1.56 1.42-1.3 2.58 1.3 4.78 2.46 7.76 3.75 0.13-3.75 0.26-6.72 0.52-10.22 0-0.38 1.16-0.51 1.94-0.51 1.03 0 2.07 0.13 2.07 0.51 0.13 3.24 0.13 6.6 0.38 10.35 2.98-1.29 5.44-2.46 8.02-3.75 0.39-0.13 0.91 0.39 1.43 1.29 0.38 1.04 0.52 1.56 0.13 1.94-2.98 1.94-4.66 2.98-7.51 4.92 2.07 1.55 4.4 3.23 7.25 5.43 0.13 0.13 0.13 0.78-0.26 1.3-0.52 0.64-0.91 1.29-1.17 1.16-2.84-1.42-5.3-2.85-7.89-4.01-0.38 3.88-0.64 7.24-1.29 10.99 0 0.26-0.39 0.26-1.03 0.26z"/>
					</g>
					<g id="&lt;Group&gt;">
						<path id="&lt;Compound Path&gt;" class="s6" d="m1177.87 408.74c-0.65 0-1.3 0-1.3-0.26-0.38-3.62-0.51-6.98-0.9-10.86-2.98 1.29-5.56 2.59-8.28 3.88-0.26 0.13-0.9-0.26-1.16-1.16-0.52-0.65-0.52-1.3-0.13-1.56 2.58-1.94 4.65-3.23 7.24-5.3-2.59-1.94-5.17-3.49-7.37-5.04-0.26-0.13-0.26-0.78 0.26-1.81 0.38-1.17 1.03-1.56 1.42-1.3 2.59 1.3 4.78 2.46 7.76 3.75 0.13-3.75 0.26-6.72 0.52-10.22 0-0.38 1.16-0.51 1.94-0.51 1.03 0 2.07 0.13 2.07 0.51 0.13 3.24 0.13 6.6 0.39 10.35 2.97-1.29 5.43-2.46 8.02-3.75 0.38-0.13 0.9 0.39 1.42 1.29 0.39 1.04 0.52 1.56 0.13 1.94-2.98 1.94-4.66 2.98-7.51 4.92 2.08 1.55 4.4 3.23 7.25 5.43 0.13 0.13 0.13 0.78-0.26 1.3-0.52 0.64-0.91 1.29-1.16 1.16-2.85-1.42-5.31-2.85-7.89-4.01-0.39 3.88-0.65 7.24-1.3 10.99 0 0.26-0.39 0.26-1.03 0.26z"/>
					</g>
				</g>
				<g id="&lt;Group&gt;">
					<path id="&lt;Path&gt;" class="s14" d="m1448.16 706.01c0 1.95-0.41 4.58-1.12 7.73-5.79 25.31-31.99 83.81-31.99 83.81 0 0-74.38-30.57-112.77-44.12-7.81-2.75-14.31-7.27-19.54-12.9-20.48-22.02-21.48-61.06-5.3-78.32 20.33-21.68 57.72-4.97 57.72-4.97 0 0 34.87-9.94 63.32-8.58 28.45 1.35 49.68 39.74 49.68 57.35z"/>
					<path id="&lt;Path&gt;" class="s15" d="m1447.04 713.74c-5.79 25.31-31.99 83.81-31.99 83.81 0 0-74.38-30.57-112.77-44.12-7.81-2.75-14.31-7.27-19.54-12.9-7.26-11.55-12.23-28.67-0.16-48.97 22.58-37.94 47.88-19.87 47.88-19.87 0 0 52.38 0.45 65.93 12.19 13.55 11.75 24.64 23.48 31.97 28 3.28 2.03 11.08 2.24 18.68 1.86z"/>
					<path id="&lt;Path&gt;" class="s16" d="m1353.54 920.59c-0.49 29.32 0.38 95.85 0.38 95.85 0 0-8.55 0.57-23.44 0.04q-0.61-0.02-1.24-0.04c-15.67-0.61-27.71-12.04-27.71-12.04 0 0 12.95-87.62 17.16-105.99 4.22-18.37 17.92-30.71 17.92-30.71 0 0 18.51 25.89 17.31 41.55-0.17 2.31-0.3 6.27-0.38 11.34z"/>
					<path id="&lt;Path&gt;" class="s17" d="m1353.92 1016.44c0 0-8.55 0.57-23.44 0.04l-10.86-4.26 28.9-119.23 5.02 27.6c-0.49 29.32 0.38 95.85 0.38 95.85z"/>
					<path id="&lt;Path&gt;" class="s18" d="m1792 1551.47c0 0-6.02 16.26-7.52 18.97-1.51 2.71-3.77 4.38-3.77 4.38 0 0-11.29-3.18-16.86 2.24-5.57 5.42-11.44 27.1-7.68 36.13 0 0 45.77-0.6 51.34-2.11 5.57-1.5 11.59-4.96 13.4-10.84 1.8-5.87 7.98-47.72 7.98-50.28 0-2.56-4.52-11.14-9.04-11.29-4.51-0.15-27.85 12.8-27.85 12.8z"/>
					<path id="&lt;Path&gt;" class="s19" d="m1816.3 1547.1c-2.05 2.78-4.85 5.51-8.04 7.07-7.07 3.47-16.86 0-16.86 0l-9.63-13.24 17.87-8.43 11.78-5.57 8.43 11.74c0.33 1.57-1.06 5.04-3.55 8.43z"/>
					<path id="&lt;Path&gt;" class="s20" d="m1816.3 1547.1c-0.96-1.91-2.34-4.01-4.34-5.78-5.18-4.58-16.93 0-16.93 0l4.61-8.82 11.78-5.57 8.43 11.74c0.33 1.57-1.06 5.04-3.55 8.43z"/>
					<path id="&lt;Path&gt;" class="s18" d="m1404.5 1591.06c0 0 3.77 10.39 3.47 15.51-0.3 5.12-9.94 26.49-9.94 26.49l-93.18 0.6c0 0-2.41-17.31 2.55-21.3 4.97-3.99 30.56-9.56 39.3-11.97 8.73-2.4 22.2-12.79 22.2-12.79z"/>
					<path id="&lt;Path&gt;" class="s19" d="m1410.22 1569.98l-4.97 22.81c0 0-3.46 4.42-14.09 5.63q-1.34 0.16-2.84 0.24c-12.87 0.68-19.42-11.07-19.42-11.07l3.39-22.13 23.5 2.8z"/>
					<path id="&lt;Path&gt;" class="s20" d="m1410.22 1569.98l-4.97 22.81c0 0-3.46 4.42-14.09 5.63l4.63-30.16z"/>
					<path id="&lt;Path&gt;" class="s15" d="m1816.39 1527.68c0 0-12.04 10.24-18.67 13.25-6.62 3.01-20.47 1.5-20.47 1.5 0 0-1.41-1.32-3.92-3.69-20.16-18.99-111.69-105.4-121.33-118.25-10.84-14.45-28.91-50.58-28.91-50.58l-44.55-94.54-25.3-61.42c0 0-56.6 114.41-75.27 136.09 0 0-3.01 57.81-8.43 73.47-5.42 15.65-31.91 78.27-40.95 99.95-9.03 21.68-15.66 49.38-15.66 49.38 0 0-25.29 3.24-31.84 1.43-6.55-1.81-12.19-4.74-12.19-4.74 0 0 0.14-1.38 0.41-3.95 3.35-31.43 25.63-240.54 26.46-248.06 0.77-6.88 29.78-119.85 57.66-173.4 5.07-9.73 10.09-17.49 14.91-22.3 31.3-31.32 149.63-44.87 149.63-44.87 0 0 33.73 22.29 47.28 35.53 13.55 13.25 22.27 31.02 32.52 85.21 10.23 54.2 13.24 137.9 13.24 137.9 0 0 28.31 31.92 40.95 61.42 12.65 29.51 64.43 130.67 64.43 130.67z"/>
					<path id="&lt;Path&gt;" class="s18" d="m1816.39 1527.68c0 0-12.04 10.24-18.67 13.25-6.62 3.01-20.47 1.5-20.47 1.5 0 0-1.41-1.32-3.92-3.69 9.25-2.16 20.64-5.28 21.7-7.75 1.81-4.21-1.61-14.7-23.29-58.05-21.68-43.35-79.93-116.52-79.93-116.52l-13.55-30.53-39.1-202.49c0 0-32.7 17.61-74.71 32.51-31.28 11.1-85.43-3.58-111.02-11.79 5.07-9.73 10.09-17.49 14.91-22.3 31.3-31.32 149.63-44.87 149.63-44.87 0 0 33.73 22.29 47.28 35.53 13.55 13.25 22.27 31.02 32.52 85.21 10.23 54.2 13.24 137.9 13.24 137.9 0 0 28.31 31.92 40.95 61.42 12.65 29.51 64.43 130.67 64.43 130.67z"/>
					<path id="&lt;Path&gt;" class="s16" d="m1630.62 1059.64c-0.91 7.23-25.29 51.94-59.62 70-34.32 18.07-87.16 6.78-105.68-2.26-18.52-9.03-16.26-16.25-35.23-39.74-12.78-15.82-33.75-34.51-47.46-46.54-6.64-5.83-11.58-10.1-13.05-11.72-4.52-4.97-17.62-10.39-26.65-51.03-9.03-40.65-8.73-108.09-6.32-110.65 2.16-2.29 26.58-15.66 38.61-24.27 1.43-1.02 2.67-1.97 3.7-2.83 7.84-6.63 41.73-16.86 60.33-21.89 4.21-1.13 7.64-2 9.81-2.5 11.74-2.71 38.84-7.52 39.45-6.62 0.6 0.9 10.23 23.78 10.23 23.78 0 0 3.15 8.28 8.02 20.93 10.58 27.46 29.3 75.57 41.66 104.63 18.07 42.45 38.84 69.1 55.55 78.13 16.71 9.03 27.55 15.35 26.65 22.58z"/>
					<path id="&lt;Path&gt;" class="s17" d="m1439.25 818.71c-2.6 12.45-9.73 40.56-29.91 44.47-20.17 3.91-30.42-12.34-30.42-12.34l-3.7-7.41c1.43-1.02 2.67-1.97 3.7-2.83 7.84-6.63 41.73-16.86 60.33-21.89z"/>
					<path id="&lt;Path&gt;" class="s17" d="m1336.77 974.37c0 0 27.11 23.98 34.93 22.33 7.83-1.64 63.6-19.11 63.6-19.11l-12.41 19.9-53.99 45.74-27.91-29.51z"/>
					<path id="&lt;Path&gt;" class="s17" d="m1630.62 1059.64c-0.91 7.23-25.29 51.94-59.62 70-34.32 18.07-87.16 6.78-105.68-2.26-18.52-9.03-16.26-16.25-35.23-39.74-12.78-15.82-33.75-34.51-47.46-46.54l56.51-22.13 43.78-112.47 23.67-52.35 0.17 0.15c10.58 27.46 29.3 75.57 41.66 104.63 18.07 42.45 38.84 69.1 55.55 78.13 16.71 9.03 27.55 15.35 26.65 22.58z"/>
					<path id="&lt;Path&gt;" class="s19" d="m1428.22 843.41c-3.45 6.92-9.17 13.01-17.39 15.56-17.46 5.42-30.42-6.02-31.91-8.13-0.91-1.26-2.46-15.32-3.56-26.36-0.74-7.36-1.27-13.38-1.27-13.38l25.47-39.03 3.62-5.54c0 0 0.33 0.57 0.94 1.6 4.6 7.89 24.82 42.75 27.44 52.72 1.56 5.97 0.56 14.78-3.34 22.56z"/>
					<path id="&lt;Path&gt;" class="s20" d="m1428.22 843.41c0.74-6.68 0.46-12.52 0.46-12.52l-9.48-17.42-14-6.97-29.84 17.98c-0.74-7.36-1.27-13.38-1.27-13.38l25.47-39.03 4.56-3.94c4.6 7.89 24.82 42.75 27.44 52.72 1.56 5.97 0.56 14.78-3.34 22.56z"/>
					<path id="&lt;Path&gt;" class="s19" d="m1435.06 740.34c-2.71 20.09-22.58 24.61-22.58 24.61 0 0-7 25.74-9.3 28.91-2.31 3.16-36.31 35-36.31 35 0 0-0.4-0.17-1.12-0.46-6.53-2.7-39.76-16.52-41.79-18.92-2.26-2.67-30.35-60.11-30.35-60.11l34.14-65.49c0 0 40.02 8.81 55.6 16.26 15.38 7.36 28.57 29.02 28.9 29.57q0.01 0.02 0 0.01 0.01 0 0.02-0.02c3.88-4.37 18.14-7.83 22.03 1.59 0.94 2.24 1.28 5.2 0.76 9.05z"/>
					<path id="&lt;Compound Path&gt;" class="s12" d="m1292.19 994.47c-45.5 0-83.4 32.5-91.77 75.56h-143.82-3.84l-39.4 39.41 36.46 36.46h20.33l12.87-16.25 17.84 12.42h34.77l6.33-12.88h19.19l4.29 15.59h20.55l7.23-11.52h17.18c15.95 28.73 46.59 48.18 81.79 48.18 51.63 0 93.48-41.85 93.48-93.49 0-51.63-41.85-93.48-93.48-93.48zm45.78 124.79c-13.72 0-24.84-14.86-24.84-33.2 0-18.33 11.12-33.19 24.84-33.19 13.71 0 24.84 14.86 24.84 33.19 0 18.34-11.13 33.2-24.84 33.2z"/>
					<path id="&lt;Compound Path&gt;" class="s6" d="m1290.38 988.14c-45.5 0-83.4 32.51-91.76 75.57h-143.83-3.84l-39.4 39.4 36.47 36.47h20.32l12.87-16.26 17.84 12.42h34.78l6.32-12.87h19.2l4.29 15.58h20.54l7.23-11.51h17.18c15.95 28.73 46.6 48.18 81.79 48.18 51.63 0 93.49-41.86 93.49-93.49 0-51.63-41.86-93.49-93.49-93.49zm45.78 124.8c-13.72 0-24.84-14.87-24.84-33.2 0-18.33 11.12-33.19 24.84-33.19 13.72 0 24.84 14.86 24.84 33.19 0 18.33-11.12 33.2-24.84 33.2z"/>
					<path id="&lt;Path&gt;" class="s12" d="m1197.71 1091.71v6.32h-132.53l-4.06-2.03 7-4.29z"/>
					<path id="&lt;Path&gt;" class="s19" d="m1495.58 914.21c-0.14 2.24-2.77 11.41-6.63 23.46-9.47 29.51-26.31 76.26-31.76 80.42-7.68 5.87-112.91 46.52-112.91 46.52 0 0-14 16.26-50.58 24.84-12.75 2.99-24.78 1.76-35.05-1.27-19.21-5.65-32.24-17.55-32.24-19.81 0-3.46 20.77-3.61 32.97-4.81 12.19-1.21 35.98-8.58 34.02-10.24-1.96-1.66-13.55-4.52-17.76-6.33-4.21-1.8-11.44-9.63-9.63-11.43 1.8-1.81 36.27 2.85 40.19 3.76 3.91 0.9 19.72-0.91 19.72-0.91 0 0 21.38-10.53 38.54-20.77 17.17-10.24 54.79-31.16 54.79-31.16l11.63-38.19 7.2-23.62 5.11-16.78c13.55-9.03 52.84-1.35 52.39 6.32z"/>
					<path id="&lt;Path&gt;" class="s20" d="m1488.95 937.67c-9.47 29.51-26.31 76.26-31.76 80.42-7.68 5.87-112.91 46.52-112.91 46.52 0 0-14 16.26-50.58 24.84-12.75 2.99-24.78 1.76-35.05-1.27 8.14 0.91 19.35 1.14 29.96-2.12 19.87-6.1 51.48-25.36 51.48-25.36 0 0 62.33-22.89 84.3-32.22 21.98-9.33 30.42-16.56 30.42-16.56 0 0 13.55-42.15 12.64-47.87-0.73-4.63-26.65-12.79-36.57-15.76l7.2-23.62z"/>
					<path id="&lt;Path&gt;" class="s16" d="m1516.08 862.8c-2.8 30.2-23.41 91.27-26.43 95.3-3.04 4.01-58.69-14.3-58.69-14.3-0.88-0.29-1.85-0.98-2.6-1.72-0.75-0.75-1.27-1.55-1.29-2.09-0.04-1.06 7.26-33.66 11.54-47.93 4.27-14.27 21.73-64.03 32.72-74.11 10.97-10.1 21.08-9.02 28.43-7.47 1.23 0.25 2.58 1.03 3.97 2.31 6.91 6.36 14.68 24.85 12.35 50.01z"/>
					<path id="&lt;Path&gt;" class="s20" d="m1378.93 709.63c-18.06-8.43-47.57-9.04-47.57-9.04l-37.75 48.78 34.14-65.49c0 0 40.02 8.81 55.6 16.26 15.38 7.36 28.57 29.02 28.9 29.57-0.47-0.35-15.53-11.79-33.32-20.08z"/>
					<path id="&lt;Path&gt;" class="s20" d="m1435.06 740.34c-2.71 20.09-22.58 24.61-22.58 24.61 0 0-7 25.74-9.3 28.91-2.31 3.16-36.31 35-36.31 35 0 0-0.4-0.17-1.12-0.46l28.54-35.07 13.55-32.82c0 0 12.34-2.71 18.97-9.04 4.02-3.83 7.38-12.69 7.49-20.18 0.94 2.24 1.28 5.2 0.76 9.05z"/>
					<path id="&lt;Path&gt;" class="s17" d="m1516.08 862.8c-2.8 30.2-23.41 91.27-26.43 95.3-3.04 4.01-58.69-14.3-58.69-14.3-0.88-0.29-1.85-0.98-2.6-1.72 11.26 2.49 36.39 8.02 41.5 8.72 6.63 0.9 15.05-3.32 15.05-3.32 0 0 20.48-77.68 21.74-104.07 0.64-13.32-1.07-23.66-2.92-30.62 6.91 6.36 14.68 24.85 12.35 50.01z"/>
					<path id="&lt;Path&gt;" class="s18" d="m1553.24 1213.95c0 0-56.6 114.41-75.27 136.09 0 0-3.01 57.81-8.43 73.47-5.42 15.65-31.91 78.27-40.95 99.95-9.03 21.68-15.66 49.38-15.66 49.38 0 0-25.29 3.24-31.84 1.43-6.55-1.81-12.19-4.74-12.19-4.74 0 0 0.14-1.38 0.41-3.95 9.34 0.01 22.98-0.34 26.18-2.37 4.97-3.16 42.45-117.88 51.03-138.2 8.59-20.33 14-84.91 14-84.91l46.13-112.45c0 0 30.65-37.04 36.07-29.81 5.42 7.22 10.52 16.11 10.52 16.11z"/>
				</g>
				<g id="&lt;Group&gt;">
					<path id="&lt;Path&gt;" class="s21" d="m943.32 1598.2c0 0 37.52-7.39 39.51-2.56 1.99 4.84-29.56 33.54-29.56 33.54z"/>
					<path id="&lt;Path&gt;" class="s22" d="m954.98 1700.23c0.58 1.16 1.09 5.07 0 8.92-1.04 3.68-3.54 7.31-8.81 8.42-10.8 2.28-84.98-4.55-89.53-4.83-4.55-0.28-31.26-17.34-31.26-17.34 7.67 24.16-12.51 27.86-12.51 27.86l-104.59-0.57c0 0 7.39 15.34-85.07 15.34-92.47 0-103.84-75.79-90.2-118.23 13.64-42.44 57.61-65.93 90.2-65.93 18.19 0 108.09 25.86 129.12 24.72 21.04-1.14 78.16 2.84 78.16 2.84 0 0 42.63-20.46 54.85-29.27 12.23-8.81 56.28-22.74 58.27-19.61 1.99 3.13-12.79 38.08-12.79 38.08 0 0 22.74 33.54 28.14 57.13 5.4 23.59-14.5 36.95-20.75 41.78-6.25 4.83-19.61 22.17-19.61 22.17 0 0 35.24 6.25 36.38 8.52z"/>
					<path id="&lt;Path&gt;" class="s21" d="m592.32 1617.53c0 0-26.71 44.34 3.41 61.67 30.13 17.34 65.66 6.54 87.82 16.2 22.17 9.67 24.16 21.89 24.73 27.29l10.94 0.06c0 0-4.97-25.64-33.39-34.74-28.42-9.09-72.19 0.86-89.81-15.34-17.62-16.2-5.12-50.31-3.7-55.14z"/>
					<path id="&lt;Path&gt;" class="s21" d="m954.98 1709.15c-1.04 3.68-3.54 7.31-8.81 8.42-10.8 2.28-84.98-4.55-89.53-4.83-4.55-0.28-31.26-17.34-31.26-17.34 0 0-3.13-6.53-16.49-7.39-13.36-0.85-67.92-5.68-77.3-9.38-9.38-3.69-21.59-37.27-38.37-51.15-16.78-13.88-32.4-16.77-39.51-18.19 0 0 26.15-0.29 43.77 17.33 17.62 17.62 29.27 43.2 32.68 47.47 3.42 4.26 44.63 8.52 57.98 9.38 13.36 0.85 20.75 0 20.75 0 0 0-29.27-32.4-28.42-34.11 0.85-1.7 19.9 11.65 33.54 24.73 13.64 13.07 44.05 30.69 46.89 32.11 2.54 1.28 76.4 16.4 94.08 2.95z"/>
					<path id="&lt;Path&gt;" class="s21" d="m835.23 1642.92c0 0 10.8 20.65 15.35 27.09 4.54 6.45 17.43 16.68 18.56 17.43 1.14 0.76 49.46 4.27 49.46 4.27l3.9-4.93c0 0-46.91-0.66-51.08-2.56-4.17-1.89-17.43-16.48-21.98-22.54-4.55-6.07-13.07-24.64-14.21-18.76z"/>
					<path id="&lt;Path&gt;" class="s21" d="m884.78 1602.75c0 0 17.9 13.36 18.75 16.77 0.86 3.41 4.41 19.75 2.56 20.46-4.88 1.1-5.87-16.48-7.39-18.61-1.51-2.14-15.16-13.5-17.62-15.78-2.46-2.27-0.73-6.23 3.7-2.84z"/>
					<path id="&lt;Path&gt;" class="s21" d="m947.16 1649.5c0 0-8.53-3.27-11.08-2.98-2.56 0.28-12.51 2.98-11.66 4.83 0.86 1.85 10.38 0.14 12.94 0 2.55-0.14 9.94 2.42 10.51 1.71 0.57-0.72 0.39-3.15-0.71-3.56z"/>
					<path id="&lt;Path&gt;" class="s21" d="m903.44 1659.4c0 0-7.58-4.54-8.53-3.79-0.94 0.76-0.38 14.4 2.47 16.49 2.84 2.08 16.29-2.37 15.91-5.35-0.38-2.99-9.85-7.35-9.85-7.35z"/>
				</g>
			</g>
		</g>
	</g>
</svg>