<svg width="306" height="70" viewBox="0 0 306 70" fill="none" xmlns="http://www.w3.org/2000/svg">
<path d="M15.2273 56.2517C10.8711 56.2517 7.57498 55.3843 5.33904 53.6496C3.14164 51.9148 2.04295 49.8138 2.04295 47.3465C2.04295 46.0743 2.25498 45.072 2.67904 44.3396C3.14164 43.5685 3.79701 43.183 4.64512 43.183C5.49324 44.4938 6.57266 45.6503 7.88338 46.6526C9.23266 47.6164 10.6205 48.3681 12.0469 48.9078C13.4732 49.409 14.7261 49.6596 15.8056 49.6596C16.6537 49.6596 17.3283 49.5054 17.8295 49.197C18.3692 48.85 18.639 48.3103 18.639 47.5778C18.639 47.0767 18.5427 46.6141 18.3499 46.19C18.1957 45.7659 17.7524 45.3226 17.0199 44.86C16.326 44.3588 15.1887 43.8191 13.6082 43.2409L11.6421 42.4891C9.48324 41.641 7.76773 40.8122 6.49556 40.0026C5.26193 39.193 4.37527 38.2678 3.83556 37.227C3.3344 36.1861 3.08382 34.9332 3.08382 33.4683C3.08382 32.0804 3.35367 30.5191 3.89338 28.7843C4.47164 27.0496 5.24266 25.2955 6.20643 23.5222C7.20875 21.7488 8.36527 20.1104 9.67599 18.607C10.9867 17.1035 12.3938 15.8891 13.8973 14.9639C15.4008 14.0387 16.9621 13.5761 18.5812 13.5761C19.9305 13.5761 21.0677 13.7303 21.9929 14.0387C22.9182 14.3085 23.8048 15.0025 24.6529 16.1204C25.6938 16.4288 26.5227 16.9493 27.1395 17.6817C27.7563 18.3756 28.1996 19.1081 28.4695 19.8791C28.7393 20.6116 28.8743 21.2477 28.8743 21.7874C28.8743 22.7897 28.6815 23.927 28.296 25.1991C27.9105 26.4713 27.4864 27.7628 27.0238 29.0735C26.5612 30.3842 26.1757 31.5985 25.8673 32.7165C25.7902 33.0635 25.6745 33.3526 25.5203 33.5839C25.3661 33.8152 25.077 33.9309 24.6529 33.9309C24.0361 33.9309 23.2844 33.6417 22.3977 33.0635C21.5496 32.4467 20.7979 31.6564 20.1425 30.6926C19.4872 29.7288 19.1595 28.7458 19.1595 27.7435C19.1595 26.9725 19.2944 26.1243 19.5643 25.1991C19.8341 24.2739 20.104 23.4065 20.3738 22.597C20.6437 21.7488 20.7786 21.1128 20.7786 20.6887C20.7786 20.4188 20.7593 20.2068 20.7208 20.0526C20.6822 19.8984 20.528 19.8213 20.2582 19.8213C19.6028 19.8213 18.8318 20.2646 17.9451 21.1513C17.097 21.9994 16.2489 23.0981 15.4008 24.4474C14.5912 25.7581 13.9166 27.1652 13.3769 28.6687C12.8372 30.1336 12.5673 31.4829 12.5673 32.7165C12.5673 33.3719 12.8757 34.0272 13.4925 34.6826C14.1479 35.338 15.3237 35.9933 17.0199 36.6487L18.8125 37.3426C21.5882 38.422 23.6506 39.4629 24.9999 40.4652C26.3492 41.429 27.2166 42.412 27.6021 43.4143C28.0261 44.3781 28.2382 45.3804 28.2382 46.4213C28.2382 49.5054 27.0624 51.9148 24.7108 53.6496C22.3977 55.3843 19.2366 56.2517 15.2273 56.2517ZM46.3188 56.1361C45.1237 56.1361 43.813 55.9241 42.3866 55.5C40.9602 55.0759 39.5917 54.4206 38.2809 53.5339C37.0088 52.6087 35.9679 51.4329 35.1583 50.0065C34.3488 48.5801 33.944 46.8839 33.944 44.9178C33.944 44.3396 33.9632 43.2987 34.0018 41.7952C34.0404 40.2532 34.0982 38.4606 34.1753 36.4174C34.2524 34.3742 34.3295 32.2346 34.4066 29.9987C34.5222 27.7628 34.6186 25.6425 34.6957 23.6378C34.7728 21.5946 34.8499 19.8599 34.927 18.4335C35.0041 16.9685 35.0427 16.0048 35.0427 15.5422C35.0812 14.617 35.3125 14.0387 35.7366 13.8074C36.1992 13.5375 36.7004 13.4026 37.2401 13.4026C38.2038 13.4026 39.1869 13.6532 40.1892 14.1543C41.2301 14.617 42.1167 15.4843 42.8492 16.7565C43.5817 17.9901 43.9479 19.7828 43.9479 22.1343C43.9479 23.021 43.8708 24.5438 43.7166 26.7026C43.5624 28.8229 43.3889 31.2516 43.1961 33.9887C43.0419 36.7258 42.9648 39.5014 42.9648 42.3157C42.9648 43.742 43.2347 44.9564 43.7744 45.9587C44.3527 46.961 45.2393 47.4622 46.4344 47.4622C47.5138 47.4622 48.4005 47.1538 49.0944 46.537C49.8269 45.9201 50.3473 44.6094 50.6557 42.6048C50.7714 41.988 50.8677 40.9857 50.9448 39.5978C51.0219 38.21 51.099 36.6101 51.1761 34.7983C51.2918 32.9864 51.3882 31.0974 51.4653 29.1313C51.5424 27.1652 51.6195 25.2762 51.6966 23.4643C51.7737 21.6525 51.8315 20.0719 51.8701 18.7226C51.9086 17.3733 51.9472 16.4096 51.9857 15.8313C52.0628 14.7519 52.3134 14.0772 52.7375 13.8074C53.1615 13.5375 53.6434 13.4026 54.1831 13.4026C55.1469 13.4026 56.1685 13.6339 57.2479 14.0965C58.3659 14.5591 59.2911 15.3301 60.0235 16.4096C60.756 17.489 61.0837 18.9925 61.0066 20.92C60.968 22.7704 60.8524 24.9871 60.6596 27.57C60.4669 30.1529 60.2356 32.9285 59.9657 35.897C59.7344 38.8654 59.4453 41.8338 59.0983 44.8022C58.8285 47.1152 58.2309 49.0235 57.3057 50.527C56.419 51.9919 55.3204 53.1291 54.0096 53.9387C52.7375 54.7483 51.4267 55.3072 50.0775 55.6157C48.7282 55.9626 47.4753 56.1361 46.3188 56.1361ZM74.0879 56.2517C73.2784 56.2517 72.3531 55.9819 71.3123 55.4422C70.31 54.8639 69.4233 53.958 68.6523 52.7243C67.8813 51.4522 67.4958 49.7752 67.4958 47.6935C67.4958 47.4236 67.4958 47.173 67.4958 46.9417C67.4958 46.6719 67.515 46.402 67.5536 46.1322C67.7849 44.0119 68.0162 41.4675 68.2475 38.4991C68.5173 35.5307 68.7486 32.3888 68.9414 29.0735C69.1727 25.7196 69.3655 22.462 69.5197 19.3009C68.6715 18.6455 67.9198 17.8745 67.2644 16.9878C66.6091 16.1012 66.2814 15.3494 66.2814 14.7326C66.2814 14.3856 66.3971 14.1543 66.6284 14.0387C66.8597 13.8845 67.1102 13.8074 67.3801 13.8074C68.4595 13.8074 69.7317 13.7688 71.1966 13.6917C72.6615 13.6146 74.1072 13.5568 75.5336 13.5183C76.9985 13.4412 78.2321 13.4026 79.2344 13.4026C81.4318 13.4026 83.475 13.7688 85.364 14.5013C87.2915 15.2338 88.9685 16.1783 90.3949 17.3348C91.8598 18.4913 92.9971 19.7249 93.8066 21.0357C94.6162 22.3464 95.021 23.58 95.021 24.7365C95.021 27.0881 94.5005 29.2662 93.4597 31.2709C92.4573 33.237 91.1273 35.0296 89.4697 36.6487C87.8505 38.2678 86.0965 39.7135 84.2075 40.9857C83.2437 41.641 82.3571 42.1036 81.5475 42.3735C80.7379 42.6433 80.0055 42.7783 79.3501 42.7783C78.6947 42.7783 78.1165 42.6626 77.6153 42.4313C77.1527 42.2 76.7672 41.9109 76.4588 41.5639C76.266 43.6842 76.0733 45.8816 75.8805 48.1561C75.6878 50.392 75.5143 52.8014 75.3601 55.3843C75.3215 55.7313 75.1866 55.9626 74.9553 56.0783C74.724 56.1939 74.4349 56.2517 74.0879 56.2517ZM77.5575 29.1313C77.4418 30.6733 77.3069 32.1768 77.1527 33.6417C77.0371 35.0681 76.9021 36.5138 76.7479 37.9787C80.2175 35.55 82.6847 33.1406 84.1497 30.7504C85.6146 28.3603 86.3471 26.24 86.3471 24.3896C86.3471 22.809 85.9423 21.5368 85.1327 20.573C84.5544 20.573 83.9955 20.573 83.4558 20.573C82.916 20.5345 82.3956 20.5152 81.8944 20.5152C80.7379 20.5152 79.6778 20.5345 78.714 20.573C77.7502 20.573 76.8443 20.5923 75.9962 20.6309C76.5359 21.2477 76.9407 22.0572 77.2105 23.0596C77.5189 24.0619 77.6731 25.3341 77.6731 26.8761C77.6731 27.223 77.6539 27.5893 77.6153 27.9748C77.6153 28.3217 77.596 28.7072 77.5575 29.1313ZM105.937 56.2517C105.128 56.2517 104.203 55.9819 103.162 55.4422C102.159 54.8639 101.273 53.958 100.502 52.7243C99.7308 51.4522 99.3453 49.7752 99.3453 47.6935C99.3453 47.4236 99.3453 47.173 99.3453 46.9417C99.3453 46.6719 99.3646 46.402 99.4031 46.1322C99.6344 44.0119 99.8657 41.4675 100.097 38.4991C100.367 35.5307 100.598 32.3888 100.791 29.0735C101.022 25.7196 101.215 22.462 101.369 19.3009C100.521 18.6455 99.7693 17.8745 99.114 16.9878C98.4586 16.1012 98.1309 15.3494 98.1309 14.7326C98.1309 14.3856 98.2466 14.1543 98.4779 14.0387C98.7092 13.8845 98.9598 13.8074 99.2296 13.8074C100.309 13.8074 101.581 13.7688 103.046 13.6917C104.511 13.6146 105.957 13.5568 107.383 13.5183C108.848 13.4412 110.082 13.4026 111.084 13.4026C113.281 13.4026 115.325 13.7688 117.214 14.5013C119.141 15.2338 120.818 16.1783 122.244 17.3348C123.709 18.4913 124.847 19.7249 125.656 21.0357C126.466 22.3464 126.87 23.58 126.87 24.7365C126.87 27.0881 126.35 29.2662 125.309 31.2709C124.307 33.237 122.977 35.0296 121.319 36.6487C119.7 38.2678 117.946 39.7135 116.057 40.9857C115.093 41.641 114.207 42.1036 113.397 42.3735C112.587 42.6433 111.855 42.7783 111.2 42.7783C110.544 42.7783 109.966 42.6626 109.465 42.4313C109.002 42.2 108.617 41.9109 108.308 41.5639C108.116 43.6842 107.923 45.8816 107.73 48.1561C107.537 50.392 107.364 52.8014 107.21 55.3843C107.171 55.7313 107.036 55.9626 106.805 56.0783C106.574 56.1939 106.284 56.2517 105.937 56.2517ZM109.407 29.1313C109.291 30.6733 109.156 32.1768 109.002 33.6417C108.887 35.0681 108.752 36.5138 108.597 37.9787C112.067 35.55 114.534 33.1406 115.999 30.7504C117.464 28.3603 118.197 26.24 118.197 24.3896C118.197 22.809 117.792 21.5368 116.982 20.573C116.404 20.573 115.845 20.573 115.305 20.573C114.766 20.5345 114.245 20.5152 113.744 20.5152C112.587 20.5152 111.527 20.5345 110.564 20.573C109.6 20.573 108.694 20.5923 107.846 20.6309C108.385 21.2477 108.79 22.0572 109.06 23.0596C109.368 24.0619 109.523 25.3341 109.523 26.8761C109.523 27.223 109.503 27.5893 109.465 27.9748C109.465 28.3217 109.446 28.7072 109.407 29.1313ZM191.24 56.2517C190.661 56.2517 190.006 56.0397 189.273 55.6157C188.541 55.2301 187.809 54.5555 187.076 53.5917C186.382 52.628 185.804 51.3172 185.341 49.6596C184.879 48.0019 184.647 45.9201 184.647 43.4143C184.647 41.8338 184.686 39.8099 184.763 37.3426C184.84 34.8368 184.975 32.119 185.168 29.1891C185.399 26.2207 185.669 23.233 185.977 20.2261C185.052 19.6093 184.223 18.8383 183.491 17.913C182.797 16.9493 182.45 15.9855 182.45 15.0217C182.45 14.6748 182.566 14.4435 182.797 14.3278C183.028 14.1736 183.279 14.0965 183.549 14.0965C184.628 14.0965 185.9 14.0387 187.365 13.923C188.869 13.8074 190.391 13.6917 191.933 13.5761C193.476 13.4604 194.844 13.4026 196.039 13.4026C198.237 13.4026 200.26 13.7688 202.111 14.5013C203.961 15.1952 205.58 16.1397 206.968 17.3348C208.395 18.4913 209.493 19.7635 210.264 21.1513C211.035 22.5006 211.421 23.8306 211.421 25.1413C211.421 26.3364 210.978 27.8013 210.091 29.5361C209.243 31.2709 207.951 33.1213 206.217 35.0874C204.52 37.0535 202.4 38.9425 199.856 40.7543L217.84 61.7452C218.032 61.938 218.206 62.1886 218.36 62.497C218.514 62.8054 218.591 63.0945 218.591 63.3643C218.591 63.9041 218.244 64.1739 217.55 64.1739C216.972 64.1739 216.182 64.0583 215.18 63.827C214.177 63.5957 213.136 63.2294 212.057 62.7283C211.016 62.2657 210.091 61.6681 209.281 60.9357L192.57 45.2648C192.531 46.4599 192.492 47.6357 192.454 48.7922C192.415 49.9101 192.396 50.951 192.396 51.9148C192.396 52.5701 192.396 53.187 192.396 53.7652C192.435 54.3435 192.473 54.8832 192.512 55.3843V55.4422C192.512 55.7506 192.377 55.9626 192.107 56.0783C191.837 56.1939 191.548 56.2517 191.24 56.2517ZM199.856 20.1104C199.085 20.1104 198.256 20.1683 197.369 20.2839C196.521 20.3996 195.692 20.5152 194.883 20.6309C194.536 23.2523 194.208 26.1051 193.9 29.1891C193.591 32.2346 193.302 35.2609 193.032 38.2678C195.114 36.9186 196.849 35.4151 198.237 33.7574C199.624 32.0612 200.646 30.3842 201.301 28.7265C201.995 27.0688 202.342 25.5654 202.342 24.2161C202.342 23.1752 202.13 22.2885 201.706 21.5561C201.321 20.8236 200.704 20.3417 199.856 20.1104ZM228.65 56.3096C227.725 56.3096 226.722 55.9819 225.643 55.3265C224.564 54.6712 223.677 53.5532 222.983 51.9726C222.289 50.392 222.019 48.2332 222.173 45.4961L223.388 22.3078C222.771 22.3849 222.154 22.4428 221.537 22.4813C220.959 22.4813 220.4 22.4813 219.86 22.4813C218.434 22.4813 217.085 22.1151 215.812 21.3826C214.579 20.6501 213.577 19.7635 212.806 18.7226C212.073 17.6817 211.707 16.6987 211.707 15.7735C211.707 15.1181 212.092 14.7904 212.863 14.7904C213.326 14.7904 214.193 14.7326 215.466 14.617C216.738 14.5013 218.203 14.3664 219.86 14.2122C221.557 14.058 223.253 13.9038 224.949 13.7496C226.684 13.5954 228.245 13.4604 229.633 13.3448C231.059 13.2291 232.1 13.1713 232.756 13.1713C233.874 13.1713 235.03 13.4026 236.225 13.8652C237.42 14.2893 238.519 14.8675 239.521 15.6C240.562 16.2939 241.41 17.0842 242.066 17.9709C242.721 18.819 243.049 19.6478 243.049 20.4574C243.049 20.8814 242.837 21.0935 242.412 21.0935C242.027 21.0935 241.68 21.0935 241.372 21.0935C241.063 21.0549 240.736 21.0357 240.389 21.0357C239.078 21.0357 237.748 21.0742 236.399 21.1513C235.049 21.2284 233.719 21.3248 232.409 21.4404L230.442 54.8639C230.404 55.4036 230.25 55.7699 229.98 55.9626C229.749 56.1939 229.305 56.3096 228.65 56.3096Z" fill="#FDFDFD"/>
<path d="M253.721 56.483C251.909 56.483 250.328 56.2517 248.979 55.7891C247.63 55.3651 246.666 54.6133 246.088 53.5339C245.047 53.1099 244.314 52.4545 243.89 51.5678C243.505 50.6426 243.312 49.6403 243.312 48.5609C245.239 47.0959 247.109 45.3804 248.921 43.4143C250.772 41.4483 252.468 39.3858 254.01 37.227C255.59 35.0681 256.959 32.9864 258.115 30.9817C259.311 28.9385 260.236 27.1074 260.891 25.4883C261.546 23.8306 261.874 22.5584 261.874 21.6717C261.874 20.2839 261.161 19.59 259.735 19.59C258.886 19.59 257.903 19.9755 256.785 20.7465C255.667 21.5175 254.511 22.5584 253.316 23.8691C252.121 25.1413 251.003 26.6062 249.962 28.2639C248.96 29.9216 248.131 31.6564 247.475 33.4683C245.933 32.9285 244.758 32.0419 243.948 30.8083C243.177 29.5361 242.792 28.2061 242.792 26.8183C242.792 25.4304 243.177 23.9848 243.948 22.4813C244.758 20.9778 245.798 19.5707 247.071 18.26C248.381 16.9493 249.846 15.8891 251.465 15.0796C253.085 14.27 254.723 13.8652 256.381 13.8652C258.077 13.8652 259.619 14.058 261.007 14.4435C262.395 14.829 263.628 15.7156 264.708 17.1035C266.404 17.6432 267.676 18.6455 268.524 20.1104C269.411 21.5754 269.854 23.0403 269.854 24.5052C269.854 26.0087 269.392 27.782 268.466 29.8252C267.541 31.8299 266.269 33.9501 264.65 36.1861C263.031 38.422 261.161 40.6387 259.041 42.8361C256.959 44.9949 254.762 46.961 252.448 48.7343V48.85C253.913 48.4259 255.59 48.0019 257.479 47.5778C259.368 47.1538 261.18 46.9417 262.915 46.9417C264.881 46.9417 266.558 47.3465 267.946 48.1561C269.372 48.9271 270.085 50.3728 270.085 52.493C270.085 52.8786 269.97 53.1484 269.738 53.3026C269.507 53.4568 269.257 53.5339 268.987 53.5339C268.447 53.5339 267.503 53.6881 266.153 53.9965C264.804 54.2664 263.32 54.6133 261.701 55.0374C260.082 55.4229 258.539 55.7506 257.075 56.0204C255.61 56.3288 254.492 56.483 253.721 56.483ZM297.016 56.2517C296.284 56.2517 295.416 56.1168 294.414 55.847C293.412 55.6157 292.525 55.1723 291.754 54.517C290.983 53.8616 290.597 52.9171 290.597 51.6835C290.597 51.0281 290.636 50.3728 290.713 49.7174C290.829 49.062 290.925 48.0597 291.002 46.7104C289.345 47.0188 287.822 47.2887 286.434 47.52C285.085 47.7513 284.102 47.867 283.485 47.867C282.02 47.867 280.671 47.732 279.437 47.4622C278.242 47.1923 277.452 46.6912 277.066 45.9587C275.678 45.6503 274.676 44.9757 274.059 43.9348C273.442 42.8554 273.134 41.7567 273.134 40.6387C274.483 38.5184 275.64 36.1668 276.603 33.5839C277.567 31.001 278.358 28.4567 278.974 25.9509C279.63 23.4065 280.112 21.1513 280.42 19.1852C280.728 17.2191 280.883 15.7928 280.883 14.9061C280.96 14.5977 281.191 14.3856 281.577 14.27C281.962 14.1158 282.405 14.0387 282.907 14.0387C283.832 14.0387 284.718 14.3085 285.567 14.8483C286.453 15.3494 287.186 16.0819 287.764 17.0457C288.342 18.0094 288.631 19.1659 288.631 20.5152C288.631 21.5175 288.458 22.9054 288.111 24.6787C287.764 26.4135 287.263 28.3025 286.607 30.3456C285.952 32.3503 285.162 34.2971 284.237 36.1861C283.35 38.0365 282.367 39.5785 281.287 40.8122V40.9278C282.02 40.7351 282.984 40.4652 284.179 40.1183C285.374 39.7713 286.646 39.4436 287.995 39.1352C289.383 38.8268 290.636 38.6341 291.754 38.557C291.831 36.321 291.889 34.2007 291.927 32.1961C292.005 30.1529 292.062 28.4952 292.101 27.223C292.139 25.9509 292.159 25.3148 292.159 25.3148C292.236 25.0064 292.467 24.7943 292.853 24.6787C293.238 24.5245 293.681 24.4474 294.183 24.4474C295.108 24.4474 296.033 24.6594 296.958 25.0835C297.883 25.469 298.655 26.0665 299.271 26.8761C299.888 27.6471 300.158 28.6494 300.081 29.883L299.734 38.4991C301.083 38.8075 302.24 39.3472 303.203 40.1183C304.206 40.8893 304.707 41.9687 304.707 43.3565C304.707 43.742 304.591 44.0119 304.36 44.1661C304.129 44.3203 303.878 44.3974 303.608 44.3974C303.338 44.3974 302.779 44.4552 301.931 44.5709C301.083 44.648 300.216 44.7829 299.329 44.9757C299.175 46.6333 299.001 48.3488 298.809 50.1222C298.655 51.857 298.481 53.611 298.288 55.3843C298.211 55.9626 297.787 56.2517 297.016 56.2517Z" fill="#EEA115"/>
<path d="M134.927 35.4999C134.927 30.1187 137.065 24.9579 140.87 21.1528C144.675 17.3478 149.836 15.2101 155.217 15.2101C160.598 15.2101 165.759 17.3478 169.564 21.1528C173.369 24.9579 175.507 30.1187 175.507 35.4999C175.507 40.8811 173.369 46.0419 169.564 49.847C165.759 53.6521 160.598 55.7898 155.217 55.7898C149.836 55.7898 144.675 53.6521 140.87 49.847C137.065 46.0419 134.927 40.8811 134.927 35.4999ZM155.217 10.1376C141.209 10.1376 129.855 21.4923 129.855 35.4999C129.855 49.5075 141.209 60.8623 155.217 60.8623C169.225 60.8623 180.579 49.5075 180.579 35.4999C180.579 21.4923 169.225 10.1376 155.217 10.1376ZM155.217 26.6231C155.717 26.6231 156.211 26.5247 156.673 26.3335C157.134 26.1424 157.554 25.8621 157.907 25.5089C158.26 25.1556 158.541 24.7362 158.732 24.2746C158.923 23.8131 159.021 23.3184 159.021 22.8188C159.021 22.3192 158.923 21.8245 158.732 21.3629C158.541 20.9014 158.26 20.482 157.907 20.1287C157.554 19.7754 157.134 19.4952 156.673 19.304C156.211 19.1128 155.717 19.0144 155.217 19.0144C154.208 19.0144 153.24 19.4152 152.527 20.1287C151.813 20.8422 151.413 21.8098 151.413 22.8188C151.413 23.8278 151.813 24.7954 152.527 25.5089C153.24 26.2223 154.208 26.6231 155.217 26.6231ZM155.217 29.1594C151.268 29.1594 147.157 28.2539 143.477 26.8032L141.597 31.5181C144.326 32.6061 147.248 33.3391 150.144 33.8032C150.144 36.0097 150.363 38.2771 149.343 40.3137L145.341 48.3181L149.881 50.5854L153.817 42.7104C153.947 42.4498 154.147 42.2305 154.395 42.0772C154.643 41.924 154.928 41.8428 155.219 41.8428C155.511 41.8428 155.796 41.924 156.044 42.0772C156.292 42.2305 156.492 42.4498 156.622 42.7104L160.558 50.5854L165.098 48.3181L161.096 40.3137C160.074 38.2746 160.289 36.0072 160.289 33.8007C163.201 33.3445 166.057 32.5819 168.809 31.5257C168.872 31.5003 166.957 26.8032 166.95 26.8083C163.264 28.2438 159.171 29.1594 155.217 29.1594Z" fill="#FDFDFD"/>
</svg>
