<svg width="22" height="22" viewBox="0 0 22 22" fill="none" xmlns="http://www.w3.org/2000/svg">
<line x1="1.87327" y1="1.80153" x2="20.5107" y2="19.7995" stroke="black" stroke-width="1.36364" stroke-linecap="round"/>
<path d="M19.0912 14.6283V10.0888C19.0912 6.19009 19.0912 4.24072 17.893 3.02954C16.6948 1.81836 14.7663 1.81836 10.9094 1.81836C7.05241 1.81836 5.12394 1.81836 3.92574 3.02954C2.72754 4.24072 2.72754 6.19009 2.72754 10.0888V14.6283C2.72754 17.4433 2.72754 18.8509 3.39491 19.4659C3.71319 19.7592 4.11495 19.9435 4.54292 19.9925C5.44028 20.0952 6.4882 19.1683 8.58405 17.3146C9.51047 16.4952 9.97368 16.0855 10.5096 15.9775C10.7735 15.9244 11.0452 15.9244 11.3091 15.9775C11.845 16.0855 12.3082 16.4952 13.2347 17.3146C15.3305 19.1683 16.3784 20.0952 17.2758 19.9925C17.7038 19.9435 18.1055 19.7592 18.4238 19.4659C19.0912 18.8509 19.0912 17.4433 19.0912 14.6283Z" stroke="black" stroke-width="1.36364"/>
<path d="M13.6362 5.4541H8.18164" stroke="black" stroke-width="1.36364" stroke-linecap="round"/>
</svg>
